<svg width="4208" height="2667" viewBox="0 0 4208 2667" fill="none" xmlns="http://www.w3.org/2000/svg">
<path d="M3311.49 2219.31L3555.47 2220.4L3709.39 2480.35L3310.33 2478.57L3311.49 2219.31ZM3537.81 2190.59L3311.63 2189.57L3313.32 1811.45L3537.81 2190.59V2190.59ZM3265.16 1644.23L3261.17 2533.59L3809.65 2536.04L3265.16 1644.23Z" fill="#F7CC7F"/>
<path d="M1170.52 869.52H3178.03C3227.23 869.52 3267.11 909.387 3267.11 958.587V1993.97V2159.89C3267.11 2194.4 3244.29 2222.37 3216.15 2222.37H2354.56V2468.92H2865.03C2903.15 2468.92 2934.05 2499.83 2934.05 2537.96H2354.56H2185.28H2174.27H2005H1425.51C1425.51 2499.83 1456.41 2468.92 1494.53 2468.92H2005V2222.37H1132.39C1104.25 2222.37 1081.44 2194.4 1081.44 2159.89V1993.97V958.587C1081.44 909.387 1121.32 869.52 1170.52 869.52" fill="#213854"/>
<path d="M1446.97 2468.92H1957.44V2177.39H2307V2468.92H2817.45C2855.59 2468.92 2886.49 2499.83 2886.49 2537.96H2307H2137.72H2126.71H1957.44H1377.94C1377.94 2499.83 1408.85 2468.92 1446.97 2468.92Z" fill="#001333"/>
<path d="M1033.88 1993.97V958.587C1033.88 909.4 1073.76 869.52 1122.95 869.52H3130.47C3179.67 869.52 3219.55 909.4 3219.55 958.587V1993.97H1033.88Z" fill="#001333"/>
<path d="M3219.55 1993.97V2159.89C3219.55 2194.4 3196.73 2222.37 3168.59 2222.37H1084.83C1056.69 2222.37 1033.88 2194.4 1033.88 2159.89V1993.97H3219.55Z" fill="#001333"/>
<path d="M1085.04 1949.01V961.347C1085.04 935.467 1106.78 914.48 1133.61 914.48H3119.81C3146.64 914.48 3168.39 935.467 3168.39 961.347V1949.01H1085.04Z" fill="#EAFCFC"/>
<path d="M2498.6 1396.37C2498.6 1396.37 2467.27 1410.03 2450.05 1519.13C2450.05 1519.13 2476.05 1536.55 2476.59 1525.48C2477.11 1514.41 2498.6 1396.37 2498.6 1396.37" fill="#B75742"/>
<path d="M2569.19 1141.83C2559.69 1166.23 2571.79 1193.72 2596.19 1203.21C2620.6 1212.71 2648.08 1200.61 2657.57 1176.2C2667.07 1151.8 2654.99 1124.31 2630.57 1114.81C2606.16 1105.32 2578.68 1117.41 2569.19 1141.83Z" fill="#F8C48B"/>
<path d="M2597.65 1203.75C2597.64 1203.75 2597.63 1203.75 2597.63 1203.75C2597.63 1203.75 2597.64 1203.75 2597.65 1203.75ZM2597.25 1203.61C2597.17 1203.59 2597.11 1203.55 2597.03 1203.52C2597.11 1203.55 2597.17 1203.57 2597.25 1203.61ZM2596.99 1203.51C2596.92 1203.48 2596.84 1203.45 2596.77 1203.43C2596.84 1203.45 2596.92 1203.48 2596.99 1203.51ZM2596.72 1203.41C2596.55 1203.35 2596.37 1203.28 2596.19 1203.21C2577.45 1195.92 2565.97 1178.04 2565.95 1159.08C2565.97 1178.04 2577.45 1195.92 2596.19 1203.21C2596.37 1203.28 2596.55 1203.35 2596.72 1203.41ZM2569.19 1141.83C2569.21 1141.76 2569.24 1141.68 2569.27 1141.61C2569.24 1141.68 2569.21 1141.76 2569.19 1141.83ZM2569.28 1141.59C2569.29 1141.53 2569.32 1141.48 2569.33 1141.43C2569.32 1141.48 2569.29 1141.55 2569.28 1141.59ZM2569.4 1141.28C2569.4 1141.28 2569.4 1141.27 2569.41 1141.25C2569.4 1141.27 2569.4 1141.28 2569.4 1141.28Z" fill="#D6CAC4"/>
<path d="M2613.35 1206.44C2608.13 1206.44 2602.83 1205.57 2597.65 1203.75C2597.64 1203.75 2597.63 1203.75 2597.63 1203.75C2597.49 1203.69 2597.37 1203.65 2597.25 1203.61C2597.17 1203.57 2597.11 1203.55 2597.03 1203.52C2597.01 1203.52 2597 1203.52 2596.99 1203.51C2596.92 1203.48 2596.84 1203.45 2596.77 1203.43C2596.76 1203.43 2596.73 1203.41 2596.72 1203.41C2596.55 1203.35 2596.37 1203.28 2596.19 1203.21C2577.45 1195.92 2565.97 1178.04 2565.95 1159.08C2565.93 1153.33 2566.97 1147.49 2569.19 1141.83C2569.21 1141.76 2569.24 1141.68 2569.27 1141.61C2569.27 1141.61 2569.27 1141.6 2569.28 1141.59C2569.29 1141.55 2569.32 1141.48 2569.33 1141.43C2569.36 1141.39 2569.37 1141.33 2569.4 1141.28C2569.4 1141.28 2569.4 1141.27 2569.41 1141.25C2570.29 1139.07 2571.33 1136.99 2572.48 1135.01C2573.97 1135.43 2575.45 1135.87 2576.95 1136.37C2608.72 1147.01 2629.32 1172.39 2635.6 1200.89C2628.8 1204.49 2621.16 1206.44 2613.35 1206.44" fill="#E39D6C"/>
<path d="M2450.63 1235.61C2459.48 1278.2 2499.64 1307.03 2541.36 1305.03C2583.07 1303.03 2618.97 1270.56 2621.87 1227.43C2625.23 1177.41 2584.13 1132.76 2529.57 1135.37C2475 1137.99 2440.36 1186.27 2450.63 1235.61Z" fill="#F8C48B"/>
<path d="M2695.11 1948.93C2694.52 1935.85 2693.49 1924.64 2691.79 1916.04C2680.04 1856.79 2630.68 1785.19 2630.68 1785.19L2454.43 1762.96L2461.05 1800.49L2450.56 1802.37C2450.56 1802.37 2432.51 1885.56 2437.85 1948.93H2695.11" fill="#355389"/>
<path d="M2293.28 1562.39C2293.28 1562.39 2402.17 1596.53 2433.13 1601.09C2435.8 1590.39 2459.59 1531.44 2461.88 1521.33C2480.45 1531.85 2504.12 1519.2 2523.13 1528.56C2513.56 1562.31 2492.07 1673.47 2483.48 1678.47C2457.35 1693.71 2290.99 1602.08 2289.17 1601.24C2296.09 1583.23 2293.28 1562.39 2293.28 1562.39" fill="#F38B80"/>
<path d="M2447.95 1557.07C2447.95 1557.07 2432.13 1593.27 2433.99 1593C2435.84 1592.73 2450.05 1593 2450.05 1593V1562.91L2447.95 1557.07Z" fill="#B75742"/>
<path d="M2587.55 1376.37C2587.55 1376.37 2629.8 1381.17 2655.08 1408.67C2680.35 1436.16 2614.23 1657.13 2609.63 1692.13C2605.04 1727.12 2653.57 1823.96 2653.57 1823.96C2653.57 1823.96 2488.59 1856.75 2445.69 1828.43C2445.69 1828.43 2441.92 1557.99 2446.52 1533C2451.11 1508 2489.41 1406.36 2498.6 1396.37C2507.79 1386.37 2587.55 1376.37 2587.55 1376.37" fill="#F47458"/>
<path d="M2566.28 1291.19C2566.28 1291.19 2566.61 1293.07 2567.21 1296.25C2570.05 1311.59 2581.03 1362.44 2588.44 1376.41C2597.39 1393.31 2557.77 1447.19 2519.65 1440.61C2508.31 1438.65 2529.25 1391.11 2528.24 1386.07C2526.32 1376.43 2523.71 1363.28 2521.03 1349.79C2519.52 1342.17 2518 1334.47 2516.56 1327.21C2512.48 1306.61 2509.16 1289.76 2509.16 1289.76L2566.28 1291.19" fill="#F7A491"/>
<path d="M2567.21 1296.25C2566.61 1293.07 2566.28 1291.19 2566.28 1291.19L2509.16 1289.76C2509.16 1289.76 2512.48 1306.61 2516.56 1327.21C2517.99 1334.43 2519.51 1342.09 2521 1349.67C2529.83 1348.36 2539.04 1344.08 2548.28 1336.01C2558.36 1327.21 2564.96 1316.64 2568.95 1305.35C2568.24 1301.75 2567.65 1298.64 2567.21 1296.25" fill="#F47458"/>
<path d="M2531.92 1155.4C2531.92 1155.4 2555.21 1158.64 2572.09 1180.43C2588.97 1202.21 2607.17 1269.59 2565.24 1306.21C2523.31 1342.84 2481.88 1301.39 2475.73 1257.41C2469.6 1213.45 2470.84 1153.81 2531.92 1155.4Z" fill="#F7A491"/>
<path d="M2463.52 1246.56C2466.16 1257.16 2473.11 1264.32 2479.03 1262.56C2484.95 1260.79 2487.6 1250.76 2484.96 1240.17C2482.31 1229.57 2475.37 1222.41 2469.45 1224.17C2463.52 1225.95 2460.87 1235.97 2463.52 1246.56Z" fill="#F7A491"/>
<path d="M2506.04 1155.6C2506.04 1155.6 2560.8 1218.45 2586.53 1221.41C2612.27 1224.37 2615.65 1258.43 2615.65 1258.43C2615.65 1258.43 2606.44 1179.97 2580.97 1164.84C2555.49 1149.72 2506.04 1155.6 2506.04 1155.6" fill="#F8C48B"/>
<path d="M2578.12 1236.68C2576.03 1248.05 2580.23 1258.49 2587.52 1259.99C2594.8 1261.48 2602.4 1253.47 2604.51 1242.09C2606.59 1230.71 2602.39 1220.28 2595.09 1218.79C2587.81 1217.29 2580.21 1225.31 2578.12 1236.68" fill="#F7A491"/>
<path d="M2557.21 1566.19L2390.89 1596.52L2430.37 1812.97L2596.69 1782.63L2557.21 1566.19Z" fill="#BED9EA"/>
<path d="M2568.09 1573.41L2400.8 1597.84L2432.59 1815.55L2599.88 1791.12L2568.09 1573.41Z" fill="#D3E5F4"/>
<path d="M2582.39 1581.57L2414.64 1602.76L2442.21 1821.04L2609.95 1799.85L2582.39 1581.57" fill="#F4F4F4"/>
<path d="M2501.55 1280.35L2541.29 1277.85C2541.29 1277.85 2541.32 1293.01 2523.88 1294.61C2502.6 1296.56 2501.55 1280.35 2501.55 1280.35Z" fill="white"/>
<path d="M2698.71 1609.53L2623.44 1616.83C2623.44 1616.83 2639.96 1677.04 2638.87 1683.28C2638.87 1683.28 2529.24 1713.67 2483.43 1721.92C2483.43 1721.92 2462.56 1710.09 2454.12 1706.33C2445.68 1702.57 2423 1698.48 2417.97 1697.81C2412.96 1697.16 2414.68 1702.65 2418.99 1704.57C2423.29 1706.49 2434.44 1711.75 2437.6 1718.19C2437.6 1718.19 2428.55 1719.17 2423.76 1717.04C2418.97 1714.91 2412.39 1710.39 2412.28 1708.04C2412.17 1705.71 2411.08 1700.05 2409.51 1700.36C2409.11 1700.44 2408.57 1702.29 2408.04 1704.23C2407.52 1706.08 2406.99 1707.96 2406.53 1709.83C2405.73 1713.16 2404.81 1718.03 2404.45 1720.23C2403.63 1725.21 2406.68 1739 2407.11 1743.89C2407.89 1752.83 2410.45 1756.8 2415.17 1759.08C2422.77 1761.73 2430.83 1763.41 2442.72 1764.65C2464.53 1766.91 2484.57 1760.63 2493.32 1759.64C2502.05 1758.67 2641.65 1744.81 2641.65 1744.81C2641.65 1744.81 2697.15 1736.83 2700.83 1727.28C2704.51 1717.73 2698.71 1609.53 2698.71 1609.53" fill="#F7A491"/>
<path d="M2647.33 1400.68C2647.33 1400.68 2667.56 1410.27 2685.35 1451.71C2702.25 1491.08 2703.15 1686.92 2703.15 1686.92L2637.04 1675.91L2606.08 1584.8C2581.8 1529.96 2588.07 1466.11 2623.45 1417.68C2632.89 1404.76 2641.59 1396.96 2647.33 1400.68" fill="#F47458"/>
<path d="M2303.2 1566.72V1605.85C2295.03 1603.72 2251.69 1587.97 2240.31 1585.45L2255.95 1541.15C2257.61 1538.36 2257.67 1534.91 2256.12 1532.07C2255.03 1530.05 2253.88 1528.2 2253.23 1527.49C2251.24 1525.36 2249.15 1522.71 2247.16 1520.57C2245.17 1518.44 2249.05 1510.8 2251.84 1508.56C2254.61 1506.31 2260.84 1518.01 2263.76 1521.03C2272.53 1530.16 2290.23 1557.85 2293.28 1562.39L2303.2 1566.72" fill="#F48C7F"/>
<path d="M2262.31 1633.88L2275.83 1631.77L2209.39 1231.24L2206.19 1231.73L2203.08 1232.21L2262.31 1633.88" fill="#D3E5F4"/>
<path d="M2228.25 1573.69C2227.67 1571.08 2227.39 1568.27 2227.33 1565.37C2227.35 1562.25 2227.83 1558.28 2228.68 1556.81C2229.23 1555.88 2229 1553.71 2228.93 1551.44C2228.91 1550.71 2228.97 1549.97 2229.13 1549.25L2229.15 1549.2C2229.61 1547.13 2230.49 1545.2 2231.6 1543.39C2232.65 1541.67 2233.37 1539.69 2234.03 1536.57C2234.55 1534.15 2235.57 1531.83 2237.2 1529.96C2238.79 1528.11 2240.33 1527.43 2241.59 1528.36C2247.37 1532.68 2271.92 1543.91 2268.92 1555.65C2266.4 1565.49 2262.29 1576.37 2262.27 1580.53C2262.23 1586.24 2254.72 1589.03 2249.61 1589.23C2239.99 1589.59 2231.27 1587.13 2228.25 1573.69" fill="#F7A491"/>
<path d="M2519.65 1440.61C2508.4 1438.67 2528.92 1391.85 2528.25 1386.21L2587.12 1375.69L2588.44 1376.41C2597.39 1393.31 2557.77 1447.19 2519.65 1440.61Z" fill="#D3E5F4"/>
<path d="M2588.44 1376.41C2587.91 1374.37 2581.97 1353.43 2581.97 1353.43L2539.63 1379.31L2523.05 1366.81L2531.16 1405.96L2539.05 1394.33L2549.44 1407.44L2588.44 1376.41" fill="#F4F4F4"/>
<path d="M2703.15 1689.57L2634.84 1678.19C2634.84 1678.19 2629.03 1661.19 2629.97 1660.87L2704.41 1667.79L2703.15 1689.57Z" fill="#D3E5F4"/>
<path d="M2728.45 555.6H3307.52C3327.52 555.6 3343.73 571.867 3343.73 591.947V1004.88C3343.73 1024.95 3327.52 1041.23 3307.52 1041.23H2851.63C2833.17 1067.05 2799.72 1113.32 2796.77 1113.32C2794 1113.32 2799.33 1069.63 2803.08 1041.23H2728.45C2708.45 1041.23 2692.24 1024.95 2692.24 1004.88V591.947C2692.24 571.867 2708.45 555.6 2728.45 555.6" fill="#F7CC7F"/>
<path d="M2895.95 868.32L2888.44 865.48L2950.68 701.334L3135.61 760.24L3225.43 628.16L3232.07 632.68L3138.88 769.694L2955.49 711.28L2895.95 868.32" fill="#162E55"/>
<path d="M2941.49 871.493C2953.05 909.04 2931.97 948.84 2894.43 960.387C2856.88 971.947 2817.08 950.88 2805.52 913.32C2793.97 875.773 2815.04 835.973 2852.59 824.427C2890.13 812.867 2929.95 833.947 2941.49 871.493Z" fill="#F47458"/>
<path d="M3183.07 757.48C3190.53 781.76 3176.91 807.493 3152.63 814.973C3128.35 822.44 3102.61 808.813 3095.13 784.533C3087.67 760.253 3101.29 734.52 3125.57 727.04C3149.85 719.573 3175.6 733.2 3183.07 757.48Z" fill="#F47458"/>
<path d="M3243.88 625.76C3246.45 634.12 3241.76 642.974 3233.4 645.547C3225.05 648.12 3216.19 643.427 3213.63 635.067C3211.05 626.72 3215.73 617.854 3224.09 615.28C3232.45 612.72 3241.31 617.4 3243.88 625.76" fill="#F47458"/>
<path d="M2989.45 695.12C2995.63 715.2 2984.36 736.493 2964.27 742.667C2944.19 748.853 2922.89 737.573 2916.72 717.493C2910.53 697.413 2921.81 676.12 2941.89 669.947C2961.97 663.76 2983.27 675.027 2989.45 695.12Z" fill="#F47458"/>
<path d="M2993.21 874.8H3293.35V860.354H2993.21V874.8Z" fill="#FDF5E5"/>
<path d="M3080.01 915.56H2993.21V901.107H3106.91C3097.77 905.387 3088.8 910.2 3080.01 915.56Z" fill="#FDF5E5"/>
<path d="M2735.35 622.347H2952.68V607.9H2735.35V622.347Z" fill="#FDF5E5"/>
<path d="M2735.35 662.867H2893.6V648.421H2735.35V662.867Z" fill="#FDF5E5"/>
<path d="M3028.11 956.307H2993.21V941.853H3043.75C3038.31 946.507 3033.09 951.32 3028.11 956.307Z" fill="#FDF5E5"/>
<path d="M2422.12 775.88H1981.35C1966.12 775.88 1953.77 788.267 1953.77 803.534V1117.85C1953.77 1133.13 1966.12 1145.52 1981.35 1145.52H2328.36C2342.4 1165.19 2367.87 1200.4 2370.12 1200.4C2372.23 1200.4 2368.17 1167.13 2365.32 1145.52H2422.12C2437.35 1145.52 2449.68 1133.13 2449.68 1117.85V803.534C2449.68 788.267 2437.35 775.88 2422.12 775.88Z" fill="#50BFA5"/>
<path d="M2273.77 1096.8C2261.01 1096.8 2245.28 1089.6 2228 1075.63C2222.77 1071.4 2217.53 1066.67 2212.33 1061.48C2207.12 1066.67 2201.88 1071.4 2196.67 1075.63C2179.39 1089.6 2163.64 1096.8 2150.88 1096.8C2145.73 1096.8 2141.08 1095.63 2136.99 1093.27C2122.75 1085.05 2117.57 1063.56 2122.43 1032.77C2123.48 1026.15 2124.97 1019.23 2126.87 1012.13C2119.76 1010.21 2113.04 1008.04 2106.76 1005.63C2077.67 994.44 2061.64 979.226 2061.64 962.773C2061.64 946.333 2077.67 931.107 2106.76 919.92C2113.04 917.507 2119.76 915.333 2126.87 913.413C2124.97 906.32 2123.48 899.413 2122.43 892.787C2117.57 861.987 2122.75 840.506 2136.99 832.28C2141.08 829.92 2145.73 828.76 2150.88 828.76C2163.64 828.76 2179.37 835.96 2196.67 849.933C2201.88 854.146 2207.12 858.88 2212.33 864.08C2217.53 858.88 2222.77 854.146 2228 849.933C2245.28 835.946 2261.01 828.76 2273.77 828.76C2278.92 828.76 2283.59 829.92 2287.67 832.28C2301.91 840.506 2307.08 861.987 2302.23 892.787C2301.17 899.413 2299.68 906.32 2297.79 913.413C2304.89 915.333 2311.63 917.507 2317.89 919.92C2346.99 931.107 2363.01 946.333 2363.01 962.773C2363.01 979.226 2346.99 994.44 2317.89 1005.63C2311.63 1008.04 2304.89 1010.21 2297.79 1012.13C2299.68 1019.23 2301.17 1026.15 2302.23 1032.77C2307.08 1063.56 2301.91 1085.05 2287.67 1093.27C2283.59 1095.63 2278.92 1096.8 2273.77 1096.8ZM2292.31 1013.55C2278.05 1017.04 2262.41 1019.56 2245.95 1021.01C2236.47 1034.55 2226.45 1046.84 2216.29 1057.44C2221.37 1062.49 2226.47 1067.11 2231.56 1071.23C2247.68 1084.25 2262.43 1091.09 2273.84 1091.09C2277.97 1091.09 2281.67 1090.19 2284.84 1088.36C2296.73 1081.49 2301.03 1061.56 2296.63 1033.65C2295.61 1027.2 2294.15 1020.47 2292.31 1013.55V1013.55ZM2132.35 1013.55C2130.51 1020.47 2129.04 1027.2 2128.03 1033.65C2123.63 1061.56 2127.92 1081.49 2139.81 1088.36C2142.99 1090.19 2146.68 1091.09 2150.83 1091.09C2162.23 1091.09 2176.99 1084.25 2193.11 1071.23C2198.19 1067.11 2203.28 1062.49 2208.36 1057.44C2198.2 1046.84 2188.19 1034.55 2178.71 1021.01C2162.25 1019.56 2146.61 1017.04 2132.35 1013.55V1013.55ZM2186.07 1021.59C2194.53 1033.33 2203.37 1044.04 2212.33 1053.4C2221.28 1044.04 2230.12 1033.33 2238.6 1021.59C2230.01 1022.17 2221.23 1022.48 2212.33 1022.48C2203.43 1022.48 2194.65 1022.17 2186.07 1021.59ZM2212.33 908.733C2201.95 908.733 2191.75 909.146 2181.83 909.946C2176.17 918.133 2170.72 926.773 2165.53 935.76C2160.33 944.746 2155.6 953.786 2151.35 962.773C2155.6 971.76 2160.33 980.813 2165.53 989.8C2170.72 998.786 2176.17 1007.41 2181.83 1015.6C2191.75 1016.4 2201.95 1016.81 2212.33 1016.81C2222.71 1016.81 2232.91 1016.4 2242.83 1015.6C2248.48 1007.41 2253.95 998.786 2259.13 989.8C2264.32 980.813 2269.05 971.76 2273.32 962.773C2269.05 953.786 2264.32 944.746 2259.13 935.76C2253.95 926.773 2248.48 918.133 2242.83 909.946C2232.91 909.146 2222.71 908.733 2212.33 908.733ZM2276.39 969.426C2272.6 977.16 2268.48 984.92 2264.03 992.626C2259.59 1000.33 2254.93 1007.79 2250.13 1014.93C2264.52 1013.47 2278.21 1011.16 2290.79 1008.09C2287.16 995.653 2282.32 982.64 2276.39 969.426ZM2148.27 969.426C2142.33 982.64 2137.49 995.653 2133.87 1008.09C2146.44 1011.16 2160.13 1013.47 2174.52 1014.93C2169.72 1007.79 2165.08 1000.33 2160.63 992.626C2156.17 984.92 2152.05 977.16 2148.27 969.426V969.426ZM2296.27 918.88C2292.17 932.986 2286.53 947.786 2279.56 962.773C2286.53 977.76 2292.17 992.573 2296.27 1006.68C2303.2 1004.81 2309.75 1002.69 2315.85 1000.35C2342.23 990.213 2357.35 976.506 2357.35 962.773C2357.35 949.04 2342.23 935.346 2315.85 925.2C2309.75 922.853 2303.2 920.746 2296.27 918.88V918.88ZM2128.39 918.88C2121.45 920.746 2114.91 922.853 2108.8 925.2C2082.43 935.346 2067.31 949.04 2067.31 962.773C2067.31 976.506 2082.43 990.213 2108.8 1000.35C2114.91 1002.69 2121.45 1004.81 2128.39 1006.68C2132.48 992.573 2138.12 977.76 2145.09 962.773C2138.12 947.786 2132.48 932.986 2128.39 918.88V918.88ZM2250.13 910.613C2254.93 917.76 2259.59 925.213 2264.03 932.92C2268.48 940.627 2272.6 948.387 2276.39 956.12C2282.32 942.907 2287.16 929.906 2290.79 917.466C2278.21 914.386 2264.52 912.08 2250.13 910.613V910.613ZM2174.52 910.613C2160.13 912.08 2146.44 914.386 2133.87 917.466C2137.49 929.906 2142.33 942.907 2148.27 956.12C2152.05 948.387 2156.17 940.627 2160.63 932.92C2165.08 925.213 2169.72 917.76 2174.52 910.613V910.613ZM2273.84 834.453C2262.43 834.453 2247.68 841.293 2231.56 854.333C2226.47 858.44 2221.37 863.053 2216.29 868.12C2226.45 878.72 2236.47 891.013 2245.95 904.533C2262.41 905.986 2278.05 908.506 2292.31 912.013C2294.15 905.08 2295.61 898.36 2296.63 891.906C2301.03 864 2296.73 844.053 2284.84 837.187C2281.67 835.36 2277.97 834.453 2273.84 834.453V834.453ZM2150.83 834.453C2146.68 834.453 2142.99 835.36 2139.81 837.187C2127.92 844.053 2123.63 864 2128.03 891.906C2129.04 898.36 2130.51 905.08 2132.35 912.013C2146.61 908.506 2162.25 905.986 2178.71 904.533C2188.19 891.013 2198.2 878.72 2208.36 868.12C2203.28 863.053 2198.19 858.44 2193.11 854.333C2176.99 841.293 2162.23 834.453 2150.83 834.453V834.453ZM2212.33 903.08C2221.23 903.08 2230.01 903.373 2238.6 903.96C2230.13 892.226 2221.28 881.52 2212.33 872.16C2203.37 881.52 2194.53 892.226 2186.07 903.96C2194.65 903.373 2203.43 903.08 2212.33 903.08Z" fill="#DCF2ED"/>
<path d="M2239.08 962.773C2239.08 977.547 2227.11 989.533 2212.33 989.533C2197.56 989.533 2185.57 977.547 2185.57 962.773C2185.57 948 2197.56 936.027 2212.33 936.027C2227.11 936.027 2239.08 948 2239.08 962.773Z" fill="#355389"/>
<path d="M2119.29 925.467C2119.29 933.547 2112.75 940.094 2104.67 940.094C2096.59 940.094 2090.04 933.547 2090.04 925.467C2090.04 917.387 2096.59 910.84 2104.67 910.84C2112.75 910.84 2119.29 917.387 2119.29 925.467Z" fill="#F47458"/>
<path d="M1981.11 812.72H2162.65V803.351H1981.11V812.72Z" fill="#DCF2ED"/>
<path d="M1981.11 839.146H2102.87V829.777H1981.11V839.146Z" fill="#DCF2ED"/>
<path d="M1981.11 865.573H2055.75V856.204H1981.11V865.573Z" fill="#DCF2ED"/>
<path d="M1987.65 1078.44H2109.43V1069.07H1987.65V1078.44Z" fill="#DCF2ED"/>
<path d="M1987.65 1104.87H2062.31V1095.5H1987.65V1104.87Z" fill="#DCF2ED"/>
<path d="M1890.81 395.24C1800.15 440.2 1805.61 579.707 1899.53 614.6C1916.41 620.867 1930.28 633.76 1939 650.213L1969.01 706.853C1977.28 722.467 1995.61 728.56 2011.12 720.88L2045.47 703.853C2060.97 696.16 2068.47 677.267 2062.67 660.427C2041.52 599 2029.49 578.027 2041.73 544.12C2077.52 444.92 1981.51 350.293 1890.81 395.24Z" fill="#F7CC7F"/>
<path d="M1887.4 522.694C1889.44 532.534 1901.25 532.24 1910.47 529.654C1899.08 510.16 1884.79 510.067 1887.4 522.694ZM1974.63 486.813C1990.04 469.093 1983.07 459.854 1978.83 459.134C1968.79 465.8 1969.61 471.64 1974.63 486.813ZM2024.79 627.36L2012.97 632.613C2012.25 630.693 1990.95 576.627 1969.15 511.267C1956.92 522.094 1943.35 530.813 1928.67 537.28C1951.56 587.92 1978.63 658.507 1978.72 658.733L1966.89 663.947C1966.8 663.733 1939.6 592.694 1916.6 541.934C1892.8 549.414 1882.28 539.44 1878.77 534.64C1872.91 526.573 1872.61 515.107 1878.09 507.373C1886.63 495.32 1907.75 497.413 1922.77 525.107C1938.12 518.453 1952.15 509.134 1964.53 497.36C1960.85 486.32 1956.93 475.92 1958.39 465.587C1960 454.08 1968.44 445.88 1977.57 445.574C1991.84 445.107 2006.37 465.52 1989.21 489.76C1986.23 493.974 1982.69 497.907 1979.43 501.32C2002.55 571.147 2023.28 623.36 2024.79 627.36" fill="#FAE0B2"/>
<path d="M1938.2 648.84C1938.45 649.307 1938.76 649.747 1939 650.213L1969.01 706.853C1977.28 722.467 1995.61 728.56 2011.12 720.88L2045.47 703.853C2060.97 696.16 2068.47 677.267 2062.67 660.427C2053.27 633.093 2045.67 613.787 2041.2 597.773L1938.2 648.84" fill="#96D9C9"/>
<path d="M2103.51 362.36C2094.13 370.84 2084.76 379.333 2075.37 387.813C2068.04 394.466 2058.39 406.56 2047.72 406.52C2045.08 406.507 2042.13 404.066 2042.44 401.213C2043.6 390.226 2055.77 382.453 2063.48 375.56C2072.89 367.12 2082.32 358.68 2091.75 350.24C2099.8 343.04 2111.6 355.026 2103.51 362.36Z" fill="#FAE0B2"/>
<path d="M1998.15 288.387C1981.21 355.814 1982.4 354.187 1977.69 359.32C1974.04 363.32 1967 361.014 1965.77 355.974C1964.21 349.6 1964.49 351.374 1982.12 284.08C1984.83 273.734 2000.75 278.04 1998.15 288.387" fill="#FAE0B2"/>
<path d="M1856.33 365.24C1849.2 354.64 1842.07 344.04 1834.95 333.454C1828.6 324.027 1819.19 313.96 1817.85 302.387C1817.27 297.294 1823.65 294.787 1827.48 296.894C1837.45 302.36 1843.51 316.027 1849.63 325.214C1856.71 335.84 1863.79 346.467 1870.88 357.094C1876.83 366.027 1862.29 374.094 1856.33 365.24" fill="#FAE0B2"/>
<path d="M1787.45 538.653C1769.55 545.813 1751.43 553.267 1732.84 558.493C1722.84 561.307 1719.39 546.52 1728.85 543.12C1747.09 536.56 1765.43 530.507 1783.49 523.413C1792.93 519.693 1796.72 534.947 1787.45 538.653Z" fill="#FAE0B2"/>
<path d="M1789.39 449.533C1777.83 448.173 1766.32 446.44 1754.83 444.613C1744.33 442.933 1730.68 442.96 1722.21 436.213C1717.72 432.64 1721 425.76 1725.53 424.347C1731.23 422.573 1732.91 423.947 1757.8 428.053C1769.04 429.907 1780.31 431.533 1791.52 433.507C1800.53 435.08 1798.59 450.627 1789.39 449.533" fill="#FAE0B2"/>
<path d="M1855.99 1805.28L1668.81 1828.13L1559.05 1682.23L1631.53 1509.12L1814.39 1486.8L1926.79 1636.19L1855.99 1805.28ZM1255.25 1551.99L1329.08 1378.48L1511.16 1357.31L1623.73 1506.93L1551.2 1677.4L1366.57 1699.95L1255.25 1551.99ZM1591.52 1181.03L1773.6 1159.87L1886.97 1310.56L1816.69 1478.41L1816.53 1478.2L1627.28 1500.2L1517.69 1354.53L1591.52 1181.03ZM1821.49 1484.79L1894.85 1309.57L1776.72 1152.56L1586.75 1174.65L1512.03 1350.28L1324.31 1372.11L1247.36 1552.95L1363.46 1707.25L1551.95 1684.24L1665.71 1835.44L1860.79 1811.63L1934.65 1635.21L1821.49 1484.79" fill="#F7CC7F"/>
<path d="M1799.44 1159.87C1799.44 1172.57 1789.13 1182.88 1776.41 1182.88C1763.69 1182.88 1753.39 1172.57 1753.39 1159.87C1753.39 1147.15 1763.69 1136.84 1776.41 1136.84C1789.13 1136.84 1799.44 1147.15 1799.44 1159.87Z" fill="#F47458"/>
<path d="M1350.92 1378.12C1350.92 1390.83 1340.61 1401.13 1327.89 1401.13C1315.18 1401.13 1304.87 1390.83 1304.87 1378.12C1304.87 1365.4 1315.18 1355.09 1327.89 1355.09C1340.61 1355.09 1350.92 1365.4 1350.92 1378.12Z" fill="#F47458"/>
<path d="M1910 1312.19C1910 1324.91 1899.69 1335.21 1886.97 1335.21C1874.25 1335.21 1863.95 1324.91 1863.95 1312.19C1863.95 1299.47 1874.25 1289.16 1886.97 1289.16C1899.69 1289.16 1910 1299.47 1910 1312.19Z" fill="#F47458"/>
<path d="M1949.81 1634.52C1949.81 1647.23 1939.51 1657.53 1926.79 1657.53C1914.07 1657.53 1903.76 1647.23 1903.76 1634.52C1903.76 1621.8 1914.07 1611.49 1926.79 1611.49C1939.51 1611.49 1949.81 1621.8 1949.81 1634.52Z" fill="#F47458"/>
<path d="M1690.59 1828.13C1690.59 1840.84 1680.28 1851.16 1667.57 1851.16C1654.85 1851.16 1644.55 1840.84 1644.55 1828.13C1644.55 1815.41 1654.85 1805.11 1667.57 1805.11C1680.28 1805.11 1690.59 1815.41 1690.59 1828.13Z" fill="#F47458"/>
<path d="M1650.27 1503.69C1650.27 1516.41 1639.96 1526.72 1627.24 1526.72C1614.52 1526.72 1604.21 1516.41 1604.21 1503.69C1604.21 1490.99 1614.52 1480.67 1627.24 1480.67C1639.96 1480.67 1650.27 1490.99 1650.27 1503.69Z" fill="#F47458"/>
<path d="M1852.03 1238.41C1852.03 1246.21 1845.69 1252.55 1837.89 1252.55C1830.08 1252.55 1823.75 1246.21 1823.75 1238.41C1823.75 1230.6 1830.08 1224.27 1837.89 1224.27C1845.69 1224.27 1852.03 1230.6 1852.03 1238.41Z" fill="#50BFA5"/>
<path d="M1528.79 1355.09C1528.79 1362.91 1522.45 1369.23 1514.65 1369.23C1506.84 1369.23 1500.51 1362.91 1500.51 1355.09C1500.51 1347.28 1506.84 1340.95 1514.65 1340.95C1522.45 1340.95 1528.79 1347.28 1528.79 1355.09Z" fill="#50BFA5"/>
<path d="M1829.81 1485.16C1829.81 1492.52 1823.85 1498.48 1816.49 1498.48C1809.13 1498.48 1803.16 1492.52 1803.16 1485.16C1803.16 1477.8 1809.13 1471.84 1816.49 1471.84C1823.85 1471.84 1829.81 1477.8 1829.81 1485.16Z" fill="#50BFA5"/>
<path d="M1266.76 1552.4C1266.76 1563.11 1258.08 1571.8 1247.36 1571.8C1236.65 1571.8 1227.96 1563.11 1227.96 1552.4C1227.96 1541.68 1236.65 1533 1247.36 1533C1258.08 1533 1266.76 1541.68 1266.76 1552.4Z" fill="#50BFA5"/>
<path d="M1757.37 1100.85V1013.96H1766.83V1051.09H1810.48V1013.96H1819.99V1100.85H1810.48V1059.49H1766.83V1100.85H1757.37Z" fill="#50BFA5"/>
<path d="M1972.55 1679.15V1592.25H1982V1629.39H2025.65V1592.25H2035.15V1679.15H2025.65V1637.77H1982V1679.15H1972.55Z" fill="#50BFA5"/>
<path d="M1833.09 1133.64V1127.57C1834.52 1124.37 1836.39 1121.29 1838.69 1118.31C1841.01 1115.32 1843.88 1112.33 1847.32 1109.35C1848.85 1107.97 1851.32 1106.07 1854.71 1103.6C1858.09 1101.15 1860.47 1099.21 1861.8 1097.83C1863.87 1095.64 1865.37 1093.59 1866.33 1091.65C1867.29 1089.71 1867.77 1087.75 1867.77 1085.73C1867.77 1082.01 1866.68 1079.08 1864.48 1076.92C1862.28 1074.77 1859.27 1073.69 1855.43 1073.69C1851.51 1073.69 1848.23 1074.88 1845.59 1077.27C1842.96 1079.65 1841.17 1083.08 1840.24 1087.52L1834 1086.21C1835.28 1080.25 1837.76 1075.73 1841.43 1072.67C1845.09 1069.6 1849.81 1068.07 1855.6 1068.07C1861.48 1068.07 1866.12 1069.63 1869.55 1072.76C1872.96 1075.88 1874.67 1080.12 1874.67 1085.48C1874.67 1087.75 1874.39 1089.8 1873.84 1091.65C1873.29 1093.49 1872.43 1095.21 1871.27 1096.81C1869.03 1099.99 1864.43 1104.15 1857.48 1109.29C1855.93 1110.4 1854.79 1111.24 1854.03 1111.83C1850.37 1114.59 1847.35 1117.29 1844.96 1119.92C1842.57 1122.55 1840.83 1125.13 1839.72 1127.67H1874.67V1133.64H1833.09" fill="#50BFA5"/>
<path d="M2355.04 558.267L2381.28 527.08L2378.99 567.893L2355.04 558.267ZM2439.83 454.213L2390.11 434.24L2247.05 603.76C2234.69 618.413 2240.05 640.92 2257.57 647.96C2268.6 652.387 2281.27 649.107 2288.97 639.813L2322.29 599.64L2374.45 620.613L2371.47 673.213C2370.79 685.2 2377.69 696.227 2388.65 700.627L2389.6 701.013C2407.13 708.053 2426.45 695.44 2427.52 676.24L2439.83 454.213Z" fill="#F47458"/>
<path d="M1517.37 2534.47H2037.4V2352.33H1517.37V2534.47Z" fill="#F4F4F4"/>
<path d="M1517.37 2388.75H2037.4V2385.68H1517.37V2388.75Z" fill="#D3E5F4"/>
<path d="M1517.37 2418.8H2037.4V2415.73H1517.37V2418.8Z" fill="#D3E5F4"/>
<path d="M1517.37 2448.85H2037.4V2445.79H1517.37V2448.85Z" fill="#D3E5F4"/>
<path d="M1517.37 2478.89H2037.4V2475.83H1517.37V2478.89Z" fill="#D3E5F4"/>
<path d="M1781.07 2418.8C1781.07 2418.8 1536.39 2439.8 1505.72 2466.17C1505.72 2466.17 1507.25 2434.89 1517.37 2415.73L1594.03 2418.64L1781.07 2418.8" fill="#D3E5F4"/>
<path d="M1911.96 2418.77L1885.27 2461.05L1855.39 2418.77H1911.96" fill="#F47458"/>
<path d="M1787.45 2448.85L1760.76 2491.15L1730.89 2448.85H1787.45Z" fill="#466EB6"/>
<path d="M1517.37 2508.79H2037.4V2505.72H1517.37V2508.79Z" fill="#D3E5F4"/>
<path d="M1649.24 2478.99L1622.55 2521.28L1592.67 2478.99H1649.24Z" fill="#50BFA5"/>
<path d="M2037.4 2534.47H1913.63V2508.79H2037.4V2534.47ZM2037.4 2505.72H1913.63V2478.89H2037.4V2505.72ZM2037.4 2475.83H1913.63V2448.85H2037.4V2475.83ZM2037.4 2445.79H1913.63V2444.12V2442.69V2418.8H2037.4V2445.79ZM2037.4 2415.73H1913.63V2388.75H2037.4V2415.73ZM2037.4 2385.68H1913.63V2352.33H2037.4V2385.68Z" fill="#CADBE9"/>
<path d="M1913.63 2388.75H2037.4V2385.68H1913.63V2388.75Z" fill="#AFCEE9"/>
<path d="M1913.63 2418.8H2037.4V2415.73H1913.63V2418.8Z" fill="#AFCEE9"/>
<path d="M1913.63 2448.85H2037.4V2445.79H1913.63V2448.85Z" fill="#AFCEE9"/>
<path d="M1913.63 2478.89H2037.4V2475.83H1913.63V2478.89Z" fill="#AFCEE9"/>
<path d="M1913.63 2508.79H2037.4V2505.72H1913.63V2508.79Z" fill="#AFCEE9"/>
<path d="M672.315 1936.87C671.384 1966.03 695.215 1989.85 724.373 1988.92C750.78 1988.08 772.288 1966.57 773.131 1940.17C774.061 1911.01 750.232 1887.17 721.072 1888.11C694.665 1888.95 673.157 1910.45 672.315 1936.87" fill="#F7CC7F"/>
<path d="M583.991 2518.69H594.075C596.423 2518.69 598.325 2516.79 598.325 2514.44V2463.28C598.325 2460.93 596.423 2459.03 594.075 2459.03H583.991C581.643 2459.03 579.74 2460.93 579.74 2463.28V2514.44C579.74 2516.79 581.643 2518.69 583.991 2518.69Z" fill="#B75742"/>
<path d="M491.417 1821.17C506.956 1800.81 524.383 1789.57 543.215 1787.75C572.26 1784.93 595.404 1805.16 595.635 1805.36L607.212 1792.32C606.037 1791.28 578.068 1766.85 541.535 1770.39C517.681 1772.69 496.156 1786.23 477.556 1810.59L491.417 1821.17Z" fill="#50BFA5"/>
<path d="M627.388 1779.88L698.88 1851.37C704.733 1857.23 704.732 1866.72 698.879 1872.57L673.735 1897.72C667.881 1903.57 658.389 1903.57 652.536 1897.72L581.048 1826.23C575.195 1820.37 575.195 1810.88 581.048 1805.03L606.191 1779.88C612.044 1774.03 621.535 1774.03 627.388 1779.88" fill="#B75742"/>
<path d="M801.036 1847.28L631.485 2016.83C584.665 1970.01 584.665 1894.09 631.485 1847.28C678.305 1800.45 754.216 1800.45 801.036 1847.28Z" fill="#F47458"/>
<path d="M467.416 1822.19L313.428 2135.87L333.823 2145.88L487.811 1832.2L467.416 1822.19ZM289.072 2144.19L459.097 1797.83L512.167 1823.88L342.14 2170.24L289.072 2144.19" fill="#B75742"/>
<path d="M321.923 2170.19L300.421 2177.53L413.341 2508.23L434.843 2500.88L321.923 2170.19ZM277.319 2166.2L333.265 2147.09L457.945 2512.23L402 2531.33L277.319 2166.2Z" fill="#B75742"/>
<path d="M626.715 2033.85L627.381 2034.52C630.768 2037.91 636.255 2037.91 639.64 2034.52L818.731 1855.44C822.115 1852.05 822.116 1846.56 818.732 1843.17L818.064 1842.51C814.679 1839.12 809.192 1839.12 805.807 1842.51L626.715 2021.6C623.329 2024.99 623.329 2030.47 626.715 2033.85Z" fill="#96D9C9"/>
<path d="M269.556 2161.08C268.26 2186.65 289.271 2207.67 314.848 2206.37C336.748 2205.27 354.543 2187.47 355.652 2165.57C356.948 2139.99 335.939 2118.97 310.361 2120.28C288.461 2121.39 270.667 2139.17 269.556 2161.08" fill="#F47458"/>
<path d="M659.776 2477.03H376.984C344.371 2477.03 317.933 2503.47 317.933 2536.08H718.825C718.825 2503.47 692.388 2477.03 659.776 2477.03" fill="#50BFA5"/>
<path d="M2740.25 2360.89H2711.36C2716.09 2357.32 2722 2355.17 2728.44 2355.17H3452.15C3490.01 2355.17 3520.71 2385.27 3520.71 2422.39V2465.08C3520.71 2502.2 3490.01 2532.29 3452.15 2532.29L2736.53 2532.05L2740.25 2360.89Z" fill="#466EB6"/>
<path d="M3151.12 2355.33C3187.33 2355.33 3216.69 2384.11 3216.69 2419.61V2467.85C3216.69 2503.36 3187.33 2532.13 3151.12 2532.13H2700.59V2521.35H2702.45L2816.99 2510.71L2840.13 2421.68C2840.13 2421.68 2795.45 2372.48 2792.55 2371.21C2789.63 2369.93 2702.45 2366.09 2702.45 2366.09L2700.59 2366.07V2355.33H3151.12" fill="#7792B2"/>
<path d="M2729.81 2443.41C2729.81 2391.36 2702.37 2366.13 2702.37 2366.13H3141.89C3175.16 2366.13 3202.12 2392.56 3202.12 2425.17V2462.31C3202.12 2494.91 3175.16 2521.35 3141.89 2521.35H2702.37C2702.37 2521.35 2729.81 2508.96 2729.81 2443.41Z" fill="#F4F4F4"/>
<path d="M3200.36 2476.47C3196.23 2466.55 3191.03 2456.72 3184.52 2447.48H3202.12V2462.31C3202.12 2462.37 3202.12 2462.45 3202.12 2462.52C3202.12 2462.53 3202.12 2462.55 3202.12 2462.56C3202.12 2462.63 3202.12 2462.68 3202.12 2462.75C3202.12 2462.76 3202.12 2462.77 3202.12 2462.77C3202.08 2467.49 3201.47 2472.07 3200.36 2476.47ZM3202.12 2443.95C3200.31 2443.95 3193.19 2443.95 3181.92 2443.93C3165.08 2421.63 3140.08 2403.19 3103.04 2395.65C2976.77 2369.93 2702.37 2366.13 2702.37 2366.13H3141.89C3175.16 2366.13 3202.12 2392.56 3202.12 2425.17V2443.95" fill="#D1E4EC"/>
<path d="M3551.12 2219.33H3580.01C3575.29 2216.49 3569.37 2214.8 3562.93 2214.8H2838.93C2801.05 2214.8 2770.35 2238.68 2770.35 2268.13V2302C2770.35 2331.45 2801.05 2355.33 2838.93 2355.33L3554.84 2355.15L3551.12 2219.33Z" fill="#50BFA5"/>
<path d="M3140.08 2214.92C3103.85 2214.92 3074.49 2237.76 3074.49 2265.92V2304.21C3074.49 2332.37 3103.85 2355.21 3140.08 2355.21H3590.8V2346.64H3588.93L3474.35 2338.21L3451.19 2267.56C3451.19 2267.56 3495.89 2228.52 3498.8 2227.52C3501.72 2226.51 3588.93 2223.45 3588.93 2223.45L3590.8 2223.44V2214.92H3140.08" fill="#3C8F7C"/>
<path d="M3561.56 2284.81C3561.56 2243.51 3589.01 2223.49 3589.01 2223.49H3149.32C3116.04 2223.49 3089.07 2244.47 3089.07 2270.33V2299.8C3089.07 2325.67 3116.04 2346.64 3149.32 2346.64H3589.01C3589.01 2346.64 3561.56 2336.83 3561.56 2284.81" fill="#F4F4F4"/>
<path d="M3090.83 2311.04C3089.73 2307.6 3089.13 2304.03 3089.08 2300.35C3089.08 2300.29 3089.07 2300.24 3089.07 2300.19C3089.07 2300.17 3089.07 2300.16 3089.07 2300.15C3089.07 2300.11 3089.07 2300.05 3089.07 2300.01C3089.07 2300 3089.07 2299.99 3089.07 2299.97C3089.07 2299.92 3089.07 2299.85 3089.07 2299.8V2270.33C3089.07 2244.47 3116.04 2223.49 3149.32 2223.49H3589.01C3589.01 2223.49 3314.51 2226.51 3188.19 2246.91C3154.43 2252.36 3130.68 2264.99 3113.97 2280.56C3098.23 2280.57 3089.07 2280.59 3089.07 2280.59L3089.47 2284.12H3110.33C3102.07 2292.56 3095.71 2301.75 3090.83 2311.04" fill="#D1E4EC"/>
<path d="M3497.19 2284.12L3469.35 2328.21L3438.19 2284.12H3497.19Z" fill="#F47458"/>
<path d="M3561.6 2284.12H3561.56C3561.57 2283.49 3561.59 2282.89 3561.6 2282.28C3561.6 2283.19 3561.6 2284.12 3561.6 2284.12Z" fill="#DAEEF7"/>
<path d="M3561.56 2284.12H3110.33C3111.51 2282.92 3112.72 2281.73 3113.97 2280.56C3173.71 2280.51 3328.31 2280.37 3439.09 2280.37C3509.09 2280.37 3561.6 2280.43 3561.6 2280.59C3561.6 2280.8 3561.6 2281.53 3561.6 2282.28C3561.59 2282.89 3561.57 2283.49 3561.56 2284.12Z" fill="#D1E4EC"/>
<path d="M3110.33 2284.12H3089.47L3089.07 2280.59C3089.07 2280.59 3098.23 2280.57 3113.97 2280.56C3112.72 2281.73 3111.51 2282.92 3110.33 2284.12Z" fill="#B3D5E5"/>
<path d="M2794.45 2447.48L2822.29 2491.59L2853.45 2447.48H2794.45Z" fill="#50BFA5"/>
<path d="M3202.17 2447.48H3202.12V2443.95C3202.41 2443.95 3202.57 2443.95 3202.57 2443.95L3202.17 2447.48Z" fill="#6688AC"/>
<path d="M3184.52 2447.48H2730.04C2730.04 2447.48 2730.04 2444.44 2730.04 2443.95C2730.04 2443.79 2782.56 2443.73 2852.55 2443.73C2966.08 2443.73 3125.63 2443.88 3181.92 2443.93C3182.81 2445.11 3183.68 2446.29 3184.52 2447.48Z" fill="#D1E4EC"/>
<path d="M3202.12 2447.48H3184.52C3183.68 2446.29 3182.81 2445.11 3181.92 2443.93C3193.19 2443.95 3200.31 2443.95 3202.12 2443.95V2447.48Z" fill="#B3D5E5"/>
<path d="M2855.29 2079.51H2832.47C2836.2 2076.69 2840.87 2075 2845.95 2075H3417.71C3447.61 2075 3471.87 2098.77 3471.87 2128.09V2161.83C3471.87 2191.15 3447.61 2214.92 3417.71 2214.92L2852.35 2214.73L2855.29 2079.51" fill="#F47458"/>
<path d="M3179.88 2075.12C3208.49 2075.12 3231.68 2097.85 3231.68 2125.91V2164.01C3231.68 2192.07 3208.49 2214.8 3179.88 2214.8H2823.95V2206.27H2825.43L2915.91 2197.87L2934.2 2127.53C2934.2 2127.53 2898.89 2088.67 2896.6 2087.67C2894.29 2086.65 2825.43 2083.61 2825.43 2083.61L2823.95 2083.6V2075.12H3179.88Z" fill="#B75742"/>
<path d="M2847.04 2144.71C2847.04 2103.59 2825.36 2083.65 2825.36 2083.65H3172.6C3198.87 2083.65 3220.17 2104.53 3220.17 2130.29V2159.63C3220.17 2185.39 3198.87 2206.27 3172.6 2206.27H2825.36C2825.36 2206.27 2847.04 2196.49 2847.04 2144.71" fill="#F4F4F4"/>
<path d="M3218.79 2170.81C3214.59 2160.75 3209.01 2150.81 3201.61 2141.81H3220.17V2159.63C3220.17 2159.69 3220.17 2159.75 3220.17 2159.8C3220.17 2159.81 3220.17 2159.83 3220.17 2159.84C3220.17 2159.89 3220.17 2159.93 3220.17 2159.97C3220.17 2159.99 3220.17 2160 3220.17 2160.01C3220.17 2160.07 3220.17 2160.12 3220.16 2160.17C3220.12 2163.84 3219.64 2167.4 3218.79 2170.81V2170.81ZM3220.17 2138.28C3220.17 2138.28 3212.19 2138.27 3198.56 2138.25C3185.49 2123.77 3167.27 2112.13 3141.89 2106.97C3042.15 2086.65 2825.36 2083.65 2825.36 2083.65H3172.6C3198.87 2083.65 3220.17 2104.53 3220.17 2130.29V2138.28" fill="#D1E4EC"/>
<path d="M3092.32 2141.81L3116.88 2185.43L3138.93 2141.81H3092.32" fill="#13375B"/>
<path d="M2847 2141.81H2846.87C2846.87 2141.81 2846.87 2139.36 2846.87 2138.51C2846.93 2139.6 2846.97 2140.69 2847 2141.81Z" fill="#001231"/>
<path d="M3201.61 2141.81H2847C2846.97 2140.69 2846.93 2139.6 2846.87 2138.51C2846.87 2138.41 2846.87 2138.33 2846.87 2138.28C2846.87 2138.12 2888.35 2138.07 2943.65 2138.07C3030 2138.07 3150.04 2138.2 3198.56 2138.25C3199.61 2139.43 3200.63 2140.61 3201.61 2141.81" fill="#D1E4EC"/>
<path d="M3220.17 2141.81H3201.61C3200.63 2140.61 3199.61 2139.43 3198.56 2138.25C3212.19 2138.27 3220.17 2138.28 3220.17 2138.28V2141.81" fill="#B3D5E5"/>
<path d="M3371.77 1360.56C3377.93 1356.19 3383.76 1351.6 3389.29 1346.81L3468.51 1458.52C3473.37 1465.39 3469.2 1476.72 3459.19 1483.81C3449.17 1490.92 3437.11 1491.11 3432.24 1484.25L3353.01 1372.55C3359.35 1368.91 3365.61 1364.92 3371.77 1360.56Z" fill="#0E2E35"/>
<path d="M3201.65 1402.31C3190.45 1401.11 3179.33 1399.16 3168.39 1396.45V1353.35L3201.65 1402.31" fill="#768CAA"/>
<path d="M3168.39 1396.45C3112.43 1382.64 3060.88 1349.35 3024.83 1298.49C2993.71 1254.63 2978.75 1204.2 2978.75 1154.33C2978.75 1131.76 2981.81 1109.31 2987.83 1087.63L3168.39 1353.35V1396.45" fill="#D4E9FA"/>
<path d="M3267.11 1400.61V1400.59C3304.8 1393.88 3340.37 1378.47 3371 1355.87L3267.11 1202.97V1099.28L3414 1315.45C3435.35 1289.97 3451.96 1259.76 3461.99 1225.8C3464.2 1218.35 3466.01 1210.87 3467.51 1203.39L3341.39 1017.79C3342.91 1013.77 3343.73 1009.43 3343.73 1004.88V937.653C3376.16 955.28 3405.17 980.427 3427.99 1012.6C3459.11 1056.47 3474.07 1106.91 3474.07 1156.77C3474.07 1234.24 3437.97 1310.36 3370.24 1358.39C3370.04 1358.53 3369.84 1358.68 3369.64 1358.81C3338.03 1381.09 3302.95 1394.87 3267.11 1400.61Z" fill="#DCEBFB"/>
<path d="M3265.67 1400.84C3266.15 1400.76 3266.63 1400.68 3267.11 1400.59V1400.61C3266.63 1400.69 3266.15 1400.77 3265.67 1400.84V1400.84ZM3267.11 1202.97L3219.55 1132.97V1041.23H3227.65L3267.11 1099.28V1202.97Z" fill="#839BB7"/>
<path d="M3219.55 1132.97L3168.39 1057.68V1041.23H3219.55V1132.97Z" fill="#768CAA"/>
<path d="M3168.39 1057.68L3157.2 1041.23H3168.39V1057.68ZM3004.79 1043.43C3005.15 1042.69 3005.52 1041.95 3005.89 1041.23H3005.91C3005.53 1041.95 3005.16 1042.69 3004.79 1043.43" fill="#D4E9FA"/>
<path d="M3227.65 1041.23H3157.2L3099.49 956.307H3169.96L3227.65 1041.23ZM3005.91 1041.23H3005.89C3022.51 1008.71 3046.57 979.493 3077.64 956.307H3078.17C3048.55 978.347 3023.6 1007.12 3005.91 1041.23ZM3341.39 1017.79L3293.35 947.093V941.853H3289.79L3269.07 911.373C3295.03 916.067 3320.28 924.893 3343.73 937.653V1004.88C3343.73 1009.43 3342.91 1013.77 3341.39 1017.79ZM3160.13 941.853H3099.25C3119.19 929.987 3140.24 921.267 3161.8 915.56H3162.29C3156.71 917.053 3151.17 918.747 3145.71 920.627L3160.13 941.853Z" fill="#D9D6C8"/>
<path d="M3162.29 915.56H3161.8C3169.93 913.4 3178.16 911.68 3186.41 910.373C3178.27 911.707 3170.21 913.427 3162.29 915.56" fill="#DBE7F1"/>
<path d="M3169.96 956.307H3099.49L3092.68 946.28C3087.73 949.453 3082.89 952.787 3078.17 956.307H3077.64C3079.27 955.093 3080.91 953.893 3082.57 952.72C3088.03 948.84 3093.6 945.227 3099.25 941.853H3160.13L3169.96 956.307ZM3293.35 947.093L3289.79 941.853H3293.35V947.093Z" fill="#DBE7F1"/>
<path d="M3228.07 1403.72C3228.08 1403.72 3228.08 1403.72 3228.09 1403.72C3228.08 1403.72 3228.08 1403.72 3228.07 1403.72ZM3228.03 1403.72C3225.2 1403.72 3222.37 1403.67 3219.55 1403.57C3222.37 1403.67 3225.2 1403.72 3228.03 1403.72Z" fill="#5A7892"/>
<path d="M3219.55 1403.57C3213.57 1403.37 3207.59 1402.95 3201.65 1402.31C3207.59 1402.95 3213.57 1403.37 3219.55 1403.57Z" fill="#003D72"/>
<path d="M3267.11 1400.59V1202.97L3371 1355.87C3340.37 1378.47 3304.8 1393.88 3267.11 1400.59Z" fill="#EDF5FD"/>
<path d="M3228.07 1403.72C3228.05 1403.72 3228.04 1403.72 3228.03 1403.72C3225.2 1403.72 3222.37 1403.67 3219.55 1403.57V1132.97L3267.11 1202.97V1400.59C3266.63 1400.68 3266.15 1400.76 3265.67 1400.84C3253.19 1402.76 3240.63 1403.72 3228.09 1403.72C3228.08 1403.72 3228.08 1403.72 3228.07 1403.72" fill="#B7C7D8"/>
<path d="M3219.55 1403.57C3213.57 1403.37 3207.59 1402.95 3201.65 1402.31L3168.39 1353.35V1057.68L3219.55 1132.97V1403.57Z" fill="#ADBDD0"/>
<path d="M3168.39 1353.35L2987.83 1087.63C2992.04 1072.43 2997.71 1057.63 3004.79 1043.43C3005.16 1042.69 3005.53 1041.95 3005.91 1041.23H3157.2L3168.39 1057.68V1353.35Z" fill="#E9F4FC"/>
<path d="M3157.2 1041.23H3005.91C3023.6 1007.12 3048.55 978.347 3078.17 956.307H3099.49L3157.2 1041.23Z" fill="#EBEAE2"/>
<path d="M3099.49 956.307H3078.17C3082.89 952.787 3087.73 949.453 3092.68 946.28L3099.49 956.307" fill="#ECF3F8"/>
<path d="M3269.07 911.374C3254.48 908.72 3239.64 907.387 3224.79 907.387C3239.64 907.387 3254.48 908.72 3269.07 911.374ZM3224.72 907.387C3224.73 907.387 3224.73 907.387 3224.75 907.387C3224.73 907.387 3224.73 907.387 3224.72 907.387Z" fill="#FBE4B4"/>
<path d="M3414 1315.45L3267.11 1099.28V1041.23H3307.52C3322.99 1041.23 3336.2 1031.48 3341.39 1017.79L3467.51 1203.39C3466.01 1210.87 3464.2 1218.35 3461.99 1225.8C3451.96 1259.76 3435.35 1289.97 3414 1315.45" fill="#EDF5FD"/>
<path d="M3267.11 1099.28L3227.65 1041.23H3267.11V1099.28Z" fill="#B7C7D8"/>
<path d="M3307.52 1041.23H3227.65L3169.96 956.307H3293.35V947.093L3341.39 1017.79C3336.2 1031.48 3322.99 1041.23 3307.52 1041.23ZM3289.79 941.853H3160.13L3145.71 920.627C3151.17 918.747 3156.71 917.053 3162.29 915.56H3210.55V907.787C3215.28 907.52 3220 907.387 3224.72 907.387C3224.73 907.387 3224.73 907.387 3224.75 907.387C3224.76 907.387 3224.77 907.387 3224.79 907.387C3239.64 907.387 3254.48 908.72 3269.07 911.373L3289.79 941.853Z" fill="#EBEAE2"/>
<path d="M3210.55 915.56H3162.29C3170.21 913.427 3178.27 911.707 3186.41 910.373C3194.43 909.12 3202.49 908.253 3210.55 907.787V915.56Z" fill="#ECF3F8"/>
<path d="M3293.35 956.307H3169.96L3160.13 941.853H3289.79L3293.35 947.093V956.307Z" fill="#ECF3F8"/>
<path d="M3024.83 1298.49C2945.39 1186.48 2971.24 1031.67 3082.57 952.72C3193.91 873.76 3348.55 900.573 3427.99 1012.6C3507.43 1124.63 3481.57 1279.44 3370.24 1358.39C3258.91 1437.33 3104.27 1410.52 3024.83 1298.49ZM2998.51 1317.16C3088.32 1443.8 3263.16 1474.12 3389.01 1384.87C3514.88 1295.61 3544.11 1120.59 3454.31 993.947C3364.49 867.293 3189.65 836.987 3063.8 926.24C2937.93 1015.49 2908.71 1190.51 2998.51 1317.16Z" fill="#184655"/>
<path d="M3228.17 1419.08C3145.55 1419.08 3063.97 1380.17 3012.35 1307.35C2927.99 1188.39 2955.44 1023.99 3073.67 940.16C3119.52 907.64 3172.29 892.013 3224.64 892.013C3307.27 892.013 3388.84 930.933 3440.47 1003.75C3524.83 1122.71 3497.37 1287.11 3379.15 1370.95C3333.29 1403.47 3280.52 1419.09 3228.17 1419.08ZM2978.75 1154.33C2978.75 1204.2 2993.71 1254.63 3024.83 1298.49C3073.45 1367.08 3150.25 1403.72 3228.07 1403.72C3277.36 1403.72 3327.07 1389 3370.24 1358.39C3437.97 1310.36 3474.07 1234.24 3474.07 1156.77C3474.07 1106.91 3459.11 1056.47 3427.99 1012.6C3379.37 944.04 3302.57 907.387 3224.79 907.387C3224.77 907.387 3224.76 907.387 3224.75 907.387C3220.01 907.387 3215.28 907.52 3210.55 907.787C3202.49 908.254 3194.43 909.12 3186.41 910.373C3178.16 911.68 3169.93 913.4 3161.8 915.56C3140.24 921.267 3119.19 929.987 3099.25 941.854C3093.6 945.227 3088.03 948.84 3082.57 952.72C3080.91 953.894 3079.27 955.093 3077.64 956.307C3046.57 979.493 3022.51 1008.71 3005.89 1041.23C3005.52 1041.95 3005.15 1042.69 3004.79 1043.43C2997.71 1057.63 2992.04 1072.43 2987.83 1087.63C2981.81 1109.31 2978.75 1131.76 2978.75 1154.33" fill="#103D46"/>
<path d="M3706.71 1848.47L3724.52 1835.67C3742.32 1822.87 3746.39 1798.05 3733.59 1780.25L3504.51 1459.71C3491.72 1441.89 3466.91 1437.84 3449.11 1450.64L3431.29 1463.44C3413.49 1476.24 3409.44 1501.04 3422.24 1518.85L3651.31 1839.4C3664.11 1857.2 3688.91 1861.27 3706.71 1848.47Z" fill="#184655"/>
<path d="M1063.41 1780.97C1063.41 1780.97 990.083 1767.45 957.108 1845.01C924.136 1922.57 947.18 1911.89 931.296 1950.57C915.413 1989.25 857.44 1991.48 866.527 2045.87C875.613 2100.25 902.388 2104.47 902.388 2104.47C902.388 2104.47 886.509 2150.6 919.139 2189.87C951.772 2229.13 1021.27 2256.04 1073.18 2241.15C1073.18 2241.15 1159.95 2271.48 1236.22 2237.56C1312.49 2203.65 1284.71 2208.29 1317.32 2202.84C1349.93 2197.4 1430.61 2137.95 1405.22 2075.11C1405.22 2075.11 1448.27 2002.28 1387.43 1958.83C1326.59 1915.37 1307.89 1864.04 1265.98 1799C1224.08 1733.95 1096.82 1758 1063.41 1780.97" fill="#F8C48B"/>
<path d="M1033.75 2201.33C1033.75 2201.33 983.255 2194.16 904.677 2269.88C826.099 2345.6 720.133 2438.04 765.972 2511.83L958.968 2507.2C958.968 2507.2 1075.65 2369.88 1077.31 2362.75C1078.98 2355.6 1033.75 2201.33 1033.75 2201.33Z" fill="#D3D9F4"/>
<path d="M1258.97 2201.23C1258.97 2201.23 1326.89 2194.16 1405.47 2269.88C1484.04 2345.6 1590.01 2438.04 1544.17 2511.83L1351.18 2507.2C1351.18 2507.2 1234.49 2369.88 1232.83 2362.75C1231.17 2355.6 1258.97 2201.23 1258.97 2201.23Z" fill="#D3D9F4"/>
<path d="M1381.73 2542.21L1363.73 2395.32C1342.33 2217.16 1285.13 2198.8 1269.27 2197.17C1267.9 2197.15 1266.55 2197.12 1265.13 2197.08H1265.11H1265.11C1233.98 2196.24 1193.28 2194 1153.69 2191.47V2191.03C1152.55 2191.09 1151.39 2191.17 1150.25 2191.24C1149.1 2191.17 1147.95 2191.09 1146.81 2191.03V2191.47C1107.21 2194 1066.52 2196.24 1035.38 2197.08H1035.39H1035.36C1033.94 2197.12 1032.6 2197.15 1031.22 2197.17C1015.36 2198.8 958.159 2217.16 936.767 2395.32L918.759 2544.44L1381.73 2542.21Z" fill="#355389"/>
<path d="M1549.12 2511.83C1549.12 2511.83 1571.84 2494.19 1555.27 2449.55C1538.69 2404.91 1419.99 2374.95 1394.03 2436.72L1549.12 2511.83" fill="#C2CCF2"/>
<path d="M761.021 2511.83C761.021 2511.83 738.301 2494.19 754.873 2449.55C771.444 2404.91 890.159 2374.95 916.116 2436.72L761.021 2511.83Z" fill="#C2CCF2"/>
<path d="M1248.46 2516.15C1250.93 2512.33 1244.72 2505.85 1240.06 2501C1234.89 2495.61 1203.62 2482.09 1198.3 2480.47C1192.99 2478.84 1147.41 2485.27 1129.96 2490.99C1112.52 2496.71 1101.02 2494.35 1101.02 2494.35C1096.45 2493.41 1089.57 2492.16 1084.23 2491.05L1073.29 2532.29C1114.25 2531.77 1157.07 2534.28 1160.95 2534.19C1173.26 2533.87 1195.81 2520.99 1201.03 2519.11C1206.27 2517.21 1216.86 2518.71 1223.98 2522.04C1231.1 2525.39 1251.83 2533.31 1255.3 2531.47C1258.77 2529.61 1248.46 2516.15 1248.46 2516.15" fill="#ED9485"/>
<path d="M1103.42 2494.65C1103.42 2494.65 873.229 2410.71 821.481 2426.23C769.733 2441.75 749.051 2490.49 764.575 2521.53C780.099 2552.59 1085.29 2531.69 1085.29 2531.69L1103.42 2494.65" fill="#ED9485"/>
<path d="M1199.92 2127.97C1199.76 2129.48 1206.6 2184.37 1210.24 2213.4C1211.6 2224.23 1205.11 2234.48 1194.77 2237.95C1167.11 2247.23 1113.45 2258.6 1081 2222.33C1078.05 2219.03 1076.74 2214.56 1077.35 2210.17L1095.18 2082.72L1199.92 2127.97" fill="#F7A491"/>
<path d="M1194.77 2155.68C1197.72 2154.69 1200.3 2153.11 1202.53 2151.16C1200.96 2138.15 1199.85 2128.59 1199.92 2127.97L1095.18 2082.72L1086.41 2145.41C1119.14 2175.05 1168.59 2164.47 1194.77 2155.68" fill="#F47458"/>
<path d="M1025.08 1993.28C1031.99 2014.63 1025.87 2035.72 1011.44 2040.39C997.003 2045.05 979.708 2031.52 972.808 2010.16C965.908 1988.81 972.017 1967.71 986.453 1963.05C1000.89 1958.39 1018.19 1971.92 1025.08 1993.28" fill="#F7A491"/>
<path d="M1259.34 1976.16C1255.62 1998.29 1264.73 2018.27 1279.69 2020.79C1294.65 2023.31 1309.8 2007.4 1313.52 1985.27C1317.24 1963.13 1308.13 1943.15 1293.17 1940.64C1278.21 1938.12 1263.06 1954.03 1259.34 1976.16Z" fill="#F7A491"/>
<path d="M1280.18 1966.28C1287.17 2061.89 1231.93 2143.85 1156.81 2149.35C1081.68 2154.84 1015.12 2081.77 1008.13 1986.16C1001.15 1890.55 1056.38 1808.59 1131.51 1803.11C1206.63 1797.61 1273.2 1870.67 1280.18 1966.28" fill="#F7A491"/>
<path d="M1079.41 2195.17C1079.41 2195.17 1101.31 2235.36 1146.88 2247.25C1146.88 2247.25 1112.21 2260.23 1092.39 2251.67C1072.58 2243.09 1057.5 2226.56 1079.41 2195.17Z" fill="#F4F4F4"/>
<path d="M1207.99 2195.17C1207.99 2195.17 1186.34 2235.36 1141.28 2247.25C1141.28 2247.25 1175.56 2260.23 1195.15 2251.67C1214.74 2243.09 1229.65 2226.56 1207.99 2195.17Z" fill="#F4F4F4"/>
<path d="M1206.72 2494.65C1206.72 2494.65 1436.92 2410.71 1488.67 2426.23C1540.41 2441.75 1559.89 2492.65 1544.36 2523.69C1528.84 2554.75 1209.86 2537.36 1209.86 2537.36L1206.72 2494.65Z" fill="#F7A491"/>
<path d="M1115.88 2058.69L1190.65 2049.71C1190.65 2049.71 1192.44 2079.45 1159.68 2084.39C1119.73 2090.41 1115.88 2058.69 1115.88 2058.69" fill="white"/>
<path d="M1173.3 2502.16L1148.47 2530.72L1150.87 2492.96L1162.83 2484.65L1173.3 2502.16Z" fill="#F2E9DA"/>
<path d="M1162.83 2484.65L1165.53 2489.16L1148.47 2530.72L1150.87 2492.96L1162.83 2484.65Z" fill="#E0D5C3"/>
<path d="M1150.87 2492.96L1150.25 2502.73L1157.19 2495.55L1211.83 2362.36L1203.85 2363.8L1150.87 2492.96Z" fill="#E8BA70"/>
<path d="M1157.19 2495.55L1158.56 2506.15L1166.97 2499.56L1221.61 2366.37L1211.83 2362.36L1157.19 2495.55" fill="#F7CC7F"/>
<path d="M1166.97 2499.56L1166.87 2509.55L1173.3 2502.16L1226.28 2373L1221.61 2366.37L1166.97 2499.56" fill="#FAE0B2"/>
<path d="M1207.81 2372.17L1211.83 2362.36L1221.61 2366.37L1217.59 2376.19L1207.81 2372.17Z" fill="#466EB6"/>
<path d="M1217.59 2376.19L1221.61 2366.37L1226.28 2373L1223.91 2378.77L1217.59 2376.19Z" fill="#88B5E2"/>
<path d="M1201.48 2369.57L1203.85 2363.8L1211.83 2362.36L1207.81 2372.17L1201.48 2369.57" fill="#2C4B70"/>
<path d="M1212.85 2387.73L1219.17 2390.33L1223.91 2378.77L1217.59 2376.19L1212.85 2387.73Z" fill="#FEF8F8"/>
<path d="M1196.74 2381.13L1203.06 2383.72L1207.81 2372.17L1201.48 2369.57L1196.74 2381.13Z" fill="#EDDFCA"/>
<path d="M1203.06 2383.72L1212.85 2387.73L1217.59 2376.19L1207.81 2372.17L1203.06 2383.72Z" fill="#F2E9DA"/>
<path d="M1156.9 2521.03L1148.47 2530.72L1149.29 2517.91L1152.24 2521.56L1156.9 2521.03" fill="#DB3F2A"/>
<path d="M1114.33 2521.33C1115.05 2524.33 1118.44 2528.89 1122.58 2528.35C1122.58 2528.35 1124.65 2528.53 1124.95 2529.21C1125.22 2529.83 1124.56 2533.36 1125.38 2536.69H1246.23C1246.56 2536.6 1246.9 2536.49 1247.25 2536.4V2481.88C1238.13 2483.08 1231.33 2483.77 1230.39 2483.33C1226.63 2481.53 1213.49 2474.04 1205.21 2473.05C1196.92 2472.05 1182.93 2466.68 1178.88 2467.4C1174.83 2468.12 1154.8 2478.56 1151.94 2479.07C1149.08 2479.57 1146.12 2482.31 1144.39 2483.6C1142.65 2484.89 1122.82 2488.17 1119.15 2491.03C1115.48 2493.89 1115.85 2505.64 1118.58 2508.59C1118.58 2508.59 1118.89 2509.64 1117.15 2511.24C1115.41 2512.84 1113.61 2518.32 1114.33 2521.33" fill="#F7A491"/>
<path d="M1372.48 546.72C1374.79 546.813 1381.11 548.92 1390.35 566.387C1402.16 588.693 1419.41 656.08 1419.41 656.08L1367.91 675.267L1361.3 661.2L1350.4 552.92C1350.4 552.92 1371.84 546.693 1372.48 546.72Z" fill="#A34B3D"/>
<path d="M1304.41 537C1319.14 537.027 1355.57 541.32 1372.48 546.72C1372.48 546.72 1384.9 653.493 1361.3 734.627C1356.01 752.787 1365.67 809.92 1365.67 809.92L1213.08 807.907C1213.08 807.907 1231.16 669.8 1224.35 647.493C1217.54 625.187 1217.38 547.44 1217.38 547.44C1217.38 547.44 1218.42 547.28 1251.66 541.533C1267.16 538.853 1288.69 536.973 1304.41 537" fill="#B75742"/>
<path d="M1286.63 1008.09C1286.63 1008.09 1290.01 1047.05 1296.21 1057.84C1302.42 1068.63 1295.89 1086.97 1295.56 1089.49C1295.23 1092.01 1282.49 1095.6 1262.24 1093.44C1241.99 1091.28 1242.31 1086.61 1243.95 1079.05C1245.58 1071.51 1256.36 1061.8 1257.01 1054.6C1257.67 1047.41 1250.81 1021.52 1250.81 1021.52L1286.63 1008.09" fill="#F7A491"/>
<path d="M1348.45 777.76C1348.45 777.76 1453.79 771.907 1477.31 786.147C1500.83 800.4 1460.59 870.307 1460.59 870.307C1460.59 870.307 1387.3 866.933 1243.74 875.213C1209.75 877.173 1206.81 786.573 1213.17 779.08C1219.53 771.587 1348.45 777.76 1348.45 777.76Z" fill="#E0973F"/>
<path d="M1259.71 1096.47C1238.86 1094.25 1241.44 1084 1243.12 1076.23C1244.17 1071.36 1250.16 1065.61 1253.72 1060.19C1255.59 1061.67 1258.62 1064.29 1267.68 1066.96C1277.08 1069.75 1289.97 1064.24 1298.19 1060.8C1301.12 1071.69 1301.25 1085.6 1300.98 1087.71C1300.64 1090.29 1280.57 1098.69 1259.71 1096.47" fill="#DD513A"/>
<path d="M1271.23 853.107C1275.43 884.96 1296.27 1043.48 1296.27 1043.48L1247.92 1049.47C1247.92 1049.47 1188.47 842.56 1191.52 810.907C1194.57 779.267 1216.82 776.6 1216.82 776.6C1216.82 776.6 1260.09 768.813 1271.23 853.107" fill="#F7CC7F"/>
<path d="M1215.72 559.306C1229.98 553.96 1236.96 682.493 1238.89 735.413C1264.15 737.84 1308.18 735.427 1319.15 734.6C1324.31 734.213 1336.2 729.867 1341.33 729.187C1346.58 728.493 1351.34 728.147 1353.93 728.587C1354.88 728.76 1381.21 739.52 1383.46 741.893C1386.26 744.813 1393.81 752.2 1392.53 755.4C1391.26 758.587 1378.01 746.493 1378.01 746.493L1371.53 742.867C1379.59 750.747 1394.97 761.107 1392.76 764.893C1390.6 768.573 1376.73 758.04 1366.84 750.88C1375.32 758.533 1385.85 772.24 1383.43 774.373C1381.25 776.293 1369.26 760.427 1356.46 755.853C1351.71 754.16 1346.98 758.853 1343.25 759.413C1340.5 759.84 1336.27 760.72 1333.58 759.96L1319.71 756.027C1314.99 756.453 1314.87 759.253 1310.1 760.267C1304.56 761.44 1295.48 762.68 1288.43 764.4C1247.82 774.32 1234.27 778.933 1221.84 778.92C1184.18 778.907 1182 571.96 1215.72 559.306" fill="#F7A491"/>
<path d="M1188.64 679.987C1185.97 625.787 1186.36 558.987 1216.74 547.6C1228.73 543.094 1249.86 570.134 1246.06 681.094C1229.84 682.427 1206.03 683.507 1188.64 679.987" fill="#A34B3D"/>
<path d="M1433.05 1045.88C1433.05 1045.88 1426.07 1058.2 1431.56 1068.55C1437.05 1078.88 1465.88 1094.08 1468.89 1099.69C1471.89 1105.29 1470.72 1109.27 1470.72 1109.27L1385.12 1088.28L1391.68 1062.48L1399.68 1044.65L1433.05 1045.88" fill="#F7A491"/>
<path d="M1435.97 1074.05C1435.97 1074.05 1411.92 1078.23 1402.38 1070.61C1392.84 1063.01 1393.48 1061.61 1389.96 1062.92C1387.69 1063.76 1384.25 1074.03 1382.08 1081.27C1380.92 1085.12 1383.24 1089.15 1387.14 1090.11L1476.27 1112.13C1483.04 1113.44 1487.52 1109.21 1482.96 1103.79C1479.84 1100.05 1475.92 1097.17 1473.76 1095.23C1467.13 1089.24 1435.97 1074.05 1435.97 1074.05" fill="#DD513A"/>
<path d="M1424.67 802.72C1431.47 788.4 1446.96 769.747 1474.2 780.974C1500.19 791.694 1507.17 818.027 1498.97 845C1490.77 871.974 1436.79 1030.51 1434.91 1052.31L1391.81 1052.59C1391.81 1052.59 1399.65 927.054 1401.57 896.72C1403.42 867.52 1412.88 827.52 1424.67 802.72" fill="#F7CC7F"/>
<path d="M1494.63 656.707H1350.57C1346.75 656.707 1343.32 659.013 1341.87 662.547L1297.51 771.107H1218.09C1215.87 771.107 1214.07 772.907 1214.07 775.133C1214.07 777.36 1215.87 779.173 1218.09 779.173H1444.13C1450.35 779.173 1455.99 775.507 1458.53 769.827L1503.2 669.987C1505.99 663.747 1501.44 656.707 1494.63 656.707Z" fill="#184655"/>
<path d="M1417.07 719.92C1416.09 724.787 1411.85 728.054 1407.6 727.2C1403.34 726.347 1400.68 721.694 1401.65 716.827C1402.63 711.947 1406.87 708.68 1411.12 709.534C1415.37 710.387 1418.04 715.04 1417.07 719.92Z" fill="white"/>
<path d="M1338.65 406.587C1334.31 405.134 1330.03 403.48 1325.9 401.494C1321.24 399.24 1315.19 396.6 1311.37 396.014C1303.33 394.774 1289.52 395.6 1281.89 403.88C1272.39 414.187 1255.5 405.734 1258.91 459.72C1262.75 520.84 1296.73 514.134 1297.56 513.094C1298.38 512.054 1327.86 474 1327.86 474C1327.86 474 1338.17 496.547 1338.17 495.72C1338.17 494.92 1390.8 424.16 1338.65 406.587Z" fill="#0E2E35"/>
<path d="M1312.85 517.613L1315.79 539.44C1315.79 539.44 1322.36 570.907 1313.9 576.96C1305.45 583.027 1277.95 538.547 1277.95 538.547L1280.86 483.213L1312.85 517.613" fill="#F7A491"/>
<path d="M1279.92 501.147C1286.9 520.013 1303.53 531.613 1315.34 536.12L1312.85 517.613L1280.86 483.213L1279.92 501.147Z" fill="#F47458"/>
<path d="M1311.11 423C1329.03 420.107 1345.09 434.52 1344.65 452.454C1344.45 460.24 1343.81 469.974 1342.19 480.454C1338.3 505.667 1321.1 527.853 1309.73 525.88C1298.36 523.893 1269.75 502.147 1274.79 466.28C1277.9 444.133 1292.32 426.04 1311.11 423" fill="#F7A491"/>
<path d="M1282.68 470.56C1281.72 476.107 1277.28 479.96 1272.76 479.173C1268.24 478.387 1265.36 473.253 1266.32 467.707C1267.28 462.173 1271.72 458.32 1276.23 459.107C1280.75 459.893 1283.64 465.027 1282.68 470.56" fill="#F7A491"/>
<path d="M1276.23 459.107C1276.23 459.107 1289.98 462.52 1295.09 453.68C1300.19 444.827 1318.43 425.747 1341.62 433.667C1364.82 441.573 1321.21 414.427 1319.36 414.427C1317.5 414.427 1295.24 414.267 1295.24 414.267C1295.24 414.267 1278.08 428.387 1277.46 429.933C1276.84 431.493 1271.89 448.4 1271.89 448.4L1276.23 459.107Z" fill="#0E2E35"/>
<path d="M1301.39 496L1326.41 500.773C1326.41 500.773 1324.02 510.2 1312.96 508.413C1299.47 506.24 1301.39 496 1301.39 496" fill="white"/>
<path d="M3877.23 2544.85H261.777V2532.29H3877.23V2544.85Z" fill="#B75742"/>
<path d="M966.485 1405.05H550.147C531.721 1405.05 516.787 1419.99 516.787 1438.41V1658.53C516.787 1676.96 531.721 1691.89 550.147 1691.89H853.031C870.027 1715.61 900.841 1758.08 903.56 1758.08C906.108 1758.08 901.204 1717.97 897.748 1691.89H966.485C984.908 1691.89 999.845 1676.96 999.845 1658.53V1438.41C999.845 1419.99 984.908 1405.05 966.485 1405.05" fill="#F7CC7F"/>
<path d="M3068.03 1723.32C3075.68 1704.92 3083.45 1686.49 3103.28 1677.17C3119.33 1669.64 3136.09 1672.48 3150.36 1683.2C3190.76 1713.59 3155.56 1747.07 3201.56 1804.68C3215.84 1822.59 3233.15 1837.04 3241.71 1858.03C3253.69 1887.39 3232.81 1930.39 3209.92 1944.44C3100.44 2011.73 3049.67 1844.68 3051.72 1813.07C3053.25 1789.56 3063.11 1735.16 3068.03 1723.32" fill="#F7CC7F"/>
<path d="M2954.41 2081.44C2959.03 2080.72 2970.24 2072.68 2974.2 2071.96C2977.27 2071.39 2983.89 2070.39 2986.72 2069.96C2990.19 2057.03 3007.77 1986.55 3009.73 1965.88C3011.87 1943.49 3027.71 1846.65 3027.71 1846.65L3068.69 1854.11C3068.69 1854.11 3051.67 1928.6 3046.96 1964.72C3042.92 1995.75 3008.88 2065.52 3004.55 2072.88C3004.55 2073.05 3004.53 2073.23 3004.53 2073.41C3003.87 2084.36 2998.6 2080.72 2998.6 2080.72L2990.03 2082.91C2990.03 2082.91 2959.69 2085.83 2957.71 2086.56C2955.73 2087.28 2949.8 2082.17 2954.41 2081.44" fill="#F7A491"/>
<path d="M3063.44 1790.04C3034.47 1799.87 3017.99 1878.64 3017.99 1878.64C3017.99 1878.64 3063.45 1891.33 3075.09 1884.68C3075.09 1884.68 3088.32 1826.07 3093.05 1828.12L3063.44 1790.04Z" fill="#3C8F7C"/>
<path d="M2839.29 2217.55C2830.43 2240.93 2825.83 2263.45 2825.41 2266.19C2825.21 2267.49 2827.07 2273.85 2826.89 2275.21C2809.09 2299.49 2783.52 2304.8 2761.59 2306.35C2772.76 2295.44 2789.17 2285.11 2789.96 2281.64C2791.21 2276.15 2797.96 2251.65 2801.28 2217.72C2814.92 2224.03 2824.17 2219.03 2839.29 2217.55" fill="#F7A491"/>
<path d="M3091.48 1955.95L3130.64 2066.24C3130.64 2066.24 3067.71 2078.08 3044.19 2082.4C3020.65 2086.72 2889.21 2092.45 2885.88 2094.79C2883.4 2096.52 2856.25 2184.35 2844.12 2232.77C2830.36 2235.8 2806.81 2232.16 2794.28 2227.84C2801.05 2158.56 2825.51 2048.79 2833.33 2036.83C2846.08 2017.37 3091.48 1955.95 3091.48 1955.95" fill="#355389"/>
<path d="M2938.51 2265.89C2934.17 2290.53 2933.88 2313.52 2933.97 2316.27C2934.03 2317.6 2937.04 2323.49 2937.12 2324.87C2924.19 2352.04 2900.05 2362.05 2878.81 2367.68C2887.75 2354.87 2901.92 2341.64 2902.05 2338.11C2902.25 2332.47 2904.29 2307.15 2901.2 2273.19C2915.77 2276.83 2923.93 2270.19 2938.51 2265.89" fill="#F7A491"/>
<path d="M3137.2 1961.67L3152.39 1987.61C3175.52 2027.11 3157.79 2077.93 3115.12 2094.48C3114.88 2094.57 3114.65 2094.67 3114.44 2094.75C3092.13 2103.4 2964.09 2133.67 2961.25 2136.59C2959.15 2138.75 2948.93 2230.11 2946.09 2279.95C2933.15 2285.51 2909.33 2286.35 2896.21 2284.45C2889.88 2215.12 2893.32 2102.71 2898.77 2089.49C2907.65 2067.99 3137.2 1961.67 3137.2 1961.67" fill="#86B1F2"/>
<path d="M2932.01 2317.04C2935.43 2313.28 2947.95 2334 2951.07 2338.41C2954.59 2343.39 2953.59 2347.15 2953.16 2347.92C2952.05 2349.97 2886.05 2388.8 2869.96 2391.56C2868.44 2391.83 2865.8 2390.87 2865.13 2390.28C2858.84 2384.71 2887.8 2343.59 2900.8 2338.19C2909.21 2334.69 2916.68 2333.97 2932.01 2317.04" fill="#13375B"/>
<path d="M2823.31 2266.93C2827.36 2263.87 2835.77 2286.57 2838.01 2291.51C2840.55 2297.04 2838.85 2300.53 2838.29 2301.23C2836.83 2303.03 2764.71 2328.8 2748.39 2328.51C2746.84 2328.48 2744.43 2327.04 2743.89 2326.33C2738.76 2319.69 2774.91 2284.72 2788.68 2281.85C2797.6 2280 2805.07 2280.69 2823.31 2266.93Z" fill="#13375B"/>
<path d="M3090.92 1789.81C3090.17 1789.81 3089.09 1789.55 3088 1789.21C3082.61 1788.24 3070.85 1786.84 3061.69 1790.69C3050.56 1795.4 3033.31 1839.29 3034.33 1884.35C3034.75 1891.23 3035.16 1897.4 3035.52 1901.69C3038.33 1935.73 3048.09 1999.6 3048.63 1999.93C3061.91 2008.48 3142.04 1975.33 3147.55 1968.05C3153.05 1960.77 3156.31 1872.32 3158.99 1867.91L3164.25 1790.97C3154.96 1788.2 3105.17 1789.71 3090.92 1789.81Z" fill="#50BFA5"/>
<path d="M3123.4 1761.48C3123.4 1761.48 3118.24 1788.17 3119.28 1798.69C3120.31 1809.23 3115.33 1843.16 3093.05 1843.27C3070.77 1843.37 3088.83 1800.13 3090.92 1789.81C3093.03 1779.49 3093.52 1747.56 3093.52 1747.56L3123.4 1761.48" fill="#F7A491"/>
<path d="M3093.05 1763.59C3093.4 1754.84 3093.52 1747.56 3093.52 1747.56L3123.4 1761.48C3123.4 1761.48 3122.35 1766.93 3121.28 1773.89C3108.2 1776.52 3098.72 1771.68 3093.05 1763.59" fill="#F47458"/>
<path d="M3134.32 1687.83C3134.32 1687.83 3145.84 1694.21 3150.05 1708.05C3154.25 1721.89 3149.47 1757.63 3119.72 1766.25C3089.97 1774.87 3077.09 1746.57 3083.21 1724.47C3089.35 1702.35 3102.67 1674.33 3134.32 1687.83Z" fill="#F7A491"/>
<path d="M3079.49 1715.89C3080.08 1721.83 3083.36 1726.37 3086.81 1726.03C3090.28 1725.69 3092.61 1720.6 3092.03 1714.65C3091.44 1708.72 3088.17 1704.17 3084.71 1704.52C3081.25 1704.85 3078.92 1709.95 3079.49 1715.89Z" fill="#F7A491"/>
<path d="M3130.84 1686.01C3130.84 1686.01 3136.23 1725.87 3149.12 1733.07C3162 1740.25 3156.6 1757.93 3156.6 1757.93C3156.6 1757.93 3168.29 1716.88 3158.11 1703.69C3147.92 1690.51 3130.84 1686.01 3130.84 1686.01" fill="#F7CC7F"/>
<path d="M3141.48 1738.79C3137.99 1743.97 3138 1750.11 3141.51 1752.47C3145.03 1754.83 3150.69 1752.53 3154.19 1747.33C3157.69 1742.15 3157.68 1736.01 3154.16 1733.65C3150.65 1731.29 3144.97 1733.59 3141.48 1738.79Z" fill="#F7A491"/>
<path d="M3098.15 1741L3119.11 1746.28C3119.11 1746.28 3116.59 1754.24 3107.31 1752.19C3095.97 1749.69 3098.15 1741 3098.15 1741" fill="white"/>
<path d="M3294.65 2073.49C3294.28 2072.53 3293.44 2072.52 3292.59 2072.49C3284.29 2072.24 3276 2071.87 3267.77 2070.64C3266.4 2070.43 3265.05 2070.12 3263.79 2069.61C3261.51 2068.71 3259.24 2068.72 3256.93 2069.37C3255.68 2069.72 3254.41 2069.77 3253.12 2069.77C3248.95 2069.76 3237.05 2065.71 3230.95 2064.64C3229.55 2064.39 3228.44 2063.33 3228.09 2061.96C3222.08 2038.19 3209.17 1984.83 3207.51 1967.28C3205.36 1944.84 3189.87 1843.67 3189.87 1843.67L3148.41 1855.23C3148.41 1855.23 3165.48 1929.91 3170.19 1966.12C3173.84 1994.08 3201.77 2053.41 3210.53 2070.47C3214.81 2083.17 3224.41 2083.52 3226.65 2083.8C3227.92 2083.95 3229.09 2084.57 3229.93 2085.56C3231.45 2087.32 3233.19 2088.85 3235.16 2090.11C3236.64 2091.03 3237.77 2092.24 3238.73 2093.65C3240.49 2096.23 3242.07 2098.92 3243.63 2101.61C3244.67 2103.4 3245.75 2103.96 3247.28 2103.55C3248.92 2103.09 3249.71 2101.88 3249.68 2099.87C3249.63 2096.91 3248.68 2094.23 3247.2 2091.71C3245.8 2089.33 3245.91 2087.96 3247.53 2085.79C3248.47 2084.53 3249.43 2083.32 3250.64 2082.32C3251.89 2081.31 3253.2 2080.55 3254.88 2080.77C3257.87 2081.52 3260.87 2082.13 3263.93 2082.47L3266.44 2082.97L3267.8 2083.27C3268.01 2083.32 3272.43 2083.8 3273.93 2083.81C3275.15 2083.81 3277.12 2083.89 3278.79 2083.97C3280.29 2084.04 3283.49 2083.25 3283.61 2083.25C3285.08 2083.21 3286.39 2082.68 3287.48 2081.69C3287.93 2081.29 3288.36 2080.84 3288.13 2080.16C3287.92 2079.52 3287.43 2079.25 3286.79 2079.15C3285.79 2078.96 3280.64 2078.33 3280.71 2078.12C3282.23 2078.12 3287.01 2078 3288.55 2077.96C3290.6 2077.91 3292.39 2077.17 3293.81 2075.65C3294.37 2075.04 3295.03 2074.45 3294.65 2073.49" fill="#F7A491"/>
<path d="M3164.76 1790.81C3185.21 1787.09 3202.09 1878.64 3202.09 1878.64C3202.09 1878.64 3156.64 1891.33 3144.99 1884.68C3144.99 1884.68 3131.76 1826.07 3127.03 1828.12L3164.76 1790.81Z" fill="#50BFA5"/>
<path d="M2851.76 1918.03H2966.13C2969.16 1918.03 2971.88 1919.85 2973.03 1922.67L3008.25 2008.85H3071.31C3073.07 2008.85 3074.49 2010.28 3074.49 2012.05C3074.49 2013.83 3073.07 2015.25 3071.31 2015.25H2891.84C2886.91 2015.25 2882.44 2012.35 2880.41 2007.83L2844.96 1928.57C2842.73 1923.61 2846.35 1918.03 2851.76 1918.03Z" fill="#F47458"/>
<path d="M2913.33 1968.21C2914.11 1972.08 2917.48 1974.67 2920.85 1973.99C2924.23 1973.31 2926.35 1969.63 2925.57 1965.76C2924.8 1961.88 2921.44 1959.29 2918.05 1959.97C2914.68 1960.65 2912.56 1964.33 2913.33 1968.21" fill="white"/>
<path d="M555.007 1492.91H976.445V1470.36H555.007V1492.91Z" fill="#FDF5E5"/>
<path d="M611.304 1555.32H920.148V1532.77H611.304V1555.32Z" fill="#FDF5E5"/>
<path d="M589.379 1618.12H942.075V1595.57H589.379V1618.12Z" fill="#FDF5E5"/>
</svg>
