<?xml version="1.0" encoding="UTF-8" standalone="no"?>
<svg
   xmlns:dc="http://purl.org/dc/elements/1.1/"
   xmlns:cc="http://creativecommons.org/ns#"
   xmlns:rdf="http://www.w3.org/1999/02/22-rdf-syntax-ns#"
   xmlns:svg="http://www.w3.org/2000/svg"
   xmlns="http://www.w3.org/2000/svg"
   xmlns:sodipodi="http://sodipodi.sourceforge.net/DTD/sodipodi-0.dtd"
   xmlns:inkscape="http://www.inkscape.org/namespaces/inkscape"
   version="1.1"
   id="svg2"
   xml:space="preserve"
   width="4207.5601"
   height="2666.6667"
   viewBox="0 0 4207.5601 2666.6667"
   sodipodi:docname="Happy students or pupils watching study webinar.eps"><metadata
     id="metadata8"><rdf:RDF><cc:Work
         rdf:about=""><dc:format>image/svg+xml</dc:format><dc:type
           rdf:resource="http://purl.org/dc/dcmitype/StillImage" /></cc:Work></rdf:RDF></metadata><defs
     id="defs6" /><sodipodi:namedview
     pagecolor="#ffffff"
     bordercolor="#666666"
     borderopacity="1"
     objecttolerance="10"
     gridtolerance="10"
     guidetolerance="10"
     inkscape:pageopacity="0"
     inkscape:pageshadow="2"
     inkscape:window-width="640"
     inkscape:window-height="480"
     id="namedview4" /><g
     id="g10"
     inkscape:groupmode="layer"
     inkscape:label="ink_ext_XXXXXX"
     transform="matrix(1.3333333,0,0,-1.3333333,0,2666.6667)"><g
       id="g12"
       transform="scale(0.1)"><path
         d="M 0,0 H 31556.7 V 20000 H 0 Z"
         style="fill:#ffffff;fill-opacity:1;fill-rule:nonzero;stroke:none"
         id="path14" /><path
         d="m 24236.2,3355.2 1829.8,-8.2 1154.4,-1949.6 -2992.9,13.3 8.7,1944.5 m 1697.4,215.4 -1696.4,7.6 12.7,2835.9 1683.7,-2843.5 M 23888.7,7668.3 23858.8,998.102 27972.4,979.699 23888.7,7668.3"
         style="fill:#f7cc7f;fill-opacity:1;fill-rule:nonzero;stroke:none"
         id="path16" /><path
         d="M 8178.87,13478.6 H 23235.2 c 369,0 668.1,-299 668.1,-668 V 5045.2 3800.8 c 0,-258.8 -171.1,-468.6 -382.2,-468.6 H 17059.2 V 1483.1 h 3828.5 c 285.9,0 517.7,-231.8 517.7,-517.799 h -4346.2 -1269.6 -82.6 -1269.5 -4346.2 c 0,285.999 231.8,517.799 517.7,517.799 h 3828.5 V 3332.2 H 7892.95 c -211.06,0 -382.15,209.8 -382.15,468.6 v 1244.4 7765.4 c 0,369 299.1,668 668.07,668"
         style="fill:#213854;fill-opacity:1;fill-rule:nonzero;stroke:none"
         id="path18" /><path
         d="m 10252.3,1483.1 h 3828.5 v 2186.5 h 2621.7 V 1483.1 h 3828.4 c 286,0 517.8,-231.8 517.8,-517.799 h -4346.2 -1269.6 -82.6 -1269.5 -4346.24 c 0,285.999 231.81,517.799 517.74,517.799"
         style="fill:#001333;fill-opacity:1;fill-rule:nonzero;stroke:none"
         id="path20" /><path
         d="m 7154.08,5045.2 v 7765.4 c 0,368.9 299.1,668 668.07,668 H 22878.5 c 369,0 668.1,-299.1 668.1,-668 V 5045.2 H 7154.08"
         style="fill:#001333;fill-opacity:1;fill-rule:nonzero;stroke:none"
         id="path22" /><path
         d="M 23546.6,5045.2 V 3800.8 c 0,-258.8 -171.1,-468.6 -382.2,-468.6 H 7536.23 c -211.06,0 -382.15,209.8 -382.15,468.6 V 5045.2 H 23546.6"
         style="fill:#001333;fill-opacity:1;fill-rule:nonzero;stroke:none"
         id="path24" /><path
         d="m 7537.79,5382.4 v 7407.5 c 0,194.1 163.09,351.5 364.26,351.5 H 22798.6 c 201.2,0 364.3,-157.4 364.3,-351.5 V 5382.4 H 7537.79"
         style="fill:#eafcfc;fill-opacity:1;fill-rule:nonzero;stroke:none"
         id="path26" /><path
         d="m 18139.5,9527.2 c 0,0 -235,-102.4 -364.1,-920.7 0,0 195,-130.6 199,-47.6 3.9,83 165.1,968.3 165.1,968.3"
         style="fill:#b75742;fill-opacity:1;fill-rule:nonzero;stroke:none"
         id="path28" /><path
         d="m 18668.9,11436.3 c -71.2,-183 19.5,-389.2 202.5,-460.4 183.1,-71.2 389.2,19.5 460.4,202.6 71.2,183 -19.4,389.2 -202.5,460.4 -183.1,71.2 -389.2,-19.5 -460.4,-202.6"
         style="fill:#f8c48b;fill-opacity:1;fill-rule:nonzero;stroke:none"
         id="path30" /><path
         d="m 18882.4,10971.9 c -0.1,0 -0.2,0 -0.2,0 0,0 0.1,0 0.2,0 m -3,1 c -0.6,0.2 -1.1,0.5 -1.7,0.7 0.6,-0.2 1.1,-0.4 1.7,-0.7 m -2,0.8 c -0.5,0.2 -1.1,0.4 -1.6,0.6 0.5,-0.2 1.1,-0.4 1.6,-0.6 m -2,0.7 c -1.3,0.5 -2.6,1 -4,1.5 -140.5,54.7 -226.6,188.8 -226.8,331 0.2,-142.2 86.3,-276.3 226.8,-331 1.4,-0.5 2.7,-1 4,-1.5 m -206.5,461.9 c 0.2,0.5 0.4,1.1 0.6,1.6 -0.2,-0.5 -0.4,-1.1 -0.6,-1.6 m 0.7,1.8 c 0.1,0.4 0.3,0.8 0.4,1.2 -0.1,-0.4 -0.3,-0.9 -0.4,-1.2 m 0.9,2.3 c 0,0 0,0.1 0.1,0.2 -0.1,-0.1 -0.1,-0.2 -0.1,-0.2"
         style="fill:#d6cac4;fill-opacity:1;fill-rule:nonzero;stroke:none"
         id="path32" /><path
         d="m 19000.1,10951.7 c -39.1,0 -78.9,6.5 -117.7,20.2 -0.1,0 -0.2,0 -0.2,0 -1,0.4 -1.9,0.7 -2.8,1 -0.6,0.3 -1.1,0.5 -1.7,0.7 -0.1,0 -0.2,0 -0.3,0.1 -0.5,0.2 -1.1,0.4 -1.6,0.6 -0.1,0 -0.3,0.1 -0.4,0.1 -1.3,0.5 -2.6,1 -4,1.5 -140.5,54.7 -226.6,188.8 -226.8,331 -0.1,43.1 7.7,86.9 24.3,129.4 v 0 c 0.2,0.5 0.4,1.1 0.6,1.6 0,0 0,0.1 0.1,0.2 0.1,0.3 0.3,0.8 0.4,1.2 0.2,0.3 0.3,0.7 0.5,1.1 0,0 0,0.1 0.1,0.2 6.6,16.4 14.4,32 23,46.8 11.2,-3.1 22.3,-6.4 33.5,-10.2 238.3,-79.8 392.8,-270.1 439.9,-483.9 -51,-27 -108.3,-41.6 -166.9,-41.6"
         style="fill:#e39d6c;fill-opacity:1;fill-rule:nonzero;stroke:none"
         id="path34" /><path
         d="m 17779.7,10732.9 c 66.4,-319.4 367.6,-535.6 680.5,-520.6 312.8,15 582.1,258.5 603.8,582 25.2,375.1 -283,710 -692.2,690.4 -409.3,-19.6 -669.1,-381.7 -592.1,-751.8"
         style="fill:#f8c48b;fill-opacity:1;fill-rule:nonzero;stroke:none"
         id="path36" /><path
         d="m 19613.3,5383 c -4.4,98.1 -12.1,182.2 -24.9,246.7 -88.1,444.4 -458.3,981.4 -458.3,981.4 l -1321.9,166.7 49.7,-281.5 -78.7,-14.1 c 0,0 -135.4,-623.9 -95.3,-1099.2 h 1929.4"
         style="fill:#355389;fill-opacity:1;fill-rule:nonzero;stroke:none"
         id="path38" /><path
         d="m 16599.6,8282.1 c 0,0 816.7,-256.1 1048.9,-290.3 20,80.3 198.4,522.4 215.6,598.2 139.3,-78.9 316.8,16 459.4,-54.2 -71.8,-253.1 -233,-1086.8 -297.4,-1124.3 -196,-114.3 -1443.7,572.9 -1457.3,579.2 51.9,135.1 30.8,291.4 30.8,291.4"
         style="fill:#f38b80;fill-opacity:1;fill-rule:nonzero;stroke:none"
         id="path40" /><path
         d="m 17759.6,8322 c 0,0 -118.6,-271.5 -104.7,-269.5 13.9,2 120.5,0 120.5,0 v 225.7 l -15.8,43.8"
         style="fill:#b75742;fill-opacity:1;fill-rule:nonzero;stroke:none"
         id="path42" /><path
         d="m 18806.6,9677.2 c 0,0 316.9,-36 506.5,-242.2 189.5,-206.2 -306.4,-1863.5 -340.9,-2126 -34.4,-262.4 329.6,-988.7 329.6,-988.7 0,0 -1237.4,-245.9 -1559.1,-33.5 0,0 -28.3,2028.3 6.2,2215.7 34.4,187.5 321.7,949.8 390.6,1024.7 68.9,75 667.1,150 667.1,150"
         style="fill:#f47458;fill-opacity:1;fill-rule:nonzero;stroke:none"
         id="path44" /><path
         d="m 18647.1,10316.1 c 0,0 2.5,-14.1 7,-38 21.3,-115 103.6,-496.4 159.2,-601.2 67.1,-126.7 -230,-530.8 -515.9,-481.5 -85.1,14.7 72,371.3 64.4,409.1 -14.4,72.3 -34,170.9 -54.1,272.1 -11.3,57.1 -22.7,114.9 -33.5,169.3 -30.6,154.5 -55.5,280.9 -55.5,280.9 l 428.4,-10.7"
         style="fill:#f7a491;fill-opacity:1;fill-rule:nonzero;stroke:none"
         id="path46" /><path
         d="m 18654.1,10278.1 c -4.5,23.9 -7,38 -7,38 l -428.4,10.7 c 0,0 24.9,-126.4 55.5,-280.9 10.7,-54.1 22.1,-111.6 33.3,-168.4 66.2,9.8 135.3,41.9 204.6,102.4 75.6,66 125.1,145.3 155,230 -5.3,27 -9.7,50.3 -13,68.2"
         style="fill:#f47458;fill-opacity:1;fill-rule:nonzero;stroke:none"
         id="path48" /><path
         d="m 18389.4,11334.5 c 0,0 174.7,-24.3 301.3,-187.7 126.6,-163.4 263.1,-668.7 -51.4,-943.4 -314.5,-274.7 -625.2,36.2 -671.3,366 -46,329.7 -36.7,777 421.4,765.1"
         style="fill:#f7a491;fill-opacity:1;fill-rule:nonzero;stroke:none"
         id="path50" /><path
         d="m 17876.4,10650.8 c 19.8,-79.5 71.9,-133.2 116.3,-120 44.4,13.3 64.3,88.5 44.5,167.9 -19.9,79.5 -71.9,133.2 -116.3,120 -44.5,-13.3 -64.4,-88.5 -44.5,-167.9"
         style="fill:#f7a491;fill-opacity:1;fill-rule:nonzero;stroke:none"
         id="path52" /><path
         d="m 18195.3,11333 c 0,0 410.7,-471.4 603.7,-493.6 193,-22.2 218.4,-277.6 218.4,-277.6 0,0 -69.1,588.4 -260.1,701.9 -191.1,113.4 -562,69.3 -562,69.3"
         style="fill:#f8c48b;fill-opacity:1;fill-rule:nonzero;stroke:none"
         id="path54" /><path
         d="m 18735.9,10724.9 c -15.7,-85.3 15.8,-163.6 70.5,-174.8 54.6,-11.2 111.6,48.9 127.4,134.2 15.6,85.4 -15.9,163.6 -70.6,174.8 -54.6,11.2 -111.6,-48.9 -127.3,-134.2"
         style="fill:#f7a491;fill-opacity:1;fill-rule:nonzero;stroke:none"
         id="path56" /><path
         d="m 18579.1,8253.6 -1247.4,-227.5 296.1,-1623.4 v 0 l 1247.4,227.6 v 0 l -296.1,1623.3"
         style="fill:#bed9ea;fill-opacity:1;fill-rule:nonzero;stroke:none"
         id="path58" /><path
         d="m 18660.7,8199.4 -1254.7,-183.2 238.4,-1632.8 1254.7,183.2 -238.4,1632.8"
         style="fill:#d3e5f4;fill-opacity:1;fill-rule:nonzero;stroke:none"
         id="path60" /><path
         d="m 18767.9,8138.2 -1258.1,-158.9 206.8,-1637.1 1258,158.9 v 0 l -206.7,1637.1"
         style="fill:#f4f4f4;fill-opacity:1;fill-rule:nonzero;stroke:none"
         id="path62" /><path
         d="m 18161.6,10397.4 298.1,18.7 c 0,0 0.2,-113.7 -130.6,-125.7 -159.6,-14.6 -167.5,107 -167.5,107"
         style="fill:#ffffff;fill-opacity:1;fill-rule:nonzero;stroke:none"
         id="path64" /><path
         d="m 19640.3,7928.5 -564.5,-54.7 c 0,0 123.9,-451.6 115.7,-498.4 0,0 -822.2,-227.9 -1165.8,-289.8 0,0 -156.5,88.7 -219.8,116.9 -63.3,28.2 -233.4,58.9 -271.1,63.9 -37.6,4.9 -24.7,-36.3 7.6,-50.7 32.3,-14.4 115.9,-53.8 139.6,-102.1 0,0 -67.9,-7.4 -103.8,8.6 -35.9,16 -85.3,49.9 -86.1,67.5 -0.8,17.5 -9,59.9 -20.8,57.6 -3,-0.6 -7,-14.5 -11,-29 -3.9,-13.9 -7.9,-28 -11.3,-42 -6,-25 -12.9,-61.5 -15.6,-78 -6.2,-37.4 16.7,-140.8 19.9,-177.5 5.9,-67 25.1,-96.8 60.5,-113.9 57,-19.9 117.4,-32.5 206.6,-41.8 163.6,-16.9 313.9,30.2 379.5,37.6 65.5,7.3 1112.5,111.2 1112.5,111.2 0,0 416.2,59.9 443.8,131.5 27.6,71.6 -15.9,883.1 -15.9,883.1"
         style="fill:#f7a491;fill-opacity:1;fill-rule:nonzero;stroke:none"
         id="path66" /><path
         d="m 19255,9494.9 c 0,0 151.7,-71.9 285.1,-382.7 126.8,-295.3 133.5,-1764.1 133.5,-1764.1 l -495.8,82.6 -232.2,683.3 c -182.1,411.3 -135.1,890.2 130.3,1253.4 70.8,96.9 136,155.4 179.1,127.5"
         style="fill:#f47458;fill-opacity:1;fill-rule:nonzero;stroke:none"
         id="path68" /><path
         d="m 16674,8249.6 v -293.5 c -61.3,16 -386.3,134.1 -471.7,153 l 117.3,332.3 c 12.5,20.9 12.9,46.8 1.3,68.1 -8.2,15.1 -16.8,29 -21.7,34.3 -14.9,16 -30.6,35.9 -45.5,51.9 -14.9,16 14.2,73.3 35.1,90.1 20.8,16.9 67.5,-70.9 89.4,-93.5 65.8,-68.5 198.5,-276.2 221.4,-310.2 l 74.4,-32.5"
         style="fill:#f48c7f;fill-opacity:1;fill-rule:nonzero;stroke:none"
         id="path70" /><path
         d="m 16367.3,7745.9 101.4,15.8 -498.3,3004 -24,-3.7 -23.3,-3.6 444.2,-3012.5"
         style="fill:#d3e5f4;fill-opacity:1;fill-rule:nonzero;stroke:none"
         id="path72" /><path
         d="m 16111.9,8197.3 c -4.4,19.6 -6.5,40.7 -6.9,62.4 0.1,23.4 3.7,53.2 10.1,64.2 4.1,7 2.4,23.3 1.9,40.3 -0.2,5.5 0.3,11 1.5,16.4 l 0.1,0.4 c 3.5,15.5 10.1,30 18.4,43.6 7.9,12.9 13.3,27.7 18.2,51.1 3.9,18.2 11.6,35.6 23.8,49.6 11.9,13.9 23.5,19 32.9,12 43.4,-32.4 227.5,-116.6 205,-204.7 -18.9,-73.8 -49.7,-155.4 -49.9,-186.6 -0.3,-42.8 -56.6,-63.7 -94.9,-65.2 -72.2,-2.7 -137.6,15.7 -160.2,116.5"
         style="fill:#f7a491;fill-opacity:1;fill-rule:nonzero;stroke:none"
         id="path74" /><path
         d="m 18297.4,9195.4 c -84.4,14.6 69.5,365.7 64.5,408 l 441.5,78.9 9.9,-5.4 c 67.1,-126.7 -230,-530.8 -515.9,-481.5"
         style="fill:#d3e5f4;fill-opacity:1;fill-rule:nonzero;stroke:none"
         id="path76" /><path
         d="m 18813.3,9676.9 c -4,15.3 -48.5,172.4 -48.5,172.4 l -317.6,-194.1 -124.3,93.7 60.8,-293.6 59.2,87.2 77.9,-98.3 292.5,232.7"
         style="fill:#f4f4f4;fill-opacity:1;fill-rule:nonzero;stroke:none"
         id="path78" /><path
         d="m 19673.6,7328.2 -512.3,85.4 c 0,0 -43.6,127.5 -36.5,129.9 l 558.3,-51.9 -9.5,-163.4"
         style="fill:#d3e5f4;fill-opacity:1;fill-rule:nonzero;stroke:none"
         id="path80" /><path
         d="m 19863.4,15833 h 4343 c 150,0 271.6,-122 271.6,-272.6 v -3097 c 0,-150.5 -121.6,-272.6 -271.6,-272.6 h -3419.2 c -138.4,-193.7 -389.3,-540.7 -411.4,-540.7 -20.8,0 19.2,327.7 47.3,540.7 h -559.7 c -150,0 -271.6,122.1 -271.6,272.6 v 3097 c 0,150.6 121.6,272.6 271.6,272.6"
         style="fill:#f7cc7f;fill-opacity:1;fill-rule:nonzero;stroke:none"
         id="path82" /><path
         d="m 21119.6,13487.6 -56.3,21.3 466.8,1231.1 1387,-441.8 673.6,990.6 49.8,-33.9 -698.9,-1027.6 -1375.4,438.1 -446.6,-1177.8"
         style="fill:#162e55;fill-opacity:1;fill-rule:nonzero;stroke:none"
         id="path84" /><path
         d="m 21461.2,13463.8 c 86.7,-281.6 -71.4,-580.1 -353,-666.7 -281.6,-86.7 -580.1,71.3 -666.8,353 -86.6,281.6 71.4,580.1 353,666.7 281.6,86.7 580.2,-71.4 666.8,-353"
         style="fill:#f47458;fill-opacity:1;fill-rule:nonzero;stroke:none"
         id="path86" /><path
         d="m 23273,14318.9 c 56,-182.1 -46.2,-375.1 -228.3,-431.2 -182.1,-56 -375.1,46.2 -431.2,228.3 -56,182.1 46.2,375.1 228.3,431.2 182.1,56 375.2,-46.2 431.2,-228.3"
         style="fill:#f47458;fill-opacity:1;fill-rule:nonzero;stroke:none"
         id="path88" /><path
         d="m 23729.1,15306.8 c 19.3,-62.7 -15.9,-129.1 -78.6,-148.4 -62.6,-19.3 -129.1,15.9 -148.3,78.6 -19.3,62.6 15.8,129.1 78.5,148.4 62.7,19.2 129.1,-15.9 148.4,-78.6"
         style="fill:#f47458;fill-opacity:1;fill-rule:nonzero;stroke:none"
         id="path90" /><path
         d="m 21820.9,14786.6 c 46.3,-150.6 -38.2,-310.3 -188.9,-356.6 -150.6,-46.4 -310.3,38.2 -356.6,188.8 -46.4,150.6 38.2,310.3 188.8,356.6 150.6,46.4 310.3,-38.1 356.7,-188.8"
         style="fill:#f47458;fill-opacity:1;fill-rule:nonzero;stroke:none"
         id="path92" /><path
         d="m 21849.1,13439 h 2251 v 108.344 h -2251 z"
         style="fill:#fdf5e5;fill-opacity:1;fill-rule:nonzero;stroke:none"
         id="path94" /><path
         d="m 22500.1,13133.3 h -651 v 108.4 h 852.7 c -68.5,-32.1 -135.8,-68.2 -201.7,-108.4"
         style="fill:#fdf5e5;fill-opacity:1;fill-rule:nonzero;stroke:none"
         id="path96" /><path
         d="m 19915.1,15332.4 h 1630 v 108.352 h -1630 z"
         style="fill:#fdf5e5;fill-opacity:1;fill-rule:nonzero;stroke:none"
         id="path98" /><path
         d="M 19915.1,15028.5 H 21102 v 108.344 h -1186.9 z"
         style="fill:#fdf5e5;fill-opacity:1;fill-rule:nonzero;stroke:none"
         id="path100" /><path
         d="m 22110.8,12827.7 h -261.7 v 108.4 h 379 c -40.8,-34.9 -79.9,-71 -117.3,-108.4"
         style="fill:#fdf5e5;fill-opacity:1;fill-rule:nonzero;stroke:none"
         id="path102" /><path
         d="m 17565.9,14180.9 h -3305.8 c -114.2,0 -206.8,-92.9 -206.8,-207.4 v -2357.4 c 0,-114.6 92.6,-207.5 206.8,-207.5 h 2602.6 c 105.3,-147.5 296.3,-411.6 313.2,-411.6 15.8,0 -14.6,249.5 -36,411.6 h 426 c 114.2,0 206.7,92.9 206.7,207.5 v 2357.4 c 0,114.5 -92.5,207.4 -206.7,207.4"
         style="fill:#50bfa5;fill-opacity:1;fill-rule:nonzero;stroke:none"
         id="path104" /><path
         d="m 16453.3,11774 c -95.7,0 -213.7,54 -343.3,158.8 -39.2,31.7 -78.5,67.2 -117.5,106.1 -39.1,-38.9 -78.4,-74.4 -117.5,-106.1 -129.6,-104.8 -247.7,-158.8 -343.4,-158.8 -38.6,0 -73.5,8.8 -104.2,26.5 -106.8,61.6 -145.6,222.8 -109.2,453.7 7.9,49.7 19.1,101.6 33.3,154.8 -53.3,14.4 -103.7,30.7 -150.8,48.8 -218.2,83.9 -338.4,198 -338.4,321.4 0,123.3 120.2,237.5 338.4,321.4 47.1,18.1 97.5,34.4 150.8,48.8 -14.2,53.2 -25.4,105 -33.3,154.7 -36.4,231 2.4,392.1 109.2,453.8 30.7,17.7 65.6,26.4 104.2,26.4 95.7,0 213.7,-54 343.4,-158.8 39.1,-31.6 78.4,-67.1 117.5,-106.1 39,39 78.3,74.5 117.5,106.1 129.6,104.9 247.6,158.8 343.3,158.8 38.6,0 73.6,-8.7 104.2,-26.4 106.8,-61.7 145.6,-222.8 109.2,-453.8 -7.9,-49.7 -19.1,-101.5 -33.3,-154.7 53.3,-14.4 103.8,-30.7 150.8,-48.8 218.2,-83.9 338.4,-198.1 338.4,-321.4 0,-123.4 -120.2,-237.5 -338.4,-321.4 -47,-18.1 -97.5,-34.4 -150.8,-48.8 14.2,-53.2 25.4,-105.1 33.3,-154.8 36.4,-230.9 -2.4,-392.1 -109.2,-453.7 -30.6,-17.7 -65.6,-26.5 -104.2,-26.5 m 139,624.4 c -106.9,-26.2 -224.2,-45.1 -347.7,-56 -71.1,-101.5 -146.2,-193.7 -222.4,-273.2 38.1,-37.9 76.3,-72.5 114.5,-103.4 120.9,-97.7 231.5,-149 317.1,-149 31,0 58.7,6.8 82.5,20.5 89.2,51.5 121.4,201 88.4,410.3 -7.6,48.4 -18.6,98.9 -32.4,150.8 m -1199.7,0 c -13.8,-51.9 -24.8,-102.4 -32.4,-150.8 -33,-209.3 -0.8,-358.8 88.4,-410.3 23.8,-13.7 51.5,-20.5 82.6,-20.5 85.5,0 196.2,51.3 317.1,149 38.1,30.9 76.3,65.5 114.4,103.4 -76.2,79.5 -151.3,171.7 -222.4,273.2 -123.4,10.9 -240.7,29.8 -347.7,56 m 402.9,-60.3 c 63.5,-88.1 129.8,-168.4 197,-238.6 67.1,70.2 133.4,150.5 197,238.6 -64.4,-4.4 -130.3,-6.7 -197,-6.7 -66.8,0 -132.6,2.3 -197,6.7 m 197,846.4 c -77.9,0 -154.4,-3.1 -228.8,-9.1 -42.4,-61.4 -83.3,-126.2 -122.2,-193.6 -39,-67.4 -74.5,-135.2 -106.4,-202.6 31.9,-67.4 67.4,-135.3 106.4,-202.7 38.9,-67.4 79.8,-132.1 122.2,-193.5 74.4,-6 150.9,-9.1 228.8,-9.1 77.8,0 154.3,3.1 228.7,9.1 42.4,61.4 83.4,126.1 122.3,193.5 38.9,67.4 74.4,135.3 106.4,202.7 -32,67.4 -67.5,135.2 -106.4,202.6 -38.9,67.4 -79.9,132.2 -122.3,193.6 -74.4,6 -150.9,9.1 -228.7,9.1 m 480.4,-455.2 c -28.4,-58 -59.3,-116.2 -92.7,-174 -33.3,-57.8 -68.2,-113.7 -104.2,-167.3 107.9,11 210.6,28.3 304.9,51.3 -27.2,93.3 -63.5,190.9 -108,290 m -960.9,0 c -44.5,-99.1 -80.8,-196.7 -108,-290 94.3,-23 197,-40.3 304.9,-51.3 -36,53.6 -70.8,109.5 -104.2,167.3 -33.4,57.8 -64.3,116 -92.7,174 m 1110,379.1 c -30.7,-105.8 -73,-216.8 -125.3,-329.2 52.3,-112.4 94.6,-223.5 125.3,-329.3 52,14 101.1,29.9 146.9,47.5 197.8,76 311.2,178.8 311.2,281.8 0,103 -113.4,205.7 -311.2,281.8 -45.8,17.6 -94.9,33.4 -146.9,47.4 m -1259.1,0 c -52,-14 -101.1,-29.8 -146.9,-47.4 -197.8,-76.1 -311.2,-178.8 -311.2,-281.8 0,-103 113.4,-205.8 311.2,-281.8 45.8,-17.6 94.9,-33.5 146.9,-47.5 30.7,105.8 73,216.9 125.3,329.3 -52.3,112.4 -94.6,223.4 -125.3,329.2 m 913.1,62 c 36,-53.6 70.9,-109.5 104.2,-167.3 33.4,-57.8 64.3,-116 92.7,-174 44.5,99.1 80.8,196.6 108,289.9 -94.3,23.1 -197,40.4 -304.9,51.4 m -567.1,0 c -107.9,-11 -210.6,-28.3 -304.9,-51.4 27.2,-93.3 63.5,-190.8 108,-289.9 28.4,58 59.3,116.2 92.7,174 33.4,57.8 68.2,113.7 104.2,167.3 m 744.9,571.2 c -85.6,0 -196.2,-51.3 -317.1,-149.1 -38.2,-30.8 -76.4,-65.4 -114.5,-103.4 76.2,-79.5 151.3,-171.7 222.4,-273.1 123.5,-10.9 240.8,-29.8 347.7,-56.1 13.8,52 24.8,102.4 32.4,150.8 33,209.3 0.8,358.9 -88.4,410.4 -23.8,13.7 -51.5,20.5 -82.5,20.5 m -922.6,0 c -31.1,0 -58.8,-6.8 -82.6,-20.5 -89.2,-51.5 -121.4,-201.1 -88.4,-410.4 7.6,-48.4 18.6,-98.8 32.4,-150.8 107,26.3 224.3,45.2 347.7,56.1 71.1,101.4 146.2,193.6 222.4,273.1 -38.1,38 -76.3,72.6 -114.4,103.4 -120.9,97.8 -231.6,149.1 -317.1,149.1 m 461.3,-514.7 c 66.7,0 132.6,-2.2 197,-6.6 -63.5,88 -129.9,168.3 -197,238.5 -67.2,-70.2 -133.5,-150.5 -197,-238.5 64.4,4.4 130.2,6.6 197,6.6"
         style="fill:#dcf2ed;fill-opacity:1;fill-rule:nonzero;stroke:none"
         id="path106" /><path
         d="m 16193.1,12779.2 c 0,-110.8 -89.8,-200.7 -200.6,-200.7 -110.8,0 -200.7,89.9 -200.7,200.7 0,110.8 89.9,200.6 200.7,200.6 110.8,0 200.6,-89.8 200.6,-200.6"
         style="fill:#355389;fill-opacity:1;fill-rule:nonzero;stroke:none"
         id="path108" /><path
         d="m 15294.7,13059 c 0,-60.6 -49.1,-109.7 -109.7,-109.7 -60.6,0 -109.7,49.1 -109.7,109.7 0,60.6 49.1,109.7 109.7,109.7 60.6,0 109.7,-49.1 109.7,-109.7"
         style="fill:#f47458;fill-opacity:1;fill-rule:nonzero;stroke:none"
         id="path110" /><path
         d="m 14258.3,13904.6 h 1361.6 v 70.27 h -1361.6 z"
         style="fill:#dcf2ed;fill-opacity:1;fill-rule:nonzero;stroke:none"
         id="path112" /><path
         d="m 14258.3,13706.4 h 913.199 v 70.27 H 14258.3 Z"
         style="fill:#dcf2ed;fill-opacity:1;fill-rule:nonzero;stroke:none"
         id="path114" /><path
         d="m 14258.3,13508.2 h 559.801 v 70.27 H 14258.3 Z"
         style="fill:#dcf2ed;fill-opacity:1;fill-rule:nonzero;stroke:none"
         id="path116" /><path
         d="m 14307.4,11911.7 h 913.297 v 70.273 H 14307.4 Z"
         style="fill:#dcf2ed;fill-opacity:1;fill-rule:nonzero;stroke:none"
         id="path118" /><path
         d="m 14307.4,11713.5 h 559.898 v 70.262 H 14307.4 Z"
         style="fill:#dcf2ed;fill-opacity:1;fill-rule:nonzero;stroke:none"
         id="path120" /><path
         d="m 13581.1,17035.7 c -680,-337.2 -639,-1383.5 65.4,-1645.2 126.6,-47 230.6,-143.7 296,-267.1 l 225.1,-424.8 c 62,-117.1 199.5,-162.8 315.8,-105.2 l 257.6,127.7 c 116.3,57.7 172.5,199.4 129,325.7 -158.6,460.7 -248.8,618 -157,872.3 268.4,744 -451.7,1453.7 -1131.9,1116.6"
         style="fill:#f7cc7f;fill-opacity:1;fill-rule:nonzero;stroke:none"
         id="path122" /><path
         d="m 13555.5,16079.8 c 15.3,-73.8 103.9,-71.6 173,-52.2 -85.4,146.2 -192.6,146.9 -173,52.2 z m 654.2,269.1 c 115.6,132.9 63.3,202.2 31.5,207.6 -75.3,-50 -69.1,-93.8 -31.5,-207.6 z m 376.2,-1054.1 -88.6,-39.4 c -5.4,14.4 -165.2,419.9 -328.7,910.1 -91.7,-81.2 -193.5,-146.6 -303.6,-195.1 171.7,-379.8 374.7,-909.2 375.4,-910.9 l -88.7,-39.1 c -0.7,1.6 -204.7,534.4 -377.2,915.1 -178.5,-56.1 -257.4,18.7 -283.7,54.7 -44,60.5 -46.2,146.5 -5.1,204.5 64,90.4 222.4,74.7 335.1,-133 115.1,49.9 220.3,119.8 313.2,208.1 -27.6,82.8 -57,160.8 -46.1,238.3 12.1,86.3 75.4,147.8 143.9,150.1 107,3.5 216,-149.6 87.3,-331.4 -22.4,-31.6 -48.9,-61.1 -73.4,-86.7 173.4,-523.7 328.9,-915.3 340.2,-945.3"
         style="fill:#fae0b2;fill-opacity:1;fill-rule:nonzero;stroke:none"
         id="path124" /><path
         d="m 13936.5,15133.7 c 1.9,-3.5 4.2,-6.8 6,-10.3 l 225.1,-424.8 c 62,-117.1 199.5,-162.8 315.8,-105.2 l 257.6,127.7 c 116.3,57.7 172.5,199.4 129,325.7 -70.5,205 -127.5,349.8 -161,469.9 l -772.5,-383"
         style="fill:#96d9c9;fill-opacity:1;fill-rule:nonzero;stroke:none"
         id="path126" /><path
         d="m 15176.3,17282.3 c -70.3,-63.6 -140.6,-127.3 -211,-190.9 -55,-49.9 -127.4,-140.6 -207.4,-140.3 -19.8,0.1 -41.9,18.4 -39.6,39.8 8.7,82.4 100,140.7 157.8,192.4 70.6,63.3 141.3,126.6 212,189.9 60.4,54 148.9,-35.9 88.2,-90.9"
         style="fill:#fae0b2;fill-opacity:1;fill-rule:nonzero;stroke:none"
         id="path128" /><path
         d="m 14386.1,17837.1 c -127,-505.7 -118.1,-493.5 -153.4,-532 -27.4,-30 -80.2,-12.7 -89.4,25.1 -11.7,47.8 -9.6,34.5 122.6,539.2 20.3,77.6 139.7,45.3 120.2,-32.3"
         style="fill:#fae0b2;fill-opacity:1;fill-rule:nonzero;stroke:none"
         id="path130" /><path
         d="m 13322.5,17260.7 c -53.5,79.5 -107,159 -160.4,238.4 -47.6,70.7 -118.2,146.2 -128.2,233 -4.4,38.2 43.5,57 72.2,41.2 74.8,-41 120.2,-143.5 166.1,-212.4 53.1,-79.7 106.2,-159.4 159.4,-239.1 44.6,-67 -64.4,-127.5 -109.1,-61.1"
         style="fill:#fae0b2;fill-opacity:1;fill-rule:nonzero;stroke:none"
         id="path132" /><path
         d="m 12805.9,15960.1 c -134.3,-53.7 -270.2,-109.6 -409.6,-148.8 -75,-21.1 -100.9,89.8 -29.9,115.3 136.8,49.2 274.3,94.6 409.8,147.8 70.8,27.9 99.2,-86.5 29.7,-114.3"
         style="fill:#fae0b2;fill-opacity:1;fill-rule:nonzero;stroke:none"
         id="path134" /><path
         d="m 12820.4,16628.5 c -86.7,10.2 -173,23.2 -259.2,36.9 -78.7,12.6 -181.1,12.4 -244.6,63 -33.7,26.8 -9.1,78.4 24.9,89 42.7,13.3 55.3,3 242,-27.8 84.3,-13.9 168.8,-26.1 252.9,-40.9 67.6,-11.8 53,-128.4 -16,-120.2"
         style="fill:#fae0b2;fill-opacity:1;fill-rule:nonzero;stroke:none"
         id="path136" /><path
         d="m 13319.9,6460.4 -1403.8,-171.4 -823.2,1094.3 543.6,1298.3 1371.4,167.4 843,-1120.4 z M 8814.38,8360.1 9368.08,9661.4 10733.7,9820.2 11578,8698 11034,7419.5 9649.26,7250.4 Z m 2522.02,2782.2 1365.6,158.7 850.3,-1130.2 -527.1,-1258.9 -1.2,1.6 -1419.4,-165 -821.9,1092.5 z m 1724.8,-2278.2 550.2,1314.1 -886,1177.6 -1424.8,-165.7 -560.4,-1317.2 -1407.89,-163.7 -577.1,-1356.3 870.71,-1157.3 1413.68,172.6 853.2,-1134 1463.1,178.6 554,1323.1 -848.7,1128.2"
         style="fill:#f7cc7f;fill-opacity:1;fill-rule:nonzero;stroke:none"
         id="path138" /><path
         d="m 12895.8,11301 c 0,-95.3 -77.3,-172.6 -172.7,-172.6 -95.4,0 -172.7,77.3 -172.7,172.6 0,95.4 77.3,172.7 172.7,172.7 95.4,0 172.7,-77.3 172.7,-172.7"
         style="fill:#f47458;fill-opacity:1;fill-rule:nonzero;stroke:none"
         id="path140" /><path
         d="m 9531.88,9664.1 c 0,-95.3 -77.3,-172.6 -172.68,-172.6 -95.37,0 -172.68,77.3 -172.68,172.6 0,95.4 77.31,172.7 172.68,172.7 95.38,0 172.68,-77.3 172.68,-172.7"
         style="fill:#f47458;fill-opacity:1;fill-rule:nonzero;stroke:none"
         id="path142" /><path
         d="m 13725,10158.6 c 0,-95.4 -77.3,-172.7 -172.7,-172.7 -95.4,0 -172.7,77.3 -172.7,172.7 0,95.4 77.3,172.7 172.7,172.7 95.4,0 172.7,-77.3 172.7,-172.7"
         style="fill:#f47458;fill-opacity:1;fill-rule:nonzero;stroke:none"
         id="path144" /><path
         d="m 14023.6,7741.1 c 0,-95.3 -77.3,-172.6 -172.7,-172.6 -95.4,0 -172.7,77.3 -172.7,172.6 0,95.4 77.3,172.7 172.7,172.7 95.4,0 172.7,-77.3 172.7,-172.7"
         style="fill:#f47458;fill-opacity:1;fill-rule:nonzero;stroke:none"
         id="path146" /><path
         d="m 12079.4,6289 c 0,-95.3 -77.3,-172.7 -172.6,-172.7 -95.4,0 -172.7,77.4 -172.7,172.7 0,95.4 77.3,172.7 172.7,172.7 95.3,0 172.6,-77.3 172.6,-172.7"
         style="fill:#f47458;fill-opacity:1;fill-rule:nonzero;stroke:none"
         id="path148" /><path
         d="m 11777,8722.3 c 0,-95.4 -77.3,-172.7 -172.7,-172.7 -95.4,0 -172.7,77.3 -172.7,172.7 0,95.3 77.3,172.7 172.7,172.7 95.4,0 172.7,-77.4 172.7,-172.7"
         style="fill:#f47458;fill-opacity:1;fill-rule:nonzero;stroke:none"
         id="path150" /><path
         d="m 13290.2,10711.9 c 0,-58.5 -47.5,-106 -106,-106 -58.6,0 -106.1,47.5 -106.1,106 0,58.6 47.5,106.1 106.1,106.1 58.5,0 106,-47.5 106,-106.1"
         style="fill:#50bfa5;fill-opacity:1;fill-rule:nonzero;stroke:none"
         id="path152" /><path
         d="m 10865.9,9836.8 c 0,-58.6 -47.5,-106 -106,-106 -58.6,0 -106.1,47.4 -106.1,106 0,58.6 47.5,106.1 106.1,106.1 58.5,0 106,-47.5 106,-106.1"
         style="fill:#50bfa5;fill-opacity:1;fill-rule:nonzero;stroke:none"
         id="path154" /><path
         d="m 13123.6,8861.3 c 0,-55.2 -44.7,-99.9 -99.9,-99.9 -55.2,0 -100,44.7 -100,99.9 0,55.2 44.8,99.9 100,99.9 55.2,0 99.9,-44.7 99.9,-99.9"
         style="fill:#50bfa5;fill-opacity:1;fill-rule:nonzero;stroke:none"
         id="path156" /><path
         d="m 8900.71,8357 c 0,-80.3 -65.14,-145.5 -145.5,-145.5 -80.36,0 -145.5,65.2 -145.5,145.5 0,80.4 65.14,145.5 145.5,145.5 80.36,0 145.5,-65.1 145.5,-145.5"
         style="fill:#50bfa5;fill-opacity:1;fill-rule:nonzero;stroke:none"
         id="path158" /><path
         d="m 12580.3,11743.6 v 651.7 h 70.9 v -278.5 h 327.4 v 278.5 h 71.3 v -651.7 h -71.3 v 310.2 h -327.4 v -310.2 h -70.9"
         style="fill:#50bfa5;fill-opacity:1;fill-rule:nonzero;stroke:none"
         id="path160" /><path
         d="m 14194.1,7406.4 v 651.7 h 70.9 v -278.5 h 327.4 v 278.5 h 71.2 v -651.7 h -71.2 v 310.3 H 14265 v -310.3 h -70.9"
         style="fill:#50bfa5;fill-opacity:1;fill-rule:nonzero;stroke:none"
         id="path162" /><path
         d="m 13148.2,11497.7 v 45.5 c 10.7,24 24.7,47.1 42,69.5 17.4,22.4 38.9,44.8 64.7,67.2 11.5,10.3 30,24.6 55.4,43.1 25.4,18.4 43.2,32.9 53.2,43.3 15.5,16.4 26.8,31.8 34,46.3 7.2,14.6 10.8,29.3 10.8,44.4 0,27.9 -8.2,49.9 -24.7,66.1 -16.5,16.1 -39.1,24.2 -67.9,24.2 -29.4,0 -54,-8.9 -73.8,-26.8 -19.7,-17.9 -33.1,-43.6 -40.1,-76.9 l -46.8,9.8 c 9.6,44.7 28.2,78.6 55.7,101.6 27.5,23 62.9,34.5 106.3,34.5 44.1,0 78.9,-11.7 104.6,-35.2 25.6,-23.4 38.4,-55.2 38.4,-95.4 0,-17 -2.1,-32.4 -6.2,-46.3 -4.1,-13.8 -10.6,-26.7 -19.3,-38.7 -16.8,-23.8 -51.3,-55 -103.4,-93.6 -11.6,-8.3 -20.2,-14.6 -25.9,-19 -27.4,-20.7 -50.1,-41 -68,-60.7 -17.9,-19.7 -31,-39.1 -39.3,-58.1 h 262.1 v -44.8 h -311.8"
         style="fill:#50bfa5;fill-opacity:1;fill-rule:nonzero;stroke:none"
         id="path164" /><path
         d="m 17062.8,15813 196.8,233.9 -17.2,-306.1 z m 635.9,780.4 -372.9,149.8 -1072.9,-1271.4 c -92.7,-109.9 -52.5,-278.7 78.9,-331.5 82.7,-33.2 177.7,-8.6 235.5,61.1 l 249.9,301.3 391.2,-157.3 -22.4,-394.5 c -5.1,-89.9 46.7,-172.6 128.9,-205.6 l 7.1,-2.9 c 131.5,-52.8 276.4,41.8 284.4,185.8 l 92.3,1665.2"
         style="fill:#f47458;fill-opacity:1;fill-rule:nonzero;stroke:none"
         id="path166" /><path
         d="m 10780.3,991.5 h 3900.2 v 1366 h -3900.2 z"
         style="fill:#f4f4f4;fill-opacity:1;fill-rule:nonzero;stroke:none"
         id="path168" /><path
         d="m 10780.3,2084.4 h 3900.2 v 23.0039 h -3900.2 z"
         style="fill:#d3e5f4;fill-opacity:1;fill-rule:nonzero;stroke:none"
         id="path170" /><path
         d="m 10780.3,1859 h 3900.2 v 23 h -3900.2 z"
         style="fill:#d3e5f4;fill-opacity:1;fill-rule:nonzero;stroke:none"
         id="path172" /><path
         d="m 10780.3,1633.6 h 3900.2 v 23 h -3900.2 z"
         style="fill:#d3e5f4;fill-opacity:1;fill-rule:nonzero;stroke:none"
         id="path174" /><path
         d="m 10780.3,1408.3 h 3900.2 v 23 h -3900.2 z"
         style="fill:#d3e5f4;fill-opacity:1;fill-rule:nonzero;stroke:none"
         id="path176" /><path
         d="m 12758,1859 c 0,0 -1835.1,-157.5 -2065.1,-355.3 0,0 11.5,234.6 87.4,378.3 l 574.9,-21.8 1402.8,-1.2"
         style="fill:#d3e5f4;fill-opacity:1;fill-rule:nonzero;stroke:none"
         id="path178" /><path
         d="m 13739.7,1859.2 -200.2,-317.1 -224.1,317.1 h 424.3"
         style="fill:#f47458;fill-opacity:1;fill-rule:nonzero;stroke:none"
         id="path180" /><path
         d="m 12805.9,1633.6 -200.2,-317.2 -224,317.2 z"
         style="fill:#466eb6;fill-opacity:1;fill-rule:nonzero;stroke:none"
         id="path182" /><path
         d="m 10780.3,1184.1 h 3900.2 v 23 h -3900.2 z"
         style="fill:#d3e5f4;fill-opacity:1;fill-rule:nonzero;stroke:none"
         id="path184" /><path
         d="m 11769.3,1407.6 -200.2,-317.2 -224.1,317.2 z"
         style="fill:#50bfa5;fill-opacity:1;fill-rule:nonzero;stroke:none"
         id="path186" /><path
         d="m 14680.5,991.5 h -928.3 v 192.6 h 928.3 V 991.5 m 0,215.6 h -928.3 v 201.2 h 928.3 v -201.2 m 0,224.2 h -928.3 v 202.3 h 928.3 v -202.3 m 0,225.3 h -928.3 v 12.5 10.7 179.2 h 928.3 v -202.4 m 0,225.4 h -928.3 v 202.4 h 928.3 V 1882 m 0,225.4 h -928.3 v 250.1 h 928.3 v -250.1"
         style="fill:#cadbe9;fill-opacity:1;fill-rule:nonzero;stroke:none"
         id="path188" /><path
         d="m 13752.2,2084.4 h 928.301 v 23.0039 H 13752.2 Z"
         style="fill:#afcee9;fill-opacity:1;fill-rule:nonzero;stroke:none"
         id="path190" /><path
         d="m 13752.2,1859 h 928.301 v 23 H 13752.2 Z"
         style="fill:#afcee9;fill-opacity:1;fill-rule:nonzero;stroke:none"
         id="path192" /><path
         d="m 13752.2,1633.6 h 928.301 v 23 H 13752.2 Z"
         style="fill:#afcee9;fill-opacity:1;fill-rule:nonzero;stroke:none"
         id="path194" /><path
         d="m 13752.2,1408.3 h 928.301 v 23 H 13752.2 Z"
         style="fill:#afcee9;fill-opacity:1;fill-rule:nonzero;stroke:none"
         id="path196" /><path
         d="m 13752.2,1184.1 h 928.301 v 23 H 13752.2 Z"
         style="fill:#afcee9;fill-opacity:1;fill-rule:nonzero;stroke:none"
         id="path198" /><path
         d="m 4442.36,5473.5 c -6.98,-218.7 171.75,-397.4 390.44,-390.4 198.05,6.3 359.36,167.6 365.68,365.6 6.98,218.7 -171.74,397.5 -390.44,390.5 -198.05,-6.3 -359.36,-167.6 -365.68,-365.7"
         style="fill:#f7cc7f;fill-opacity:1;fill-rule:nonzero;stroke:none"
         id="path200" /><path
         d="m 3779.93,1109.8 h 75.63 c 17.61,0 31.88,14.3 31.88,31.9 v 383.7 c 0,17.6 -14.27,31.9 -31.88,31.9 h -75.63 c -17.61,0 -31.88,-14.3 -31.88,-31.9 v -383.7 c 0,-17.6 14.27,-31.9 31.88,-31.9"
         style="fill:#b75742;fill-opacity:1;fill-rule:nonzero;stroke:none"
         id="path202" /><path
         d="m 3085.63,6341.2 c 116.54,152.7 247.24,237 388.48,250.7 217.84,21.1 391.42,-130.6 393.15,-132.1 l 86.83,97.8 c -8.81,7.8 -218.58,191 -492.58,164.5 -178.9,-17.3 -340.34,-118.8 -479.84,-301.5 l 103.96,-79.4"
         style="fill:#50bfa5;fill-opacity:1;fill-rule:nonzero;stroke:none"
         id="path204" /><path
         d="m 4105.41,6650.9 536.19,-536.2 c 43.9,-43.9 43.89,-115.1 -0.01,-159 l -188.58,-188.6 c -43.9,-43.9 -115.09,-43.9 -158.99,0 l -536.16,536.2 c -43.9,43.9 -43.9,115.1 0,159 l 188.57,188.6 c 43.9,43.9 115.08,43.9 158.98,0"
         style="fill:#b75742;fill-opacity:1;fill-rule:nonzero;stroke:none"
         id="path206" /><path
         d="M 5407.77,6145.4 4136.14,4873.8 c -351.15,351.1 -351.15,920.5 0,1271.6 351.15,351.2 920.48,351.2 1271.63,0"
         style="fill:#f47458;fill-opacity:1;fill-rule:nonzero;stroke:none"
         id="path208" /><path
         d="M 2905.62,6333.6 1750.71,3981 l 152.96,-75.1 1154.91,2352.6 z m -1337.58,-2415 1275.19,2597.7 398.02,-195.4 -1275.2,-2597.7 -398.01,195.4"
         style="fill:#b75742;fill-opacity:1;fill-rule:nonzero;stroke:none"
         id="path210" /><path
         d="m 1814.42,3723.6 -161.26,-55.1 846.9,-2480.2 161.26,55.1 z m -334.53,29.9 419.6,143.3 935.1,-2738.5 L 2415,1015 1479.89,3753.5"
         style="fill:#b75742;fill-opacity:1;fill-rule:nonzero;stroke:none"
         id="path212" /><path
         d="m 4100.36,4746.1 5,-5 c 25.4,-25.4 66.55,-25.4 91.94,0 l 1343.18,1343.1 c 25.38,25.4 25.39,66.6 0.01,92 l -5.01,5 c -25.39,25.4 -66.54,25.4 -91.93,0 L 4100.36,4838 c -25.39,-25.4 -25.39,-66.5 0,-91.9"
         style="fill:#96d9c9;fill-opacity:1;fill-rule:nonzero;stroke:none"
         id="path214" /><path
         d="m 1421.67,3791.9 c -9.72,-191.8 147.86,-349.4 339.69,-339.7 164.25,8.3 297.71,141.8 306.03,306 9.72,191.9 -147.85,349.5 -339.68,339.7 -164.25,-8.3 -297.71,-141.7 -306.04,-306"
         style="fill:#f47458;fill-opacity:1;fill-rule:nonzero;stroke:none"
         id="path216" /><path
         d="M 4348.32,1422.3 H 2227.38 c -244.6,0 -442.88,-198.3 -442.88,-442.902 h 3006.69 c 0,244.602 -198.28,442.902 -442.87,442.902"
         style="fill:#50bfa5;fill-opacity:1;fill-rule:nonzero;stroke:none"
         id="path218" /><path
         d="m 19951.9,2293.3 h -216.7 c 35.5,26.8 79.8,42.9 128.1,42.9 h 5427.8 c 284,0 514.2,-225.7 514.2,-504.1 v -320.2 c 0,-278.4 -230.2,-504.1 -514.2,-504.1 l -5367.1,1.8 27.9,1283.7"
         style="fill:#466eb6;fill-opacity:1;fill-rule:nonzero;stroke:none"
         id="path220" /><path
         d="m 23033.4,2335 c 271.6,0 491.8,-215.8 491.8,-482.1 v -361.8 c 0,-266.3 -220.2,-482.1 -491.8,-482.1 h -3379 v 80.9 h 14 l 859,79.8 173.6,667.7 c 0,0 -335.1,369 -356.9,378.5 -21.9,9.6 -675.7,38.4 -675.7,38.4 l -14,0.2 v 80.5 h 3379"
         style="fill:#7792b2;fill-opacity:1;fill-rule:nonzero;stroke:none"
         id="path222" /><path
         d="m 19873.6,1674.4 c 0,390.4 -205.8,579.6 -205.8,579.6 h 3296.4 c 249.5,0 451.7,-198.2 451.7,-442.8 v -278.5 c 0,-244.5 -202.2,-442.8 -451.7,-442.8 h -3296.4 c 0,0 205.8,92.9 205.8,584.5"
         style="fill:#f4f4f4;fill-opacity:1;fill-rule:nonzero;stroke:none"
         id="path224" /><path
         d="m 23415.9,1529.2 c 0,0 0,0.1 0,0.2 0,-0.1 0,-0.2 0,-0.2 m 0,1.6 c 0,0.1 0,0.2 0,0.3 0,-0.1 0,-0.2 0,-0.3"
         style="fill:#6688ac;fill-opacity:1;fill-rule:nonzero;stroke:none"
         id="path226" /><path
         d="m 23402.7,1426.5 c -31,74.4 -70,148.1 -118.8,217.4 h 132 v -111.2 0 c 0,-0.5 0,-1.1 0,-1.6 0,-0.1 0,-0.2 0,-0.3 0,-0.5 0,-0.9 0,-1.4 0,-0.1 0,-0.2 0,-0.2 -0.3,-35.4 -4.9,-69.7 -13.2,-102.7 m 13.2,243.9 c -13.6,0 -67,0 -151.5,0.1 -126.3,167.3 -313.8,305.6 -591.6,362.1 -947,192.9 -3005,221.4 -3005,221.4 h 3296.4 c 249.5,0 451.7,-198.2 451.7,-442.8 v -140.8"
         style="fill:#d1e4ec;fill-opacity:1;fill-rule:nonzero;stroke:none"
         id="path228" /><path
         d="m 26033.4,3355 h 216.7 c -35.4,21.3 -79.8,34 -128.1,34 h -5430 c -284.1,0 -514.4,-179.1 -514.4,-400 v -254 c 0,-220.9 230.3,-400 514.4,-400 l 5369.3,1.4 -27.9,1018.6"
         style="fill:#50bfa5;fill-opacity:1;fill-rule:nonzero;stroke:none"
         id="path230" /><path
         d="m 22950.6,3388.1 c -271.7,0 -491.9,-171.3 -491.9,-382.5 v -287.2 c 0,-211.2 220.2,-382.5 491.9,-382.5 H 26331 v 64.3 h -14 l -859.4,63.2 -173.7,529.9 c 0,0 335.3,292.8 357.1,300.3 21.9,7.6 676,30.5 676,30.5 l 14,0.1 v 63.9 h -3380.4"
         style="fill:#3c8f7c;fill-opacity:1;fill-rule:nonzero;stroke:none"
         id="path232" /><path
         d="m 26111.7,2863.9 c 0,309.8 205.9,459.9 205.9,459.9 h -3297.7 c -249.6,0 -451.9,-157.3 -451.9,-351.3 v -221 c 0,-194 202.3,-351.3 451.9,-351.3 h 3297.7 c 0,0 -205.9,73.6 -205.9,463.7"
         style="fill:#f4f4f4;fill-opacity:1;fill-rule:nonzero;stroke:none"
         id="path234" /><path
         d="m 22568.1,2747.4 v 0 0 m -0.1,1.2 c 0,0.1 0,0.2 0,0.3 0,-0.1 0,-0.2 0,-0.3 m 0,1.3 c 0,0.1 0,0.2 0,0.3 0,-0.1 0,-0.2 0,-0.3"
         style="fill:#338578;fill-opacity:1;fill-rule:nonzero;stroke:none"
         id="path236" /><path
         d="m 22581.2,2667.2 c -8.2,25.8 -12.7,52.6 -13.1,80.2 v 0 c 0,0.4 -0.1,0.8 -0.1,1.2 0,0.1 0,0.2 0,0.3 0,0.3 0,0.7 0,1 0,0.1 0,0.2 0,0.3 0,0.4 0,0.9 0,1.3 v 0 221 c 0,194 202.3,351.3 451.9,351.3 h 3297.7 v 0 c 0,0 -2058.8,-22.6 -3006.2,-175.6 -253.2,-40.9 -431.3,-135.6 -556.6,-252.4 -118.1,-0.1 -186.8,-0.2 -186.8,-0.2 l 3,-26.5 h 156.5 c -62,-63.3 -109.7,-132.2 -146.3,-201.9"
         style="fill:#d1e4ec;fill-opacity:1;fill-rule:nonzero;stroke:none"
         id="path238" /><path
         d="m 25628.9,2869.1 -208.8,-330.7 -233.7,330.7 h 442.5"
         style="fill:#f47458;fill-opacity:1;fill-rule:nonzero;stroke:none"
         id="path240" /><path
         d="m 26112,2869.1 h -0.3 c 0.1,4.7 0.2,9.2 0.3,13.8 0,-6.8 0,-13.8 0,-13.8"
         style="fill:#daeef7;fill-opacity:1;fill-rule:nonzero;stroke:none"
         id="path242" /><path
         d="m 26111.7,2869.1 h -3384.2 c 8.8,9 17.9,17.9 27.3,26.7 448,0.4 1607.5,1.4 2438.4,1.4 525,0 918.8,-0.4 918.8,-1.6 0,-1.6 0,-7.1 0,-12.7 -0.1,-4.6 -0.2,-9.1 -0.3,-13.8"
         style="fill:#d1e4ec;fill-opacity:1;fill-rule:nonzero;stroke:none"
         id="path244" /><path
         d="M 22727.5,2869.1 H 22571 l -3,26.5 c 0,0 68.7,0.1 186.8,0.2 -9.4,-8.8 -18.5,-17.7 -27.3,-26.7"
         style="fill:#b3d5e5;fill-opacity:1;fill-rule:nonzero;stroke:none"
         id="path246" /><path
         d="m 20358.4,1643.9 208.8,-330.8 233.7,330.8 h -442.5"
         style="fill:#50bfa5;fill-opacity:1;fill-rule:nonzero;stroke:none"
         id="path248" /><path
         d="m 23416.3,1643.9 h -0.4 v 26.5 c 2.2,0 3.4,0 3.4,0 l -3,-26.5"
         style="fill:#6688ac;fill-opacity:1;fill-rule:nonzero;stroke:none"
         id="path250" /><path
         d="m 23283.9,1643.9 h -3408.6 c 0,0 0,22.8 0,26.5 0,1.2 393.9,1.6 918.8,1.6 851.5,0 2048.1,-1.1 2470.3,-1.5 6.7,-8.8 13.2,-17.7 19.5,-26.6"
         style="fill:#d1e4ec;fill-opacity:1;fill-rule:nonzero;stroke:none"
         id="path252" /><path
         d="m 23415.9,1643.9 h -132 c -6.3,8.9 -12.8,17.8 -19.5,26.6 84.5,-0.1 137.9,-0.1 151.5,-0.1 v -26.5"
         style="fill:#b3d5e5;fill-opacity:1;fill-rule:nonzero;stroke:none"
         id="path254" /><path
         d="m 20814.7,4403.7 h -171.2 c 28,21.1 63,33.8 101.1,33.8 h 4288.2 c 224.3,0 406.2,-178.3 406.2,-398.2 v -253 c 0,-219.9 -181.9,-398.2 -406.2,-398.2 l -4240.2,1.4 22.1,1014.2"
         style="fill:#f47458;fill-opacity:1;fill-rule:nonzero;stroke:none"
         id="path256" /><path
         d="m 23249.1,4436.6 c 214.6,0 388.5,-170.5 388.5,-380.9 v -285.8 c 0,-210.4 -173.9,-380.9 -388.5,-380.9 h -2669.5 v 64 h 11.1 l 678.6,63 137.2,527.5 c 0,0 -264.8,291.5 -282,299 -17.3,7.6 -533.8,30.4 -533.8,30.4 l -11.1,0.1 v 63.6 h 2669.5"
         style="fill:#b75742;fill-opacity:1;fill-rule:nonzero;stroke:none"
         id="path258" /><path
         d="m 20752.8,3914.7 c 0,308.4 -162.6,457.9 -162.6,457.9 h 2604.3 c 197,0 356.8,-156.6 356.8,-349.8 v -220 c 0,-193.2 -159.8,-349.8 -356.8,-349.8 h -2604.3 c 0,0 162.6,73.3 162.6,461.7"
         style="fill:#f4f4f4;fill-opacity:1;fill-rule:nonzero;stroke:none"
         id="path260" /><path
         d="m 23551.2,3798.7 v 0 0 m 0.1,1.2 c 0,0.1 0,0.2 0,0.3 0,-0.1 0,-0.2 0,-0.3 m 0,1.3 c 0,0.1 0,0.2 0,0.3 0,-0.1 0,-0.2 0,-0.3"
         style="fill:#9c5140;fill-opacity:1;fill-rule:nonzero;stroke:none"
         id="path262" /><path
         d="m 23540.9,3718.9 c -31.5,75.5 -73.3,150 -128.8,217.5 h 139.2 v -133.6 0 c 0,-0.5 0,-0.9 0,-1.3 0,-0.1 0,-0.2 0,-0.3 0,-0.4 0,-0.7 0,-1 0,-0.1 0,-0.2 0,-0.3 0,-0.4 0,-0.8 -0.1,-1.2 v 0 c -0.3,-27.5 -3.9,-54.2 -10.3,-79.8 m 10.4,244 c 0,0 -59.9,0.1 -162.1,0.2 -98,108.6 -234.7,195.9 -425,234.6 -748.1,152.4 -2374,174.9 -2374,174.9 h 2604.3 c 197,0 356.8,-156.6 356.8,-349.8 v -59.9"
         style="fill:#d1e4ec;fill-opacity:1;fill-rule:nonzero;stroke:none"
         id="path264" /><path
         d="m 22592.4,3936.4 184.2,-327.1 165.4,327.1 h -349.6"
         style="fill:#13375b;fill-opacity:1;fill-rule:nonzero;stroke:none"
         id="path266" /><path
         d="m 20752.5,3936.4 h -1 c 0,0 0,18.4 0,24.8 0.5,-8.2 0.8,-16.4 1,-24.8"
         style="fill:#001231;fill-opacity:1;fill-rule:nonzero;stroke:none"
         id="path268" /><path
         d="m 23412.1,3936.4 h -2659.6 c -0.2,8.4 -0.5,16.6 -1,24.8 0,0.7 0,1.3 0,1.7 0,1.2 311.1,1.6 725.9,1.6 647.6,0 1547.9,-1 1911.8,-1.4 7.9,-8.8 15.5,-17.7 22.9,-26.7"
         style="fill:#d1e4ec;fill-opacity:1;fill-rule:nonzero;stroke:none"
         id="path270" /><path
         d="m 23551.3,3936.4 h -139.2 c -7.4,9 -15,17.9 -22.9,26.7 102.2,-0.1 162.1,-0.2 162.1,-0.2 v -26.5"
         style="fill:#b3d5e5;fill-opacity:1;fill-rule:nonzero;stroke:none"
         id="path272" /><path
         d="m 24688.3,9795.8 c 46.2,32.8 89.9,67.2 131.4,103.1 l 594.1,-837.8 c 36.5,-51.5 5.2,-136.5 -69.9,-189.7 -75.1,-53.3 -165.6,-54.7 -202.1,-3.3 l -594.2,837.8 c 47.5,27.3 94.5,57.2 140.7,89.9"
         style="fill:#0e2e35;fill-opacity:1;fill-rule:nonzero;stroke:none"
         id="path274" /><path
         d="m 23412.4,9482.7 c -84,9 -167.4,23.6 -249.5,43.9 v 323.3 l 249.5,-367.2"
         style="fill:#768caa;fill-opacity:1;fill-rule:nonzero;stroke:none"
         id="path276" /><path
         d="m 23162.9,9526.6 c -419.7,103.6 -806.3,353.3 -1076.7,734.7 -233.4,329 -345.6,707.2 -345.6,1081.2 0,169.3 23,337.7 68.1,500.3 l 1354.2,-1992.9 v -323.3"
         style="fill:#d4e9fa;fill-opacity:1;fill-rule:nonzero;stroke:none"
         id="path278" /><path
         d="m 23903.3,9495.4 v 0.2 c 282.7,50.3 549.5,165.9 779.2,335.4 l -779.2,1146.7 v 777.7 L 25005,10134.1 c 160.1,191.1 284.7,417.7 359.9,672.4 16.6,55.9 30.2,112 41.4,168.1 l -945.9,1392 c 11.4,30.1 17.6,62.7 17.6,96.8 v 504.2 c 243.2,-132.2 460.8,-320.8 631.9,-562.1 v 0 c 233.4,-329 345.6,-707.3 345.6,-1081.3 0,-581 -270.7,-1151.9 -778.7,-1512.1 -1.5,-1.1 -3,-2.2 -4.5,-3.2 -237.1,-167.1 -500.2,-270.4 -769,-313.5"
         style="fill:#dcebfb;fill-opacity:1;fill-rule:nonzero;stroke:none"
         id="path280" /><path
         d="m 23892.5,9493.7 c 3.6,0.6 7.2,1.2 10.8,1.9 v -0.2 c -3.6,-0.6 -7.2,-1.2 -10.8,-1.7 m 10.8,1484 -356.7,525 v 688.1 h 60.8 l 295.9,-435.4 v -777.7"
         style="fill:#839bb7;fill-opacity:1;fill-rule:nonzero;stroke:none"
         id="path282" /><path
         d="m 23546.6,11502.7 -383.7,564.7 v 123.4 h 383.7 v -688.1"
         style="fill:#768caa;fill-opacity:1;fill-rule:nonzero;stroke:none"
         id="path284" /><path
         d="m 23162.9,12067.4 -83.9,123.4 h 83.9 v -123.4 m -1227,106.9 c 2.7,5.5 5.5,11.1 8.3,16.5 h 0.1 c -2.8,-5.4 -5.6,-11 -8.4,-16.5"
         style="fill:#d4e9fa;fill-opacity:1;fill-rule:nonzero;stroke:none"
         id="path286" /><path
         d="M 23607.4,12190.8 H 23079 l -432.8,636.9 h 528.5 l 432.7,-636.9 m -1663.1,0 h -0.1 c 124.6,243.9 305.1,463 538.1,636.9 h 4 c -222.2,-165.3 -409.3,-381.1 -542,-636.9 m 2516.1,175.8 -360.3,530.2 v 39.3 h -26.7 l -155.4,228.6 c 194.7,-35.2 384.1,-101.4 560,-197.1 v -504.2 c 0,-34.1 -6.2,-66.7 -17.6,-96.8 m -1359.4,569.5 h -456.6 c 149.5,89 307.4,154.4 469.1,197.2 h 3.7 c -41.9,-11.2 -83.4,-23.9 -124.4,-38 l 108.2,-159.2"
         style="fill:#d9d6c8;fill-opacity:1;fill-rule:nonzero;stroke:none"
         id="path288" /><path
         d="m 23117.2,13133.3 h -3.7 c 61,16.2 122.7,29.1 184.6,38.9 -61.1,-10 -121.5,-22.9 -180.9,-38.9"
         style="fill:#dbe7f1;fill-opacity:1;fill-rule:nonzero;stroke:none"
         id="path290" /><path
         d="m 23174.7,12827.7 h -528.5 l -51.1,75.2 c -37.1,-23.8 -73.4,-48.8 -108.8,-75.2 h -4 c 12.2,9.1 24.5,18.1 37,26.9 40.9,29.1 82.7,56.2 125.1,81.5 h 456.6 l 73.7,-108.4 m 925.4,69.1 -26.7,39.3 h 26.7 v -39.3"
         style="fill:#dbe7f1;fill-opacity:1;fill-rule:nonzero;stroke:none"
         id="path292" /><path
         d="m 23610.5,9472.1 v 0 c 0.1,0 0.1,0 0.2,0 -0.1,0 -0.1,0 -0.2,0 m -0.3,0 c -21.2,0 -42.4,0.4 -63.6,1.1 v 0 c 21.2,-0.7 42.4,-1.1 63.6,-1.1"
         style="fill:#5a7892;fill-opacity:1;fill-rule:nonzero;stroke:none"
         id="path294" /><path
         d="m 23546.6,9473.2 c -44.8,1.5 -89.7,4.7 -134.2,9.5 v 0 c 44.5,-4.8 89.4,-8 134.2,-9.5 v 0"
         style="fill:#003d72;fill-opacity:1;fill-rule:nonzero;stroke:none"
         id="path296" /><path
         d="m 23903.3,9495.6 v 1482.1 L 24682.5,9831 c -229.7,-169.5 -496.5,-285.1 -779.2,-335.4"
         style="fill:#edf5fd;fill-opacity:1;fill-rule:nonzero;stroke:none"
         id="path298" /><path
         d="m 23610.5,9472.1 c -0.1,0 -0.2,0 -0.3,0 -21.2,0 -42.4,0.4 -63.6,1.1 v 2029.5 l 356.7,-525 V 9495.6 c -3.6,-0.7 -7.2,-1.3 -10.8,-1.9 -93.6,-14.4 -187.8,-21.6 -281.8,-21.6 -0.1,0 -0.1,0 -0.2,0"
         style="fill:#b7c7d8;fill-opacity:1;fill-rule:nonzero;stroke:none"
         id="path300" /><path
         d="m 23546.6,9473.2 c -44.8,1.5 -89.7,4.7 -134.2,9.5 l -249.5,367.2 v 2217.5 l 383.7,-564.7 V 9473.2"
         style="fill:#adbdd0;fill-opacity:1;fill-rule:nonzero;stroke:none"
         id="path302" /><path
         d="m 23162.9,9849.9 -1354.2,1992.9 c 31.6,114 74.1,225 127.2,331.5 2.8,5.5 5.6,11.1 8.4,16.5 H 23079 l 83.9,-123.4 V 9849.9"
         style="fill:#e9f4fc;fill-opacity:1;fill-rule:nonzero;stroke:none"
         id="path304" /><path
         d="m 23079,12190.8 h -1134.7 c 132.7,255.8 319.8,471.6 542,636.9 h 159.9 l 432.8,-636.9"
         style="fill:#ebeae2;fill-opacity:1;fill-rule:nonzero;stroke:none"
         id="path306" /><path
         d="m 22646.2,12827.7 h -159.9 c 35.4,26.4 71.7,51.4 108.8,75.2 l 51.1,-75.2"
         style="fill:#ecf3f8;fill-opacity:1;fill-rule:nonzero;stroke:none"
         id="path308" /><path
         d="m 23918,13164.7 c -109.4,19.9 -220.7,29.9 -332.1,29.9 111.4,0 222.7,-10 332.1,-29.9 v 0 m -332.6,29.9 c 0.1,0 0.1,0 0.2,0 v 0 c -0.1,0 -0.1,0 -0.2,0"
         style="fill:#fbe4b4;fill-opacity:1;fill-rule:nonzero;stroke:none"
         id="path310" /><path
         d="m 25005,10134.1 -1101.7,1621.3 v 435.4 h 303.1 c 116,0 215.1,73.1 254,175.8 l 945.9,-1392 c -11.2,-56.1 -24.8,-112.2 -41.4,-168.1 -75.2,-254.7 -199.8,-481.3 -359.9,-672.4"
         style="fill:#edf5fd;fill-opacity:1;fill-rule:nonzero;stroke:none"
         id="path312" /><path
         d="m 23903.3,11755.4 -295.9,435.4 h 295.9 v -435.4"
         style="fill:#b7c7d8;fill-opacity:1;fill-rule:nonzero;stroke:none"
         id="path314" /><path
         d="m 24206.4,12190.8 h -599 l -432.7,636.9 h 925.4 v 69.1 l 360.3,-530.2 c -38.9,-102.7 -138,-175.8 -254,-175.8 m -133,745.3 H 23101 l -108.2,159.2 c 41,14.1 82.5,26.8 124.4,38 h 361.9 v 58.3 c 35.5,2 70.9,3 106.3,3 0.1,0 0.1,0 0.2,0 0.1,0 0.2,0 0.3,0 111.4,0 222.7,-10 332.1,-29.9 l 155.4,-228.6"
         style="fill:#ebeae2;fill-opacity:1;fill-rule:nonzero;stroke:none"
         id="path316" /><path
         d="m 23479.1,13133.3 h -361.9 c 59.4,16 119.8,28.9 180.9,38.9 60.1,9.4 120.6,15.9 181,19.4 v -58.3"
         style="fill:#ecf3f8;fill-opacity:1;fill-rule:nonzero;stroke:none"
         id="path318" /><path
         d="m 24100.1,12827.7 h -925.4 l -73.7,108.4 h 972.4 l 26.7,-39.3 v -69.1"
         style="fill:#ecf3f8;fill-opacity:1;fill-rule:nonzero;stroke:none"
         id="path320" /><path
         d="m 22086.2,10261.3 c -595.8,840.1 -401.9,2001.2 433.1,2593.3 835,592.2 1994.8,391.1 2590.6,-449.1 595.8,-840.2 401.9,-2001.3 -433.1,-2593.4 -835,-592.1 -1994.8,-391 -2590.6,449.2 m -197.4,-140 c 673.6,-949.8 1984.9,-1177.2 2928.8,-507.8 944,669.4 1163.2,1982.1 489.7,2931.9 -673.6,949.9 -1984.9,1177.2 -2928.8,507.8 -944,-669.4 -1163.2,-1982 -489.7,-2931.9"
         style="fill:#184655;fill-opacity:1;fill-rule:nonzero;stroke:none"
         id="path322" /><path
         d="m 23611.3,9356.9 c -619.7,0 -1231.5,291.8 -1618.7,838 -632.7,892.2 -426.8,2125.2 459.9,2753.9 343.9,243.9 739.7,361.1 1132.3,361.1 619.7,0 1231.5,-291.9 1618.7,-838 632.7,-892.2 426.8,-2125.2 -459.9,-2754 -343.9,-243.9 -739.7,-361.1 -1132.3,-361 m -1870.7,1985.6 c 0,-374 112.2,-752.2 345.6,-1081.2 364.7,-514.4 940.7,-789.2 1524.3,-789.2 369.7,0 742.5,110.4 1066.3,340 508,360.2 778.7,931.1 778.7,1512.1 v 0 c 0,374 -112.2,752.3 -345.6,1081.3 v 0 c -364.6,514.2 -940.6,789.1 -1524,789.1 -0.1,0 -0.2,0 -0.3,0 v 0 c -35.5,0 -71,-1 -106.5,-3 -60.4,-3.5 -120.9,-10 -181,-19.4 -61.9,-9.8 -123.6,-22.7 -184.6,-38.9 -161.7,-42.8 -319.6,-108.2 -469.1,-197.2 -42.4,-25.3 -84.2,-52.4 -125.1,-81.5 -12.5,-8.8 -24.8,-17.8 -37,-26.9 -233,-173.9 -413.5,-393 -538.1,-636.9 -2.8,-5.4 -5.6,-11 -8.3,-16.5 -53.1,-106.5 -95.6,-217.5 -127.2,-331.5 -45.1,-162.6 -68.1,-331 -68.1,-500.3 v 0"
         style="fill:#103d46;fill-opacity:1;fill-rule:nonzero;stroke:none"
         id="path324" /><path
         d="m 27200.3,6136.5 133.6,96 c 133.5,96 164,282.1 68,415.6 l -1718.1,2404.1 c -95.9,133.6 -282,164 -415.5,68 l -133.6,-96 c -133.5,-96 -163.9,-282 -67.9,-415.6 l 1718,-2404.1 c 96,-133.5 282,-164 415.5,-68"
         style="fill:#184655;fill-opacity:1;fill-rule:nonzero;stroke:none"
         id="path326" /><path
         d="m 7375.6,6642.7 c 0,0 -549.98,101.4 -797.29,-480.3 -247.29,-581.7 -74.46,-501.6 -193.59,-791.7 -119.12,-290.1 -553.92,-306.8 -485.77,-714.7 68.15,-407.9 268.96,-439.5 268.96,-439.5 0,0 -119.09,-346 125.63,-640.5 244.75,-294.5 766,-496.3 1155.31,-384.6 0,0 650.81,-227.5 1222.81,26.9 572,254.3 363.67,219.5 608.23,260.4 244.56,40.8 849.71,486.7 659.28,958 0,0 322.83,546.2 -133.43,872.1 -456.3,325.9 -596.6,710.9 -910.89,1198.7 -314.27,487.9 -1268.72,307.5 -1519.25,135.2"
         style="fill:#f8c48b;fill-opacity:1;fill-rule:nonzero;stroke:none"
         id="path328" /><path
         d="m 7153.14,3490 c 0,0 -378.73,53.8 -968.06,-514.1 C 5595.74,2408 4801,1714.7 5144.79,1161.3 l 1447.47,34.7 c 0,0 875.11,1029.9 887.59,1083.4 12.48,53.6 -326.71,1210.6 -326.71,1210.6"
         style="fill:#d3d9f4;fill-opacity:1;fill-rule:nonzero;stroke:none"
         id="path330" /><path
         d="m 8842.26,3490.8 c 0,0 509.41,53 1098.74,-514.9 589.3,-567.9 1384.1,-1261.2 1040.3,-1814.6 L 9533.82,1196 c 0,0 -875.11,1029.9 -887.59,1083.4 -12.48,53.6 196.03,1211.4 196.03,1211.4"
         style="fill:#d3d9f4;fill-opacity:1;fill-rule:nonzero;stroke:none"
         id="path332" /><path
         d="M 9763,933.402 9627.94,2035.1 c -160.43,1336.2 -589.46,1473.9 -708.4,1486.1 -10.32,0.2 -20.4,0.4 -31.03,0.7 h -0.19 0.01 c -233.5,6.3 -538.74,23.1 -835.67,42.1 v 3.3 c -8.57,-0.5 -17.23,-1.1 -25.81,-1.6 -8.59,0.5 -17.25,1.1 -25.81,1.6 v -3.3 c -296.93,-19 -602.17,-35.8 -835.68,-42.1 h 0.03 -0.2 c -10.63,-0.3 -20.71,-0.5 -31.03,-0.7 C 7015.22,3509 6586.19,3371.3 6425.75,2035.1 L 6290.69,916.703 9763,933.402"
         style="fill:#355389;fill-opacity:1;fill-rule:nonzero;stroke:none"
         id="path334" /><path
         d="m 11018.4,1161.3 c 0,0 170.4,132.3 46.1,467.1 -124.3,334.8 -1014.6,559.5 -1209.29,96.2 l 1163.19,-563.3"
         style="fill:#c2ccf2;fill-opacity:1;fill-rule:nonzero;stroke:none"
         id="path336" /><path
         d="m 5107.66,1161.3 c 0,0 -170.4,132.3 -46.11,467.1 124.28,334.8 1014.64,559.5 1209.32,96.2 L 5107.66,1161.3"
         style="fill:#c2ccf2;fill-opacity:1;fill-rule:nonzero;stroke:none"
         id="path338" /><path
         d="m 8763.42,1128.9 c 18.59,28.6 -28.02,77.2 -62.98,113.6 -38.74,40.4 -273.28,141.8 -313.16,154 -39.89,12.2 -381.7,-36 -512.56,-78.9 -130.85,-42.9 -217.05,-25.2 -217.05,-25.2 -34.32,7 -85.89,16.4 -125.94,24.7 l -82.03,-309.3 c 307.17,3.9 628.35,-14.898 657.46,-14.198 92.3,2.398 261.38,98.998 300.6,113.098 39.23,14.2 118.67,3 172.07,-22 53.4,-25.1 208.89,-84.5 234.93,-70.7 26.04,13.9 -51.34,114.9 -51.34,114.9"
         style="fill:#ed9485;fill-opacity:1;fill-rule:nonzero;stroke:none"
         id="path340" /><path
         d="m 7675.65,1290.1 c 0,0 -1726.43,629.6 -2114.54,513.2 -388.11,-116.4 -543.23,-482 -426.8,-714.8 116.43,-232.898 2405.4,-76.2 2405.4,-76.2 l 135.94,277.8"
         style="fill:#ed9485;fill-opacity:1;fill-rule:nonzero;stroke:none"
         id="path342" /><path
         d="m 8399.37,4040.2 c -1.19,-11.3 50.11,-423 77.42,-640.7 10.18,-81.2 -38.44,-158.1 -116.04,-184.1 -207.4,-69.6 -609.88,-154.9 -853.22,117.1 -22.17,24.8 -31.98,58.3 -27.37,91.2 l 133.66,955.9 785.55,-339.4"
         style="fill:#f7a491;fill-opacity:1;fill-rule:nonzero;stroke:none"
         id="path344" /><path
         d="m 8360.75,3832.4 c 22.12,7.4 41.53,19.3 58.25,33.9 -11.8,97.6 -20.11,169.3 -19.63,173.9 l -785.55,339.4 -65.75,-470.2 c 245.48,-222.3 616.36,-142.9 812.68,-77"
         style="fill:#f47458;fill-opacity:1;fill-rule:nonzero;stroke:none"
         id="path346" /><path
         d="m 7088.13,5050.4 c 51.76,-160.1 5.93,-318.3 -102.34,-353.3 -108.27,-35 -237.98,66.5 -289.73,226.7 -51.75,160.1 -5.93,318.4 102.34,353.3 108.27,35 237.99,-66.5 289.73,-226.7"
         style="fill:#f7a491;fill-opacity:1;fill-rule:nonzero;stroke:none"
         id="path348" /><path
         d="m 8845.07,5178.8 c -27.92,-166 40.42,-315.8 152.63,-334.7 112.2,-18.9 225.78,100.4 253.7,266.4 27.91,166 -40.43,315.9 -152.63,334.7 -112.2,18.9 -225.79,-100.4 -253.7,-266.4"
         style="fill:#f7a491;fill-opacity:1;fill-rule:nonzero;stroke:none"
         id="path350" /><path
         d="m 9001.38,5252.9 c 52.4,-717.1 -361.87,-1331.8 -925.31,-1373 -563.44,-41.2 -1062.67,506.8 -1115.07,1223.9 -52.41,717.1 361.87,1331.8 925.31,1372.9 563.44,41.2 1062.67,-506.7 1115.07,-1223.8"
         style="fill:#f7a491;fill-opacity:1;fill-rule:nonzero;stroke:none"
         id="path352" /><path
         d="m 7495.55,3536.2 c 0,0 164.26,-301.4 506.06,-390.6 0,0 -260.06,-97.3 -408.67,-33.1 -148.6,64.3 -261.66,188.3 -97.39,423.7"
         style="fill:#f4f4f4;fill-opacity:1;fill-rule:nonzero;stroke:none"
         id="path354" /><path
         d="m 8459.95,3536.2 c 0,0 -162.42,-301.4 -500.37,-390.6 0,0 257.13,-97.3 404.07,-33.1 146.93,64.3 258.71,188.3 96.3,423.7"
         style="fill:#f4f4f4;fill-opacity:1;fill-rule:nonzero;stroke:none"
         id="path356" /><path
         d="m 8450.42,1290.1 c 0,0 1726.48,629.6 2114.58,513.2 388.1,-116.4 534.2,-498.2 417.7,-731 C 10866.3,839.398 8473.94,969.801 8473.94,969.801 l -23.52,320.299"
         style="fill:#f7a491;fill-opacity:1;fill-rule:nonzero;stroke:none"
         id="path358" /><path
         d="m 7769.12,4559.8 560.72,67.4 c 0,0 13.43,-223.1 -232.27,-260.1 -299.59,-45.2 -328.45,192.7 -328.45,192.7"
         style="fill:#ffffff;fill-opacity:1;fill-rule:nonzero;stroke:none"
         id="path360" /><path
         d="m 8199.72,1233.8 -186.17,-214.2 17.94,283.2 89.77,62.3 78.46,-131.3"
         style="fill:#f2e9da;fill-opacity:1;fill-rule:nonzero;stroke:none"
         id="path362" /><path
         d="m 8121.26,1365.1 20.19,-33.8 -127.9,-311.7 17.94,283.2 89.77,62.3"
         style="fill:#e0d5c3;fill-opacity:1;fill-rule:nonzero;stroke:none"
         id="path364" /><path
         d="m 8031.49,1302.8 -4.64,-73.3 52.08,53.9 409.8,998.9 -59.83,-10.8 -397.41,-968.7"
         style="fill:#e8ba70;fill-opacity:1;fill-rule:nonzero;stroke:none"
         id="path366" /><path
         d="m 8078.93,1283.4 10.26,-79.5 63.1,49.4 409.8,998.9 -73.36,30.1 -409.8,-998.9"
         style="fill:#f7cc7f;fill-opacity:1;fill-rule:nonzero;stroke:none"
         id="path368" /><path
         d="m 8152.29,1253.3 -0.76,-74.9 48.19,55.4 397.4,968.7 -35.03,49.7 -409.8,-998.9"
         style="fill:#fae0b2;fill-opacity:1;fill-rule:nonzero;stroke:none"
         id="path370" /><path
         d="m 8458.55,2208.7 30.18,73.6 73.36,-30.1 -30.18,-73.6 -73.36,30.1"
         style="fill:#466eb6;fill-opacity:1;fill-rule:nonzero;stroke:none"
         id="path372" /><path
         d="m 8531.91,2178.6 30.18,73.6 35.03,-49.7 -17.78,-43.3 -47.43,19.4"
         style="fill:#88b5e2;fill-opacity:1;fill-rule:nonzero;stroke:none"
         id="path374" /><path
         d="m 8411.12,2228.2 17.78,43.3 59.83,10.8 -30.18,-73.6 -47.43,19.5"
         style="fill:#2c4b70;fill-opacity:1;fill-rule:nonzero;stroke:none"
         id="path376" /><path
         d="m 8496.35,2092 47.42,-19.5 35.57,86.7 -47.43,19.4 -35.56,-86.6"
         style="fill:#fef8f8;fill-opacity:1;fill-rule:nonzero;stroke:none"
         id="path378" /><path
         d="m 8375.55,2141.5 47.43,-19.4 35.56,86.6 -47.42,19.5 -35.57,-86.7"
         style="fill:#eddfca;fill-opacity:1;fill-rule:nonzero;stroke:none"
         id="path380" /><path
         d="m 8422.98,2122.1 73.37,-30.1 35.56,86.6 -73.36,30.1 -35.57,-86.6"
         style="fill:#f2e9da;fill-opacity:1;fill-rule:nonzero;stroke:none"
         id="path382" /><path
         d="m 8076.73,1092.3 -63.18,-72.7 6.09,96.1 22.13,-27.4 34.96,4"
         style="fill:#db3f2a;fill-opacity:1;fill-rule:nonzero;stroke:none"
         id="path384" /><path
         d="m 7757.48,1090 c 5.39,-22.5 30.83,-56.7 61.9,-52.6 0,0 15.46,-1.4 17.75,-6.5 2.04,-4.6 -2.91,-31.099 3.23,-56.099 h 906.35 c 2.5,0.699 5.03,1.5 7.67,2.199 v 408.9 c -68.43,-9 -119.39,-14.2 -126.47,-10.9 -28.2,13.5 -126.7,69.7 -188.87,77.1 -62.16,7.5 -167.06,47.8 -197.45,42.4 -30.39,-5.4 -180.59,-83.7 -202.04,-87.5 -21.45,-3.8 -43.62,-24.3 -56.65,-34 -13.04,-9.7 -161.72,-34.3 -189.25,-55.7 -27.53,-21.5 -24.81,-109.6 -4.27,-131.7 0,0 2.32,-7.9 -10.76,-19.9 -13.08,-12 -26.53,-53.1 -21.14,-75.7"
         style="fill:#f7a491;fill-opacity:1;fill-rule:nonzero;stroke:none"
         id="path386" /><path
         d="m 9693.61,15899.6 c 17.3,-0.7 64.71,-16.5 134.03,-147.5 88.53,-167.3 217.96,-672.7 217.96,-672.7 l -386.26,-143.9 -49.61,105.5 -81.72,812.1 c 0,0 160.81,46.7 165.6,46.5"
         style="fill:#a34b3d;fill-opacity:1;fill-rule:nonzero;stroke:none"
         id="path388" /><path
         d="m 9183.08,15972.5 c 110.44,-0.2 383.7,-32.4 510.53,-72.9 0,0 93.17,-800.8 -83.88,-1409.3 -39.64,-136.2 32.77,-564.7 32.77,-564.7 l -1144.38,15.1 c 0,0 135.57,1035.8 84.5,1203.1 -51.08,167.3 -52.3,750.4 -52.3,750.4 0,0 7.84,1.2 257.12,44.3 116.27,20.1 277.73,34.2 395.64,34"
         style="fill:#b75742;fill-opacity:1;fill-rule:nonzero;stroke:none"
         id="path390" /><path
         d="m 9049.74,12439.3 c 0,0 25.31,-292.2 71.86,-373.1 46.55,-80.9 -2.45,-218.5 -4.9,-237.4 -2.45,-18.9 -98,-45.8 -249.89,-29.6 -151.9,16.2 -149.45,51.2 -137.2,107.9 12.25,56.6 93.1,129.4 98,183.4 4.89,53.9 -46.55,248.1 -46.55,248.1 l 268.68,100.7"
         style="fill:#f7a491;fill-opacity:1;fill-rule:nonzero;stroke:none"
         id="path392" /><path
         d="m 9513.39,14166.8 c 0,0 790.01,43.9 966.41,-62.9 176.4,-106.9 -125.4,-631.2 -125.4,-631.2 0,0 -549.66,25.3 -1626.35,-36.8 -254.96,-14.7 -276.94,664.8 -229.26,721 47.68,56.2 1014.6,9.9 1014.6,9.9"
         style="fill:#e0973f;fill-opacity:1;fill-rule:nonzero;stroke:none"
         id="path394" /><path
         d="m 8847.86,11776.5 c -156.41,16.6 -137.07,93.5 -124.46,151.8 7.9,36.5 52.77,79.6 79.52,120.3 13.98,-11.1 36.72,-30.8 104.65,-50.8 70.54,-20.9 167.22,20.4 228.84,46.2 21.96,-81.7 22.96,-186 20.91,-201.8 -2.52,-19.4 -153.05,-82.4 -309.46,-65.7"
         style="fill:#dd513a;fill-opacity:1;fill-rule:nonzero;stroke:none"
         id="path396" /><path
         d="m 8934.19,13601.7 c 31.57,-238.9 187.84,-1427.8 187.84,-1427.8 l -362.6,-44.9 c 0,0 -445.89,1551.8 -423.02,1789.2 22.87,237.3 189.77,257.3 189.77,257.3 0,0 324.47,58.4 408.01,-573.8"
         style="fill:#f7cc7f;fill-opacity:1;fill-rule:nonzero;stroke:none"
         id="path398" /><path
         d="m 8517.87,15805.2 c 107,40.1 159.34,-923.9 173.77,-1320.8 189.48,-18.2 519.74,-0.1 601.98,6.1 38.67,2.9 127.85,35.5 166.32,40.6 39.42,5.2 75.14,7.8 94.52,4.5 7.11,-1.3 204.61,-82 221.51,-99.8 20.96,-21.9 77.6,-77.3 68.04,-101.3 -9.56,-23.9 -108.94,66.8 -108.94,66.8 l -48.57,27.2 c 60.46,-59.1 175.79,-136.8 159.18,-165.2 -16.21,-27.6 -120.24,51.4 -194.38,105.1 63.59,-57.4 142.6,-160.2 124.4,-176.2 -16.36,-14.4 -106.23,104.6 -202.27,138.9 -35.6,12.7 -71.07,-22.5 -99.07,-26.7 -20.58,-3.2 -52.34,-9.8 -72.53,-4.1 l -103.99,29.5 c -35.43,-3.2 -36.32,-24.2 -72.09,-31.8 -41.53,-8.8 -109.67,-18.1 -162.56,-31 -304.55,-74.4 -406.13,-109 -499.38,-108.9 -282.44,0.1 -298.82,1552.2 -45.94,1647.1"
         style="fill:#f7a491;fill-opacity:1;fill-rule:nonzero;stroke:none"
         id="path400" /><path
         d="m 8314.81,14900.1 c -20.04,406.5 -17.11,907.5 210.74,992.9 89.91,33.8 248.4,-169 219.89,-1001.2 -121.64,-10 -300.22,-18.1 -430.63,8.3"
         style="fill:#a34b3d;fill-opacity:1;fill-rule:nonzero;stroke:none"
         id="path402" /><path
         d="m 10147.9,12155.9 c 0,0 -52.4,-92.4 -11.2,-170 41.2,-77.5 257.4,-191.5 280,-233.6 22.5,-42 13.7,-71.8 13.7,-71.8 l -642,157.4 49.2,193.5 60.03,133.7 250.27,-9.2"
         style="fill:#f7a491;fill-opacity:1;fill-rule:nonzero;stroke:none"
         id="path404" /><path
         d="m 10169.8,11944.6 c 0,0 -180.41,-31.3 -251.97,25.8 -71.56,57 -66.76,67.5 -93.16,57.7 -16.97,-6.3 -42.79,-83.3 -59.08,-137.6 -8.67,-28.9 8.7,-59.1 37.96,-66.3 L 10472,11659 c 50.8,-9.8 84.4,21.9 50.2,62.6 -23.4,28 -52.8,49.6 -69,64.2 -49.7,44.9 -283.4,158.8 -283.4,158.8"
         style="fill:#dd513a;fill-opacity:1;fill-rule:nonzero;stroke:none"
         id="path406" /><path
         d="m 10085,13979.6 c 51,107.4 167.2,247.3 371.5,163.1 194.9,-80.4 247.3,-277.9 185.8,-480.2 -61.5,-202.3 -466.4,-1391.3 -480.5,-1554.8 l -323.2,-2.1 c 0,0 58.74,941.5 73.15,1169 13.87,219 84.86,519 173.25,705"
         style="fill:#f7cc7f;fill-opacity:1;fill-rule:nonzero;stroke:none"
         id="path408" /><path
         d="M 10609.7,15074.7 H 9529.24 c -28.59,0 -54.34,-17.3 -65.19,-43.8 l -332.69,-814.2 h -595.67 c -16.66,0 -30.16,-13.5 -30.16,-30.2 0,-16.7 13.5,-30.3 30.16,-30.3 H 10231 c 46.6,0 88.9,27.5 108,70.1 l 335,748.8 c 20.9,46.8 -13.2,99.6 -64.3,99.6"
         style="fill:#184655;fill-opacity:1;fill-rule:nonzero;stroke:none"
         id="path410" /><path
         d="m 10028,14600.6 c -7.3,-36.5 -39.1,-61 -71.02,-54.6 -31.92,6.4 -51.88,41.3 -44.58,77.8 7.3,36.6 39.09,61.1 71.01,54.7 31.89,-6.4 51.89,-41.3 44.59,-77.9"
         style="fill:#ffffff;fill-opacity:1;fill-rule:nonzero;stroke:none"
         id="path412" /><path
         d="m 9439.85,16950.6 c -32.56,10.9 -64.62,23.3 -95.58,38.2 -34.99,16.9 -80.34,36.7 -108.99,41.1 -60.29,9.3 -163.88,3.1 -221.09,-59 -71.27,-77.3 -197.91,-13.9 -172.4,-418.8 28.87,-458.4 283.72,-408.1 289.9,-400.3 6.19,7.8 227.29,293.2 227.29,293.2 0,0 77.3,-169.1 77.3,-162.9 0,6 394.74,536.7 3.57,668.5"
         style="fill:#0e2e35;fill-opacity:1;fill-rule:nonzero;stroke:none"
         id="path414" /><path
         d="m 9246.39,16117.9 22,-163.7 c 0,0 49.28,-236 -14.12,-281.4 -63.4,-45.5 -269.62,288.1 -269.62,288.1 l 21.78,415 239.96,-258"
         style="fill:#f7a491;fill-opacity:1;fill-rule:nonzero;stroke:none"
         id="path416" /><path
         d="m 8999.39,16241.4 c 52.37,-141.5 177.11,-228.5 265.65,-262.3 l -18.65,138.8 -239.96,258 -7.04,-134.5"
         style="fill:#f47458;fill-opacity:1;fill-rule:nonzero;stroke:none"
         id="path418" /><path
         d="m 9233.36,16827.5 c 134.35,21.7 254.85,-86.4 251.5,-220.9 -1.46,-58.4 -6.26,-131.4 -18.4,-210 -29.21,-189.1 -158.19,-355.5 -243.48,-340.7 -85.28,14.9 -299.87,178 -262.09,447 23.33,166.1 131.49,301.8 272.47,324.6"
         style="fill:#f7a491;fill-opacity:1;fill-rule:nonzero;stroke:none"
         id="path420" /><path
         d="m 9020.07,16470.8 c -7.19,-41.6 -40.49,-70.5 -74.37,-64.6 -33.88,5.9 -55.51,44.4 -48.32,86 7.2,41.5 40.5,70.4 74.38,64.5 33.87,-5.9 55.51,-44.4 48.31,-85.9"
         style="fill:#f7a491;fill-opacity:1;fill-rule:nonzero;stroke:none"
         id="path422" /><path
         d="m 8971.76,16556.7 c 0,0 103.11,-25.6 141.38,40.7 38.27,66.4 175.1,209.5 349.04,150.1 173.94,-59.3 -153.07,144.3 -166.98,144.3 -13.92,0 -180.9,1.2 -180.9,1.2 0,0 -128.71,-105.9 -133.35,-117.5 -4.64,-11.7 -41.75,-138.5 -41.75,-138.5 l 32.56,-80.3"
         style="fill:#0e2e35;fill-opacity:1;fill-rule:nonzero;stroke:none"
         id="path424" /><path
         d="m 9160.41,16280 187.63,-35.8 c 0,0 -17.9,-70.7 -100.87,-57.3 -101.16,16.3 -86.76,93.1 -86.76,93.1"
         style="fill:#ffffff;fill-opacity:1;fill-rule:nonzero;stroke:none"
         id="path426" /><path
         d="M 28479.2,913.602 H 1363.33 V 1007.8 H 28479.2 v -94.198"
         style="fill:#b75742;fill-opacity:1;fill-rule:nonzero;stroke:none"
         id="path428" /><path
         d="M 6648.64,9462.1 H 3526.1 c -138.19,0 -250.2,-112 -250.2,-250.2 V 7561 c 0,-138.2 112.01,-250.2 250.2,-250.2 h 2271.63 c 127.47,-177.9 358.58,-496.4 378.97,-496.4 19.11,0 -17.67,300.8 -43.59,496.4 h 515.53 c 138.17,0 250.2,112 250.2,250.2 v 1650.9 c 0,138.2 -112.03,250.2 -250.2,250.2"
         style="fill:#f7cc7f;fill-opacity:1;fill-rule:nonzero;stroke:none"
         id="path430" /><path
         d="m 22410.2,7075.1 c 57.4,138 115.7,276.2 264.4,346.1 120.4,56.5 246.1,35.2 353.1,-45.2 303,-227.9 39,-479 384,-911.1 107.1,-134.3 236.9,-242.7 301.1,-400.1 89.9,-220.2 -66.7,-542.7 -238.4,-648.1 -821.1,-504.7 -1201.9,748.2 -1186.5,985.3 11.5,176.3 85.4,584.3 122.3,673.1"
         style="fill:#f7cc7f;fill-opacity:1;fill-rule:nonzero;stroke:none"
         id="path432" /><path
         d="m 21558.1,4389.2 c 34.6,5.4 118.7,65.7 148.4,71.1 23,4.3 72.7,11.8 93.9,15 26,97 157.9,625.6 172.6,780.6 16,167.9 134.8,894.2 134.8,894.2 l 307.4,-55.9 c 0,0 -127.7,-558.7 -163,-829.6 -30.3,-232.7 -285.6,-756 -318.1,-811.2 0,-1.3 -0.1,-2.6 -0.1,-4 -5,-82.1 -44.5,-54.8 -44.5,-54.8 l -64.3,-16.4 c 0,0 -227.5,-21.9 -242.4,-27.4 -14.8,-5.4 -59.3,32.9 -24.7,38.4"
         style="fill:#f7a491;fill-opacity:1;fill-rule:nonzero;stroke:none"
         id="path434" /><path
         d="m 22375.8,6574.7 c -217.3,-73.7 -340.9,-664.5 -340.9,-664.5 0,0 341,-95.2 428.3,-45.3 0,0 99.2,439.6 134.7,424.2 l -222.1,285.6"
         style="fill:#3c8f7c;fill-opacity:1;fill-rule:nonzero;stroke:none"
         id="path436" /><path
         d="m 20694.7,3368.4 c -66.5,-175.4 -101,-344.3 -104.1,-364.8 -1.5,-9.8 12.4,-57.5 11.1,-67.7 -133.5,-182.1 -325.3,-221.9 -489.8,-233.5 83.8,81.8 206.9,159.3 212.8,185.3 9.4,41.2 60,224.9 84.9,479.4 102.3,-47.3 171.7,-9.8 285.1,1.3"
         style="fill:#f7a491;fill-opacity:1;fill-rule:nonzero;stroke:none"
         id="path438" /><path
         d="m 22586.1,5330.4 293.7,-827.2 c 0,0 -472,-88.8 -648.4,-121.2 -176.5,-32.4 -1162.3,-75.4 -1187.3,-92.9 -18.6,-13 -222.2,-671.7 -313.2,-1034.9 -103.2,-22.7 -279.8,4.6 -373.8,37 50.8,519.6 234.2,1342.9 292.9,1432.6 95.6,145.9 1936.1,606.6 1936.1,606.6"
         style="fill:#355389;fill-opacity:1;fill-rule:nonzero;stroke:none"
         id="path440" /><path
         d="m 21438.8,3005.8 c -32.5,-184.8 -34.7,-357.2 -34,-377.8 0.4,-10 23,-54.2 23.6,-64.5 -97,-203.8 -278,-278.9 -437.3,-321.1 67,96.1 173.3,195.3 174.3,221.8 1.5,42.3 16.8,232.2 -6.4,486.9 109.3,-27.3 170.5,22.5 279.8,54.7"
         style="fill:#f7a491;fill-opacity:1;fill-rule:nonzero;stroke:none"
         id="path442" /><path
         d="m 22929,5287.5 113.9,-194.6 c 173.5,-296.2 40.5,-677.4 -279.5,-801.5 -1.8,-0.7 -3.5,-1.4 -5.1,-2 -167.3,-64.9 -1127.6,-291.9 -1148.9,-313.8 -15.8,-16.2 -92.4,-701.4 -113.7,-1075.2 -97.1,-41.7 -275.7,-48 -374.1,-33.8 -47.5,520 -21.7,1363.1 19.2,1462.2 66.6,161.3 1788.2,958.7 1788.2,958.7"
         style="fill:#86b1f2;fill-opacity:1;fill-rule:nonzero;stroke:none"
         id="path444" /><path
         d="m 21390.1,2622.2 c 25.6,28.2 119.5,-127.2 142.9,-160.3 26.4,-37.3 18.9,-65.5 15.7,-71.3 -8.3,-15.4 -503.3,-306.6 -624,-327.3 -11.4,-2 -31.2,5.2 -36.2,9.6 -47.2,41.8 170,350.2 267.5,390.7 63.1,26.2 119.1,31.6 234.1,158.6"
         style="fill:#13375b;fill-opacity:1;fill-rule:nonzero;stroke:none"
         id="path446" /><path
         d="m 20574.8,2998 c 30.4,23 93.5,-147.3 110.3,-184.3 19,-41.5 6.3,-67.7 2.1,-72.9 -11,-13.5 -551.9,-206.8 -674.3,-204.6 -11.6,0.2 -29.7,11 -33.7,16.3 -38.5,49.8 232.6,312.1 335.9,333.6 66.9,13.9 122.9,8.7 259.7,111.9"
         style="fill:#13375b;fill-opacity:1;fill-rule:nonzero;stroke:none"
         id="path448" /><path
         d="m 22581.9,6576.4 v 0 0 c -5.6,0 -13.7,2 -21.9,4.5 -40.4,7.3 -128.6,17.8 -197.3,-11.1 -83.5,-35.3 -212.9,-364.5 -205.2,-702.4 3.1,-51.6 6.2,-97.9 8.9,-130.1 21.1,-255.3 94.3,-734.3 98.3,-736.8 99.6,-64.1 700.6,184.5 741.9,239.1 41.3,54.6 65.7,718 85.8,751.1 l 39.5,577 c -69.7,20.8 -443.1,9.5 -550,8.7"
         style="fill:#50bfa5;fill-opacity:1;fill-rule:nonzero;stroke:none"
         id="path450" /><path
         d="m 22825.5,6788.9 c 0,0 -38.7,-200.2 -30.9,-279.1 7.7,-79 -29.6,-333.5 -196.7,-334.3 -167.1,-0.8 -31.7,323.5 -16,400.9 15.8,77.4 19.5,316.9 19.5,316.9 l 224.1,-104.4"
         style="fill:#f7a491;fill-opacity:1;fill-rule:nonzero;stroke:none"
         id="path452" /><path
         d="m 22597.9,6773.1 c 2.6,65.6 3.5,120.2 3.5,120.2 l 224.1,-104.4 c 0,0 -7.9,-40.9 -15.9,-93.1 -98.1,-19.7 -169.2,16.6 -211.7,77.3"
         style="fill:#f47458;fill-opacity:1;fill-rule:nonzero;stroke:none"
         id="path454" /><path
         d="m 22907.4,7341.3 c 0,0 86.4,-47.9 118,-151.7 31.5,-103.8 -4.4,-371.8 -227.5,-436.5 -223.1,-64.6 -319.7,147.6 -273.8,313.4 46,165.9 145.9,376 383.3,274.8"
         style="fill:#f7a491;fill-opacity:1;fill-rule:nonzero;stroke:none"
         id="path456" /><path
         d="m 22496.2,7130.8 c 4.4,-44.5 29,-78.6 54.9,-76 26,2.5 43.5,40.7 39.1,85.3 -4.4,44.5 -28.9,78.6 -54.9,76 -25.9,-2.5 -43.4,-40.7 -39.1,-85.3"
         style="fill:#f7a491;fill-opacity:1;fill-rule:nonzero;stroke:none"
         id="path458" /><path
         d="m 22881.3,7354.9 c 0,0 40.4,-298.9 137.1,-352.9 96.6,-53.9 56.1,-186.5 56.1,-186.5 0,0 87.7,307.9 11.3,406.8 -76.4,98.9 -204.5,132.6 -204.5,132.6"
         style="fill:#f7cc7f;fill-opacity:1;fill-rule:nonzero;stroke:none"
         id="path460" /><path
         d="m 22961.1,6959.1 c -26.2,-38.9 -26.1,-84.9 0.2,-102.6 26.4,-17.7 68.9,-0.5 95.1,38.5 26.3,38.9 26.2,84.9 -0.2,102.6 -26.3,17.7 -68.9,0.5 -95.1,-38.5"
         style="fill:#f7a491;fill-opacity:1;fill-rule:nonzero;stroke:none"
         id="path462" /><path
         d="m 22636.1,6942.5 157.2,-39.6 c 0,0 -18.9,-59.7 -88.5,-44.3 -85,18.7 -68.7,83.9 -68.7,83.9"
         style="fill:#ffffff;fill-opacity:1;fill-rule:nonzero;stroke:none"
         id="path464" /><path
         d="m 24109.9,4448.8 c -2.8,7.2 -9.1,7.3 -15.5,7.5 -62.2,1.9 -124.4,4.7 -186.1,13.9 -10.3,1.6 -20.4,3.9 -29.9,7.7 -17.1,6.8 -34.1,6.7 -51.4,1.8 -9.4,-2.6 -18.9,-3 -28.6,-3 -31.3,0.1 -120.5,30.5 -166.3,38.5 -10.5,1.9 -18.8,9.8 -21.4,20.1 -45.1,178.3 -141.9,578.5 -154.4,710.1 -16.1,168.3 -132.3,927.1 -132.3,927.1 l -310.9,-86.7 c 0,0 128,-560.1 163.3,-831.7 27.4,-209.7 236.9,-654.7 302.6,-782.6 32.1,-95.3 104.1,-97.9 120.9,-100 9.5,-1.1 18.3,-5.8 24.6,-13.2 11.4,-13.2 24.4,-24.7 39.2,-34.1 11.1,-6.9 19.6,-16 26.8,-26.6 13.2,-19.3 25,-39.5 36.7,-59.7 7.8,-13.4 15.9,-17.6 27.4,-14.5 12.3,3.4 18.2,12.5 18,27.6 -0.4,22.2 -7.5,42.3 -18.6,61.2 -10.5,17.8 -9.7,28.1 2.5,44.4 7,9.4 14.2,18.5 23.3,26 9.4,7.6 19.2,13.3 31.8,11.6 22.4,-5.6 44.9,-10.2 67.9,-12.7 l 18.8,-3.8 10.2,-2.2 c 1.6,-0.4 34.7,-4 46,-4.1 9.1,0 23.9,-0.6 36.4,-1.2 11.3,-0.5 35.3,5.4 36.2,5.4 11,0.3 20.8,4.3 29,11.7 3.4,3 6.6,6.4 4.9,11.5 -1.6,4.8 -5.3,6.8 -10.1,7.6 -7.5,1.4 -46.1,6.1 -45.6,7.7 11.4,0 47.3,0.9 58.8,1.2 15.4,0.4 28.8,5.9 39.5,17.3 4.2,4.6 9.1,9 6.3,16.2"
         style="fill:#f7a491;fill-opacity:1;fill-rule:nonzero;stroke:none"
         id="path466" /><path
         d="m 23135.7,6568.9 c 153.4,27.9 280,-658.7 280,-658.7 0,0 -340.9,-95.2 -428.3,-45.3 0,0 -99.2,439.6 -134.7,424.2 l 283,279.8"
         style="fill:#50bfa5;fill-opacity:1;fill-rule:nonzero;stroke:none"
         id="path468" /><path
         d="m 20788.2,5614.8 h 857.8 c 22.7,0 43.1,-13.7 51.7,-34.8 l 264.2,-646.4 h 472.9 c 13.2,0 23.9,-10.7 23.9,-24 0,-13.3 -10.7,-24 -23.9,-24 h -1346 c -37,0 -70.5,21.8 -85.7,55.7 l -265.9,594.4 c -16.7,37.2 10.4,79.1 51,79.1"
         style="fill:#f47458;fill-opacity:1;fill-rule:nonzero;stroke:none"
         id="path470" /><path
         d="m 21250,5238.4 c 5.8,-29 31.1,-48.4 56.4,-43.3 25.3,5.1 41.2,32.7 35.4,61.7 -5.8,29.1 -31,48.5 -56.4,43.4 -25.3,-5.1 -41.2,-32.7 -35.4,-61.8"
         style="fill:#ffffff;fill-opacity:1;fill-rule:nonzero;stroke:none"
         id="path472" /><path
         d="m 3562.55,8803.2 h 3160.79 v 169.102 H 3562.55 Z"
         style="fill:#fdf5e5;fill-opacity:1;fill-rule:nonzero;stroke:none"
         id="path474" /><path
         d="m 3984.78,8335.1 h 2316.33 v 169.098 H 3984.78 Z"
         style="fill:#fdf5e5;fill-opacity:1;fill-rule:nonzero;stroke:none"
         id="path476" /><path
         d="m 3820.34,7864.1 h 2645.22 v 169.098 H 3820.34 Z"
         style="fill:#fdf5e5;fill-opacity:1;fill-rule:nonzero;stroke:none"
         id="path478" /></g></g></svg>
